M48
; DRILL file {KiCad 8.0.4} date 2024-08-15T00:18:25+0545
; FORMAT={-:-/ absolute / inch / decimal}
; #@! TF.CreationDate,2024-08-15T00:18:25+05:45
; #@! TF.GenerationSoftware,Kicad,Pcbnew,8.0.4
; #@! TF.FileFunction,Plated,1,2,PTH
FMAT,2
INCH
; #@! TA.AperFunction,Plated,PTH,ViaDrill
T1C0.0118
; #@! TA.AperFunction,Plated,PTH,ComponentDrill
T2C0.0118
; #@! TA.AperFunction,Plated,PTH,ComponentDrill
T3C0.0157
; #@! TA.AperFunction,Plated,PTH,ComponentDrill
T4C0.0295
; #@! TA.AperFunction,Plated,PTH,ComponentDrill
T5C0.0394
; #@! TA.AperFunction,Plated,PTH,ComponentDrill
T6C0.0433
; #@! TA.AperFunction,Plated,PTH,ComponentDrill
T7C0.0500
; #@! TA.AperFunction,Plated,PTH,ComponentDrill
T8C0.0866
; #@! TA.AperFunction,Plated,PTH,ComponentDrill
T9C0.1693
%
G90
G05
T1
X9.8849Y-6.6339
X9.8849Y-6.752
X9.9439Y-7.5689
X9.9931Y-7.5394
X10.1801Y-8.1496
X10.2884Y-8.1496
X10.377Y-8.1496
X10.5345Y-7.6476
X10.5345Y-7.7461
X10.6034Y-7.5591
X10.6034Y-7.6772
T2
X6.0817Y-6.6047
X6.0817Y-6.715
X6.0817Y-7.3528
X6.0817Y-7.463
X6.0817Y-8.1008
X6.0817Y-8.211
X6.8298Y-6.3055
X6.8298Y-6.4157
X6.8298Y-7.0535
X6.8298Y-7.1638
X6.8298Y-7.8016
X6.8298Y-7.9118
X7.5778Y-6.0961
X7.5778Y-6.2063
X7.5778Y-6.8441
X7.5778Y-6.9543
X7.5778Y-7.5921
X7.5778Y-7.7024
X8.3258Y-6.3429
X8.3258Y-6.4531
X8.3258Y-7.0909
X8.3258Y-7.2012
X8.3258Y-7.839
X8.3258Y-7.9492
X8.438Y-8.7815
X8.438Y-8.8917
X9.0738Y-6.4252
X9.0738Y-6.5354
X9.0738Y-7.1732
X9.0738Y-7.2835
X9.0738Y-7.9213
X9.0738Y-8.0315
X9.3337Y-8.904
X9.3519Y-8.7953
X10.2058Y-9.0999
X10.2417Y-8.9957
X10.7983Y-8.4922
X10.9793Y-8.6732
T3
X10.1895Y-6.2217
X10.1895Y-6.3217
X10.1895Y-6.4217
X10.1895Y-6.5217
X10.1895Y-6.6217
X10.1895Y-6.7217
X10.1895Y-6.8217
X10.1895Y-6.9217
X10.1895Y-7.0217
X10.1895Y-7.1217
X10.1895Y-7.2217
X10.1895Y-7.3217
X10.4464Y-6.2217
X10.4464Y-6.3217
X10.4464Y-6.4217
X10.4464Y-6.5217
X10.4464Y-6.6217
X10.4464Y-6.7217
X10.4464Y-6.8217
X10.4464Y-6.9217
X10.4464Y-7.0217
X10.4464Y-7.1217
X10.4464Y-7.2217
X10.4464Y-7.3217
T4
X10.3849Y-7.6181
X10.3849Y-7.6969
T5
X10.0179Y-6.2217
X10.0179Y-6.3217
X10.0179Y-6.4217
X10.0179Y-6.5217
X10.0179Y-6.6217
X10.0179Y-6.7217
X10.0179Y-6.8217
X10.0179Y-6.9217
X10.0179Y-7.0217
X10.0179Y-7.1217
X10.0179Y-7.2217
X10.0179Y-7.3217
X10.6179Y-6.2217
X10.6179Y-6.3217
X10.6179Y-6.4217
X10.6179Y-6.5217
X10.6179Y-6.6217
X10.6179Y-6.7217
X10.6179Y-6.8217
X10.6179Y-6.9217
X10.6179Y-7.0217
X10.6179Y-7.1217
X10.6179Y-7.2217
X10.6179Y-7.3217
T6
X10.0282Y-8.4719
X10.5437Y-8.4719
T7
X6.1841Y-6.4472
X6.1841Y-7.1953
X6.1841Y-7.9433
X6.3809Y-6.3646
X6.3809Y-6.3646
X6.3809Y-7.1126
X6.3809Y-7.1126
X6.3809Y-7.8606
X6.3809Y-7.8606
X6.5778Y-6.4472
X6.5778Y-7.1953
X6.5778Y-7.9433
X6.9321Y-6.148
X6.9321Y-6.8961
X6.9321Y-7.6441
X7.129Y-6.0654
X7.129Y-6.0654
X7.129Y-6.8134
X7.129Y-6.8134
X7.129Y-7.5614
X7.129Y-7.5614
X7.3258Y-6.148
X7.3258Y-6.8961
X7.3258Y-7.6441
X7.6801Y-5.9386
X7.6801Y-6.6866
X7.6801Y-7.4346
X7.877Y-5.8559
X7.877Y-5.8559
X7.877Y-6.6039
X7.877Y-6.6039
X7.877Y-7.352
X7.877Y-7.352
X8.0738Y-5.9386
X8.0738Y-6.6866
X8.0738Y-7.4346
X8.4282Y-6.1854
X8.4282Y-6.9335
X8.4282Y-7.6815
X8.5404Y-8.624
X8.625Y-6.1028
X8.625Y-6.1028
X8.625Y-6.8508
X8.625Y-6.8508
X8.625Y-7.5988
X8.625Y-7.5988
X8.7372Y-8.5413
X8.7372Y-8.5413
X8.8219Y-6.1854
X8.8219Y-6.9335
X8.8219Y-7.6815
X8.9341Y-8.624
X9.1762Y-6.2677
X9.1762Y-7.0157
X9.1762Y-7.7638
X9.3731Y-6.185
X9.3731Y-6.185
X9.3731Y-6.9331
X9.3731Y-6.9331
X9.3731Y-7.6811
X9.3731Y-7.6811
X9.4788Y-8.6568
X9.5699Y-6.2677
X9.5699Y-7.0157
X9.5699Y-7.7638
X9.6866Y-8.6078
X9.6866Y-8.6078
X9.8671Y-8.7218
X10.3898Y-8.8801
X10.6028Y-8.866
X10.6028Y-8.866
X10.762Y-9.0083
T8
X2.6207Y-2.4672
X2.6207Y-3.2152
X4.8386Y-2.551
X4.8386Y-3.299
X5.8151Y-4.7621
X6.7812Y-6.6664
X6.7812Y-7.4144
X8.999Y-6.7502
X8.999Y-7.4982
X10.0877Y-8.9613
T9
X10.1345Y-3.5381
X10.1345Y-4.2861
X12.3524Y-3.6219
X12.3524Y-4.3699
X13.3288Y-5.8329
T6
G00X10.0282Y-8.3991
M15
G01X10.0282Y-8.3794
M16
G05
G00X10.1256Y-8.4237
M15
G01X10.1256Y-8.404
M16
G05
G00X10.1463Y-8.404
M15
G01X10.1463Y-8.4237
M16
G05
G00X10.2256Y-8.4237
M15
G01X10.2256Y-8.404
M16
G05
G00X10.2463Y-8.404
M15
G01X10.2463Y-8.4237
M16
G05
G00X10.3256Y-8.4237
M15
G01X10.3256Y-8.404
M16
G05
G00X10.3463Y-8.404
M15
G01X10.3463Y-8.4237
M16
G05
G00X10.4256Y-8.4237
M15
G01X10.4256Y-8.404
M16
G05
G00X10.4463Y-8.404
M15
G01X10.4463Y-8.4237
M16
G05
G00X10.5437Y-8.3794
M15
G01X10.5437Y-8.3991
M16
G05
M30
