M48
; DRILL file {KiCad 8.0.4} date 2024-08-15T00:18:25+0545
; FORMAT={-:-/ absolute / inch / decimal}
; #@! TF.CreationDate,2024-08-15T00:18:25+05:45
; #@! TF.GenerationSoftware,Kicad,Pcbnew,8.0.4
; #@! TF.FileFunction,NonPlated,1,2,NPTH
FMAT,2
INCH
; #@! TA.AperFunction,NonPlated,NPTH,ComponentDrill
T1C0.0354
; #@! TA.AperFunction,NonPlated,NPTH,ComponentDrill
T2C0.0670
; #@! TA.AperFunction,NonPlated,NPTH,ComponentDrill
T3C0.1350
%
G90
G05
T1
X10.7738Y-7.5984
X10.7738Y-7.5984
X10.7738Y-7.7165
X10.7738Y-7.7165
T2
X6.1644Y-6.5969
X6.1644Y-7.3449
X6.1644Y-8.0929
X6.5975Y-6.5969
X6.5975Y-7.3449
X6.5975Y-8.0929
X6.9124Y-6.2976
X6.9124Y-7.0457
X6.9124Y-7.7937
X7.3455Y-6.2976
X7.3455Y-7.0457
X7.3455Y-7.7937
X7.6605Y-6.0882
X7.6605Y-6.8362
X7.6605Y-7.5843
X8.0935Y-6.0882
X8.0935Y-6.8362
X8.0935Y-7.5843
X8.4085Y-6.335
X8.4085Y-7.0831
X8.4085Y-7.8311
X8.5207Y-8.7736
X8.8416Y-6.335
X8.8416Y-7.0831
X8.8416Y-7.8311
X8.9538Y-8.7736
X9.1565Y-6.4173
X9.1565Y-7.1654
X9.1565Y-7.9134
X9.4347Y-8.8012
X9.5896Y-6.4173
X9.5896Y-7.1654
X9.5896Y-7.9134
X9.8618Y-8.8726
X10.3225Y-9.0152
X10.7319Y-9.1562
T3
X6.3809Y-6.5969
X6.3809Y-7.3449
X6.3809Y-8.0929
X7.129Y-6.2976
X7.129Y-7.0457
X7.129Y-7.7937
X7.877Y-6.0882
X7.877Y-6.8362
X7.877Y-7.5843
X8.625Y-6.335
X8.625Y-7.0831
X8.625Y-7.8311
X8.7372Y-8.7736
X9.3731Y-6.4173
X9.3731Y-7.1654
X9.3731Y-7.9134
X9.6483Y-8.8369
X10.5272Y-9.0857
M30
