%TF.GenerationSoftware,KiCad,Pcbnew,8.0.4*%
%TF.CreationDate,2024-08-15T00:18:30+05:45*%
%TF.ProjectId,kankeys,6b616e6b-6579-4732-9e6b-696361645f70,0.0.1*%
%TF.SameCoordinates,Original*%
%TF.FileFunction,Drillmap*%
%TF.FilePolarity,Positive*%
%FSLAX45Y45*%
G04 Gerber Fmt 4.5, Leading zero omitted, Abs format (unit mm)*
G04 Created by KiCad (PCBNEW 8.0.4) date 2024-08-15 00:18:30*
%MOMM*%
%LPD*%
G01*
G04 APERTURE LIST*
%ADD10C,0.150000*%
%ADD11C,0.050000*%
%ADD12C,0.200000*%
%ADD13C,0.100000*%
%ADD14C,0.110000*%
%ADD15C,0.127000*%
%ADD16C,0.220000*%
%ADD17C,0.430000*%
G04 APERTURE END LIST*
D10*
X27607573Y-15360000D02*
X27607573Y-21162447D01*
X22949388Y-23425000D02*
G75*
G02*
X22955757Y-23425101I-5J-200400D01*
G01*
X28231812Y-21923893D02*
G75*
G02*
X28273203Y-22123840I-147718J-134837D01*
G01*
X27659856Y-21297279D02*
G75*
G02*
X27607575Y-21162447I147717J134829D01*
G01*
X27510954Y-24337557D02*
G75*
G02*
X27256739Y-24461541I-189101J65117D01*
G01*
X21132908Y-23425000D02*
G75*
G02*
X20994558Y-23369432I-5J200000D01*
G01*
X27659856Y-21297279D02*
X28231812Y-21923893D01*
X18867574Y-14656000D02*
G75*
G02*
X18667574Y-14856000I-200000J0D01*
G01*
X23555443Y-23444206D02*
X22955757Y-23425101D01*
X19167239Y-21696000D02*
G75*
G02*
X19305589Y-21751568I5J-200000D01*
G01*
X16967574Y-15056000D02*
G75*
G02*
X17167574Y-14856000I200000J0D01*
G01*
X23047573Y-15160000D02*
X27407573Y-15160000D01*
X25050771Y-23692621D02*
X23582084Y-23446847D01*
X28273199Y-22123839D02*
X27510954Y-24337557D01*
X15267573Y-21696000D02*
X19167239Y-21696000D01*
X27407573Y-15160000D02*
G75*
G02*
X27607573Y-15360000I0J-200000D01*
G01*
X21347574Y-14951000D02*
X22769099Y-14951000D01*
X18867574Y-14524000D02*
G75*
G02*
X19067574Y-14324000I200000J0D01*
G01*
X20994560Y-23369429D02*
X19305587Y-21751571D01*
X27256737Y-24461547D02*
X26368753Y-24155790D01*
X25050771Y-23692621D02*
G75*
G02*
X25084480Y-23701335I-33007J-197259D01*
G01*
X18867574Y-14656000D02*
X18867574Y-14524000D01*
X21347574Y-14951000D02*
G75*
G02*
X21147574Y-14751000I0J200000D01*
G01*
X16967574Y-15416000D02*
X16967574Y-15056000D01*
X15067573Y-21496000D02*
X15067573Y-15816000D01*
X17167574Y-14856000D02*
X18667574Y-14856000D01*
X15067573Y-15816000D02*
G75*
G02*
X15267573Y-15616000I200000J0D01*
G01*
X16967574Y-15416000D02*
G75*
G02*
X16767573Y-15616000I-200000J0D01*
G01*
X22769099Y-14951000D02*
G75*
G02*
X22917090Y-15016463I4J-200000D01*
G01*
X19067574Y-14324000D02*
X20947574Y-14324000D01*
X23555443Y-23444206D02*
G75*
G02*
X23582084Y-23446847I-6369J-199904D01*
G01*
X20947574Y-14324000D02*
G75*
G02*
X21147574Y-14524000I0J-200000D01*
G01*
X22949388Y-23425000D02*
X21132908Y-23425000D01*
X26368753Y-24155790D02*
G75*
G02*
X26367147Y-24155229I67711J196560D01*
G01*
X15267573Y-21696000D02*
G75*
G02*
X15067573Y-21496000I0J200000D01*
G01*
X22917087Y-15016465D02*
X23047573Y-15160000D01*
X15267573Y-15616000D02*
X16767573Y-15616000D01*
X21147574Y-14524000D02*
X21147574Y-14751000D01*
X26367147Y-24155229D02*
X25084480Y-23701335D01*
X16688303Y-10621379D02*
X17287894Y-11625083D01*
X17305301Y-11792764D02*
X16658381Y-13671557D01*
X16404163Y-13795547D02*
X14798573Y-13242698D01*
X14795002Y-13241431D02*
X14232834Y-13035868D01*
X14197159Y-13026448D02*
X12729511Y-12780847D01*
X12702869Y-12778206D02*
X12103183Y-12759101D01*
X12096815Y-12759000D02*
X10290473Y-12759000D01*
X10140265Y-12691051D02*
X8739735Y-11097949D01*
X4700000Y-11030000D02*
X8589527Y-11030000D01*
X4500000Y-10830000D02*
X4500000Y-5150000D01*
X4700000Y-4950000D02*
X6200000Y-4950000D01*
X6400000Y-4750000D02*
X6400000Y-4390000D01*
X6600000Y-4190000D02*
X8100000Y-4190000D01*
X8300000Y-3990000D02*
X8300000Y-3858000D01*
X8500000Y-3658000D02*
X10380000Y-3658000D01*
X10580000Y-3858000D02*
X10580000Y-4085000D01*
X10780000Y-4285000D02*
X12201526Y-4285000D01*
X12349514Y-4350465D02*
X12480000Y-4494000D01*
X12480000Y-4494000D02*
X14066393Y-4494000D01*
X14245279Y-4604557D02*
X14324721Y-4763443D01*
X14503607Y-4874000D02*
X16460000Y-4874000D01*
X16660000Y-5074000D02*
X16660000Y-10518811D01*
X17287894Y-11625083D02*
G75*
G02*
X17305301Y-11792764I-171697J-102568D01*
G01*
X16658381Y-13671557D02*
G75*
G02*
X16404163Y-13795547I-189104J65114D01*
G01*
X14798573Y-13242698D02*
G75*
G02*
X14795002Y-13241431I65114J189104D01*
G01*
X14197159Y-13026448D02*
G75*
G02*
X14232834Y-13035868I-33010J-197257D01*
G01*
X12702869Y-12778206D02*
G75*
G02*
X12729511Y-12780847I-6368J-199899D01*
G01*
X12096815Y-12759000D02*
G75*
G02*
X12103183Y-12759101I0J-200000D01*
G01*
X10290473Y-12759000D02*
G75*
G02*
X10140265Y-12691051I0J200000D01*
G01*
X8589527Y-11030000D02*
G75*
G02*
X8739735Y-11097949I0J-200000D01*
G01*
X4700000Y-11030000D02*
G75*
G02*
X4500000Y-10830000I0J200000D01*
G01*
X4500000Y-5150000D02*
G75*
G02*
X4700000Y-4950000I200000J0D01*
G01*
X6400000Y-4750000D02*
G75*
G02*
X6200000Y-4950000I-200000J0D01*
G01*
X6400000Y-4390000D02*
G75*
G02*
X6600000Y-4190000I200000J0D01*
G01*
X8300000Y-3990000D02*
G75*
G02*
X8100000Y-4190000I-200000J0D01*
G01*
X8300000Y-3858000D02*
G75*
G02*
X8500000Y-3658000I200000J0D01*
G01*
X10380000Y-3658000D02*
G75*
G02*
X10580000Y-3858000I0J-200000D01*
G01*
X10780000Y-4285000D02*
G75*
G02*
X10580000Y-4085000I0J200000D01*
G01*
X12201526Y-4285000D02*
G75*
G02*
X12349514Y-4350465I0J-200000D01*
G01*
X14066393Y-4494000D02*
G75*
G02*
X14245279Y-4604557I0J-200000D01*
G01*
X14503607Y-4874000D02*
G75*
G02*
X14324721Y-4763443I0J200000D01*
G01*
X16460000Y-4874000D02*
G75*
G02*
X16660000Y-5074000I0J-200000D01*
G01*
X16688303Y-10621379D02*
G75*
G02*
X16660000Y-10518811I171697J102568D01*
G01*
X23825000Y-13660000D02*
X25625000Y-13660000D01*
X25825000Y-13460000D02*
G75*
G02*
X25625000Y-13660000I-200000J0D01*
G01*
X25825000Y-13460000D02*
X25825000Y-12900000D01*
X25825000Y-12900000D02*
X27525000Y-12900000D01*
X27725000Y-12700000D02*
G75*
G02*
X27525000Y-12900000I-200000J0D01*
G01*
X27725000Y-12700000D02*
X27725000Y-12368000D01*
X27725000Y-12368000D02*
X29325000Y-12368000D01*
X29325000Y-15189000D02*
X29325000Y-12368000D01*
X29510018Y-15388438D02*
G75*
G02*
X29325000Y-15189000I14982J199438D01*
G01*
X29510018Y-15388438D02*
X33444231Y-15683987D01*
X33444231Y-15683987D02*
X33692921Y-15773558D01*
X33778710Y-15831405D02*
G75*
G02*
X33692921Y-15773558I65114J189104D01*
G01*
X33778710Y-15831405D02*
X35480644Y-16417428D01*
X35734861Y-16293438D02*
G75*
G02*
X35480644Y-16417428I-189104J65114D01*
G01*
X35734861Y-16293438D02*
X36288327Y-14686056D01*
X36164337Y-14431839D02*
G75*
G02*
X36288327Y-14686056I-65114J-189104D01*
G01*
X36164337Y-14431839D02*
X34462403Y-13845816D01*
X34329668Y-13846699D02*
G75*
G02*
X34462403Y-13845816I67622J-188221D01*
G01*
X34329668Y-13846699D02*
X33948039Y-13724996D01*
X33799967Y-13612647D02*
G75*
G02*
X33948039Y-13724996I-33010J-197257D01*
G01*
X33799967Y-13612647D02*
X33512903Y-13564609D01*
X33512903Y-13564609D02*
X33425000Y-12147802D01*
X33425000Y-12147802D02*
X33425000Y-7504000D01*
X33225000Y-7304000D02*
G75*
G02*
X33425000Y-7504000I0J-200000D01*
G01*
X31525000Y-7304000D02*
X33225000Y-7304000D01*
X31525000Y-7304000D02*
X31525000Y-7295000D01*
X31325000Y-7095000D02*
G75*
G02*
X31525000Y-7295000I0J-200000D01*
G01*
X29625000Y-7095000D02*
X31325000Y-7095000D01*
X29625000Y-7095000D02*
X29625000Y-6668000D01*
X29425000Y-6468000D02*
G75*
G02*
X29625000Y-6668000I0J-200000D01*
G01*
X29425000Y-6468000D02*
X27625000Y-6468000D01*
X27425000Y-6668000D02*
G75*
G02*
X27625000Y-6468000I200000J0D01*
G01*
X27425000Y-6668000D02*
X27425000Y-7000000D01*
X25725000Y-7000000D02*
X27425000Y-7000000D01*
X25525000Y-7200000D02*
G75*
G02*
X25725000Y-7000000I200000J0D01*
G01*
X25525000Y-7200000D02*
X25525000Y-7760000D01*
X23825000Y-7760000D02*
X25525000Y-7760000D01*
X23625000Y-7960000D02*
G75*
G02*
X23825000Y-7760000I200000J0D01*
G01*
X23625000Y-13460000D02*
X23625000Y-7960000D01*
X23825000Y-13660000D02*
G75*
G02*
X23625000Y-13460000I0J200000D01*
G01*
X24025000Y-13310000D02*
X25425000Y-13310000D01*
X25425000Y-13310000D02*
X25425000Y-11910000D01*
X25425000Y-11910000D02*
X24025000Y-11910000D01*
X24025000Y-11910000D02*
X24025000Y-13310000D01*
X24025000Y-11410000D02*
X25425000Y-11410000D01*
X25425000Y-11410000D02*
X25425000Y-10010000D01*
X25425000Y-10010000D02*
X24025000Y-10010000D01*
X24025000Y-10010000D02*
X24025000Y-11410000D01*
X24025000Y-9510000D02*
X25425000Y-9510000D01*
X25425000Y-9510000D02*
X25425000Y-8110000D01*
X25425000Y-8110000D02*
X24025000Y-8110000D01*
X24025000Y-8110000D02*
X24025000Y-9510000D01*
X25925000Y-12550000D02*
X27325000Y-12550000D01*
X27325000Y-12550000D02*
X27325000Y-11150000D01*
X27325000Y-11150000D02*
X25925000Y-11150000D01*
X25925000Y-11150000D02*
X25925000Y-12550000D01*
X25925000Y-10650000D02*
X27325000Y-10650000D01*
X27325000Y-10650000D02*
X27325000Y-9250000D01*
X27325000Y-9250000D02*
X25925000Y-9250000D01*
X25925000Y-9250000D02*
X25925000Y-10650000D01*
X25925000Y-8750000D02*
X27325000Y-8750000D01*
X27325000Y-8750000D02*
X27325000Y-7350000D01*
X27325000Y-7350000D02*
X25925000Y-7350000D01*
X25925000Y-7350000D02*
X25925000Y-8750000D01*
X27825000Y-12018000D02*
X29225000Y-12018000D01*
X29225000Y-12018000D02*
X29225000Y-10618000D01*
X29225000Y-10618000D02*
X27825000Y-10618000D01*
X27825000Y-10618000D02*
X27825000Y-12018000D01*
X27825000Y-10118000D02*
X29225000Y-10118000D01*
X29225000Y-10118000D02*
X29225000Y-8718000D01*
X29225000Y-8718000D02*
X27825000Y-8718000D01*
X27825000Y-8718000D02*
X27825000Y-10118000D01*
X27825000Y-8218000D02*
X29225000Y-8218000D01*
X29225000Y-8218000D02*
X29225000Y-6818000D01*
X29225000Y-6818000D02*
X27825000Y-6818000D01*
X27825000Y-6818000D02*
X27825000Y-8218000D01*
X29725000Y-12645000D02*
X31125000Y-12645000D01*
X31125000Y-12645000D02*
X31125000Y-11245000D01*
X31125000Y-11245000D02*
X29725000Y-11245000D01*
X29725000Y-11245000D02*
X29725000Y-12645000D01*
X29725000Y-10745000D02*
X31125000Y-10745000D01*
X31125000Y-10745000D02*
X31125000Y-9345000D01*
X31125000Y-9345000D02*
X29725000Y-9345000D01*
X29725000Y-9345000D02*
X29725000Y-10745000D01*
X29725000Y-8845000D02*
X31125000Y-8845000D01*
X31125000Y-8845000D02*
X31125000Y-7445000D01*
X31125000Y-7445000D02*
X29725000Y-7445000D01*
X29725000Y-7445000D02*
X29725000Y-8845000D01*
X31625000Y-12854000D02*
X33025000Y-12854000D01*
X33025000Y-12854000D02*
X33025000Y-11454000D01*
X33025000Y-11454000D02*
X31625000Y-11454000D01*
X31625000Y-11454000D02*
X31625000Y-12854000D01*
X31625000Y-10954000D02*
X33025000Y-10954000D01*
X33025000Y-10954000D02*
X33025000Y-9554000D01*
X33025000Y-9554000D02*
X31625000Y-9554000D01*
X31625000Y-9554000D02*
X31625000Y-10954000D01*
X31625000Y-9054000D02*
X33025000Y-9054000D01*
X33025000Y-9054000D02*
X33025000Y-7654000D01*
X33025000Y-7654000D02*
X31625000Y-7654000D01*
X31625000Y-7654000D02*
X31625000Y-9054000D01*
X29725000Y-15039000D02*
X31125000Y-15039000D01*
X31125000Y-15039000D02*
X31125000Y-13639000D01*
X31125000Y-13639000D02*
X29725000Y-13639000D01*
X29725000Y-13639000D02*
X29725000Y-15039000D01*
X31933077Y-15074570D02*
X33313876Y-15305637D01*
X33313876Y-15305637D02*
X33544943Y-13924837D01*
X33544943Y-13924837D02*
X32164143Y-13693771D01*
X32164143Y-13693771D02*
X31933077Y-15074570D01*
X34081763Y-15565587D02*
X35405489Y-16021383D01*
X35405489Y-16021383D02*
X35861284Y-14697657D01*
X35861284Y-14697657D02*
X34537558Y-14241861D01*
X34537558Y-14241861D02*
X34081763Y-15565587D01*
D11*
X25401523Y-20063750D02*
X25401523Y-19883750D01*
X25431123Y-20093750D02*
X26841123Y-20093750D01*
X26841123Y-19853750D02*
X25431523Y-19853750D01*
X26871123Y-20063750D02*
X26871123Y-19883750D01*
X25401523Y-19883750D02*
G75*
G02*
X25431523Y-19853750I30000J0D01*
G01*
X25431523Y-20093750D02*
G75*
G02*
X25401523Y-20063750I0J30000D01*
G01*
X26841123Y-19853750D02*
G75*
G02*
X26871123Y-19883750I0J-30000D01*
G01*
X26871123Y-20063750D02*
G75*
G02*
X26841123Y-20093750I-30000J0D01*
G01*
D12*
D13*
X25092573Y-16835000D02*
X25122573Y-16865000D01*
X25122573Y-16835000D02*
X25092573Y-16865000D01*
X25092573Y-17135000D02*
X25122573Y-17165000D01*
X25122573Y-17135000D02*
X25092573Y-17165000D01*
X25242573Y-19210000D02*
X25272573Y-19240000D01*
X25272573Y-19210000D02*
X25242573Y-19240000D01*
X25367573Y-19135000D02*
X25397573Y-19165000D01*
X25397573Y-19135000D02*
X25367573Y-19165000D01*
X25842573Y-20685000D02*
X25872573Y-20715000D01*
X25872573Y-20685000D02*
X25842573Y-20715000D01*
X26117573Y-20685000D02*
X26147573Y-20715000D01*
X26147573Y-20685000D02*
X26117573Y-20715000D01*
X26342573Y-20685000D02*
X26372573Y-20715000D01*
X26372573Y-20685000D02*
X26342573Y-20715000D01*
X26742573Y-19410000D02*
X26772573Y-19440000D01*
X26772573Y-19410000D02*
X26742573Y-19440000D01*
X26742573Y-19660000D02*
X26772573Y-19690000D01*
X26772573Y-19660000D02*
X26742573Y-19690000D01*
X26917573Y-19185000D02*
X26947573Y-19215000D01*
X26947573Y-19185000D02*
X26917573Y-19215000D01*
X26917573Y-19485000D02*
X26947573Y-19515000D01*
X26947573Y-19485000D02*
X26917573Y-19515000D01*
X15462573Y-16776000D02*
G75*
G02*
X15432573Y-16776000I-15000J0D01*
G01*
X15432573Y-16776000D02*
G75*
G02*
X15462573Y-16776000I15000J0D01*
G01*
X15462573Y-17056000D02*
G75*
G02*
X15432573Y-17056000I-15000J0D01*
G01*
X15432573Y-17056000D02*
G75*
G02*
X15462573Y-17056000I15000J0D01*
G01*
X15462573Y-18676000D02*
G75*
G02*
X15432573Y-18676000I-15000J0D01*
G01*
X15432573Y-18676000D02*
G75*
G02*
X15462573Y-18676000I15000J0D01*
G01*
X15462573Y-18956000D02*
G75*
G02*
X15432573Y-18956000I-15000J0D01*
G01*
X15432573Y-18956000D02*
G75*
G02*
X15462573Y-18956000I15000J0D01*
G01*
X15462573Y-20576000D02*
G75*
G02*
X15432573Y-20576000I-15000J0D01*
G01*
X15432573Y-20576000D02*
G75*
G02*
X15462573Y-20576000I15000J0D01*
G01*
X15462573Y-20856000D02*
G75*
G02*
X15432573Y-20856000I-15000J0D01*
G01*
X15432573Y-20856000D02*
G75*
G02*
X15462573Y-20856000I15000J0D01*
G01*
X17362574Y-16016000D02*
G75*
G02*
X17332574Y-16016000I-15000J0D01*
G01*
X17332574Y-16016000D02*
G75*
G02*
X17362574Y-16016000I15000J0D01*
G01*
X17362574Y-16296000D02*
G75*
G02*
X17332574Y-16296000I-15000J0D01*
G01*
X17332574Y-16296000D02*
G75*
G02*
X17362574Y-16296000I15000J0D01*
G01*
X17362574Y-17916000D02*
G75*
G02*
X17332574Y-17916000I-15000J0D01*
G01*
X17332574Y-17916000D02*
G75*
G02*
X17362574Y-17916000I15000J0D01*
G01*
X17362574Y-18196000D02*
G75*
G02*
X17332574Y-18196000I-15000J0D01*
G01*
X17332574Y-18196000D02*
G75*
G02*
X17362574Y-18196000I15000J0D01*
G01*
X17362574Y-19816000D02*
G75*
G02*
X17332574Y-19816000I-15000J0D01*
G01*
X17332574Y-19816000D02*
G75*
G02*
X17362574Y-19816000I15000J0D01*
G01*
X17362574Y-20096000D02*
G75*
G02*
X17332574Y-20096000I-15000J0D01*
G01*
X17332574Y-20096000D02*
G75*
G02*
X17362574Y-20096000I15000J0D01*
G01*
X19262574Y-15484000D02*
G75*
G02*
X19232574Y-15484000I-15000J0D01*
G01*
X19232574Y-15484000D02*
G75*
G02*
X19262574Y-15484000I15000J0D01*
G01*
X19262574Y-15764000D02*
G75*
G02*
X19232574Y-15764000I-15000J0D01*
G01*
X19232574Y-15764000D02*
G75*
G02*
X19262574Y-15764000I15000J0D01*
G01*
X19262574Y-17384000D02*
G75*
G02*
X19232574Y-17384000I-15000J0D01*
G01*
X19232574Y-17384000D02*
G75*
G02*
X19262574Y-17384000I15000J0D01*
G01*
X19262574Y-17664000D02*
G75*
G02*
X19232574Y-17664000I-15000J0D01*
G01*
X19232574Y-17664000D02*
G75*
G02*
X19262574Y-17664000I15000J0D01*
G01*
X19262574Y-19284000D02*
G75*
G02*
X19232574Y-19284000I-15000J0D01*
G01*
X19232574Y-19284000D02*
G75*
G02*
X19262574Y-19284000I15000J0D01*
G01*
X19262574Y-19564000D02*
G75*
G02*
X19232574Y-19564000I-15000J0D01*
G01*
X19232574Y-19564000D02*
G75*
G02*
X19262574Y-19564000I15000J0D01*
G01*
X21162574Y-16111000D02*
G75*
G02*
X21132574Y-16111000I-15000J0D01*
G01*
X21132574Y-16111000D02*
G75*
G02*
X21162574Y-16111000I15000J0D01*
G01*
X21162574Y-16391000D02*
G75*
G02*
X21132574Y-16391000I-15000J0D01*
G01*
X21132574Y-16391000D02*
G75*
G02*
X21162574Y-16391000I15000J0D01*
G01*
X21162574Y-18011000D02*
G75*
G02*
X21132574Y-18011000I-15000J0D01*
G01*
X21132574Y-18011000D02*
G75*
G02*
X21162574Y-18011000I15000J0D01*
G01*
X21162574Y-18291000D02*
G75*
G02*
X21132574Y-18291000I-15000J0D01*
G01*
X21132574Y-18291000D02*
G75*
G02*
X21162574Y-18291000I15000J0D01*
G01*
X21162574Y-19911000D02*
G75*
G02*
X21132574Y-19911000I-15000J0D01*
G01*
X21132574Y-19911000D02*
G75*
G02*
X21162574Y-19911000I15000J0D01*
G01*
X21162574Y-20191000D02*
G75*
G02*
X21132574Y-20191000I-15000J0D01*
G01*
X21132574Y-20191000D02*
G75*
G02*
X21162574Y-20191000I15000J0D01*
G01*
X21447574Y-22305000D02*
G75*
G02*
X21417574Y-22305000I-15000J0D01*
G01*
X21417574Y-22305000D02*
G75*
G02*
X21447574Y-22305000I15000J0D01*
G01*
X21447574Y-22585000D02*
G75*
G02*
X21417574Y-22585000I-15000J0D01*
G01*
X21417574Y-22585000D02*
G75*
G02*
X21447574Y-22585000I15000J0D01*
G01*
X23062573Y-16320000D02*
G75*
G02*
X23032573Y-16320000I-15000J0D01*
G01*
X23032573Y-16320000D02*
G75*
G02*
X23062573Y-16320000I15000J0D01*
G01*
X23062573Y-16600000D02*
G75*
G02*
X23032573Y-16600000I-15000J0D01*
G01*
X23032573Y-16600000D02*
G75*
G02*
X23062573Y-16600000I15000J0D01*
G01*
X23062573Y-18220000D02*
G75*
G02*
X23032573Y-18220000I-15000J0D01*
G01*
X23032573Y-18220000D02*
G75*
G02*
X23062573Y-18220000I15000J0D01*
G01*
X23062573Y-18500000D02*
G75*
G02*
X23032573Y-18500000I-15000J0D01*
G01*
X23032573Y-18500000D02*
G75*
G02*
X23062573Y-18500000I15000J0D01*
G01*
X23062573Y-20120000D02*
G75*
G02*
X23032573Y-20120000I-15000J0D01*
G01*
X23032573Y-20120000D02*
G75*
G02*
X23062573Y-20120000I15000J0D01*
G01*
X23062573Y-20400000D02*
G75*
G02*
X23032573Y-20400000I-15000J0D01*
G01*
X23032573Y-20400000D02*
G75*
G02*
X23062573Y-20400000I15000J0D01*
G01*
X23722492Y-22616153D02*
G75*
G02*
X23692492Y-22616153I-15000J0D01*
G01*
X23692492Y-22616153D02*
G75*
G02*
X23722492Y-22616153I15000J0D01*
G01*
X23768705Y-22339993D02*
G75*
G02*
X23738705Y-22339993I-15000J0D01*
G01*
X23738705Y-22339993D02*
G75*
G02*
X23768705Y-22339993I15000J0D01*
G01*
X25937832Y-23113846D02*
G75*
G02*
X25907832Y-23113846I-15000J0D01*
G01*
X25907832Y-23113846D02*
G75*
G02*
X25937832Y-23113846I15000J0D01*
G01*
X26028991Y-22849101D02*
G75*
G02*
X25998991Y-22849101I-15000J0D01*
G01*
X25998991Y-22849101D02*
G75*
G02*
X26028991Y-22849101I15000J0D01*
G01*
X27442764Y-21570190D02*
G75*
G02*
X27412764Y-21570190I-15000J0D01*
G01*
X27412764Y-21570190D02*
G75*
G02*
X27442764Y-21570190I15000J0D01*
G01*
X27902383Y-22029810D02*
G75*
G02*
X27872383Y-22029810I-15000J0D01*
G01*
X27872383Y-22029810D02*
G75*
G02*
X27902383Y-22029810I15000J0D01*
G01*
X25881373Y-15783000D02*
X25881373Y-15823000D01*
X25861373Y-15803000D02*
X25901373Y-15803000D01*
X25881373Y-16037000D02*
X25881373Y-16077000D01*
X25861373Y-16057000D02*
X25901373Y-16057000D01*
X25881373Y-16291000D02*
X25881373Y-16331000D01*
X25861373Y-16311000D02*
X25901373Y-16311000D01*
X25881373Y-16545000D02*
X25881373Y-16585000D01*
X25861373Y-16565000D02*
X25901373Y-16565000D01*
X25881373Y-16799000D02*
X25881373Y-16839000D01*
X25861373Y-16819000D02*
X25901373Y-16819000D01*
X25881373Y-17053000D02*
X25881373Y-17093000D01*
X25861373Y-17073000D02*
X25901373Y-17073000D01*
X25881373Y-17307000D02*
X25881373Y-17347000D01*
X25861373Y-17327000D02*
X25901373Y-17327000D01*
X25881373Y-17561000D02*
X25881373Y-17601000D01*
X25861373Y-17581000D02*
X25901373Y-17581000D01*
X25881373Y-17815000D02*
X25881373Y-17855000D01*
X25861373Y-17835000D02*
X25901373Y-17835000D01*
X25881373Y-18069000D02*
X25881373Y-18109000D01*
X25861373Y-18089000D02*
X25901373Y-18089000D01*
X25881373Y-18323000D02*
X25881373Y-18363000D01*
X25861373Y-18343000D02*
X25901373Y-18343000D01*
X25881373Y-18577000D02*
X25881373Y-18617000D01*
X25861373Y-18597000D02*
X25901373Y-18597000D01*
X26533773Y-15783000D02*
X26533773Y-15823000D01*
X26513773Y-15803000D02*
X26553773Y-15803000D01*
X26533773Y-16037000D02*
X26533773Y-16077000D01*
X26513773Y-16057000D02*
X26553773Y-16057000D01*
X26533773Y-16291000D02*
X26533773Y-16331000D01*
X26513773Y-16311000D02*
X26553773Y-16311000D01*
X26533773Y-16545000D02*
X26533773Y-16585000D01*
X26513773Y-16565000D02*
X26553773Y-16565000D01*
X26533773Y-16799000D02*
X26533773Y-16839000D01*
X26513773Y-16819000D02*
X26553773Y-16819000D01*
X26533773Y-17053000D02*
X26533773Y-17093000D01*
X26513773Y-17073000D02*
X26553773Y-17073000D01*
X26533773Y-17307000D02*
X26533773Y-17347000D01*
X26513773Y-17327000D02*
X26553773Y-17327000D01*
X26533773Y-17561000D02*
X26533773Y-17601000D01*
X26513773Y-17581000D02*
X26553773Y-17581000D01*
X26533773Y-17815000D02*
X26533773Y-17855000D01*
X26513773Y-17835000D02*
X26553773Y-17835000D01*
X26533773Y-18069000D02*
X26533773Y-18109000D01*
X26513773Y-18089000D02*
X26553773Y-18089000D01*
X26533773Y-18323000D02*
X26533773Y-18363000D01*
X26513773Y-18343000D02*
X26553773Y-18343000D01*
X26533773Y-18577000D02*
X26533773Y-18617000D01*
X26513773Y-18597000D02*
X26553773Y-18597000D01*
X26404090Y-19376517D02*
X26404090Y-19323483D01*
X26351057Y-19323483D01*
X26351057Y-19376517D01*
X26404090Y-19376517D01*
X26404090Y-19576517D02*
X26404090Y-19523483D01*
X26351057Y-19523483D01*
X26351057Y-19576517D01*
X26404090Y-19576517D01*
X25445573Y-15853000D02*
X25495573Y-15803000D01*
X25445573Y-15753000D01*
X25395573Y-15803000D01*
X25445573Y-15853000D01*
X25445573Y-16107000D02*
X25495573Y-16057000D01*
X25445573Y-16007000D01*
X25395573Y-16057000D01*
X25445573Y-16107000D01*
X25445573Y-16361000D02*
X25495573Y-16311000D01*
X25445573Y-16261000D01*
X25395573Y-16311000D01*
X25445573Y-16361000D01*
X25445573Y-16615000D02*
X25495573Y-16565000D01*
X25445573Y-16515000D01*
X25395573Y-16565000D01*
X25445573Y-16615000D01*
X25445573Y-16869000D02*
X25495573Y-16819000D01*
X25445573Y-16769000D01*
X25395573Y-16819000D01*
X25445573Y-16869000D01*
X25445573Y-17123000D02*
X25495573Y-17073000D01*
X25445573Y-17023000D01*
X25395573Y-17073000D01*
X25445573Y-17123000D01*
X25445573Y-17377000D02*
X25495573Y-17327000D01*
X25445573Y-17277000D01*
X25395573Y-17327000D01*
X25445573Y-17377000D01*
X25445573Y-17631000D02*
X25495573Y-17581000D01*
X25445573Y-17531000D01*
X25395573Y-17581000D01*
X25445573Y-17631000D01*
X25445573Y-17885000D02*
X25495573Y-17835000D01*
X25445573Y-17785000D01*
X25395573Y-17835000D01*
X25445573Y-17885000D01*
X25445573Y-18139000D02*
X25495573Y-18089000D01*
X25445573Y-18039000D01*
X25395573Y-18089000D01*
X25445573Y-18139000D01*
X25445573Y-18393000D02*
X25495573Y-18343000D01*
X25445573Y-18293000D01*
X25395573Y-18343000D01*
X25445573Y-18393000D01*
X25445573Y-18647000D02*
X25495573Y-18597000D01*
X25445573Y-18547000D01*
X25395573Y-18597000D01*
X25445573Y-18647000D01*
X26969573Y-15853000D02*
X27019573Y-15803000D01*
X26969573Y-15753000D01*
X26919573Y-15803000D01*
X26969573Y-15853000D01*
X26969573Y-16107000D02*
X27019573Y-16057000D01*
X26969573Y-16007000D01*
X26919573Y-16057000D01*
X26969573Y-16107000D01*
X26969573Y-16361000D02*
X27019573Y-16311000D01*
X26969573Y-16261000D01*
X26919573Y-16311000D01*
X26969573Y-16361000D01*
X26969573Y-16615000D02*
X27019573Y-16565000D01*
X26969573Y-16515000D01*
X26919573Y-16565000D01*
X26969573Y-16615000D01*
X26969573Y-16869000D02*
X27019573Y-16819000D01*
X26969573Y-16769000D01*
X26919573Y-16819000D01*
X26969573Y-16869000D01*
X26969573Y-17123000D02*
X27019573Y-17073000D01*
X26969573Y-17023000D01*
X26919573Y-17073000D01*
X26969573Y-17123000D01*
X26969573Y-17377000D02*
X27019573Y-17327000D01*
X26969573Y-17277000D01*
X26919573Y-17327000D01*
X26969573Y-17377000D01*
X26969573Y-17631000D02*
X27019573Y-17581000D01*
X26969573Y-17531000D01*
X26919573Y-17581000D01*
X26969573Y-17631000D01*
X26969573Y-17885000D02*
X27019573Y-17835000D01*
X26969573Y-17785000D01*
X26919573Y-17835000D01*
X26969573Y-17885000D01*
X26969573Y-18139000D02*
X27019573Y-18089000D01*
X26969573Y-18039000D01*
X26919573Y-18089000D01*
X26969573Y-18139000D01*
X26969573Y-18393000D02*
X27019573Y-18343000D01*
X26969573Y-18293000D01*
X26919573Y-18343000D01*
X26969573Y-18393000D01*
X26969573Y-18647000D02*
X27019573Y-18597000D01*
X26969573Y-18547000D01*
X26919573Y-18597000D01*
X26969573Y-18647000D01*
D14*
X25416523Y-21253750D02*
X25526523Y-21363750D01*
X25526523Y-21253750D02*
X25416523Y-21363750D01*
X25526523Y-21308750D02*
G75*
G02*
X25416523Y-21308750I-55000J0D01*
G01*
X25416523Y-21308750D02*
G75*
G02*
X25526523Y-21308750I55000J0D01*
G01*
D13*
X25526523Y-21333750D02*
X25526523Y-21283750D01*
X25416523Y-21283750D02*
G75*
G02*
X25526523Y-21283750I55000J0D01*
G01*
X25416523Y-21283750D02*
X25416523Y-21333750D01*
X25416523Y-21333750D02*
G75*
G03*
X25526523Y-21333750I55000J0D01*
G01*
D14*
X25416523Y-21463750D02*
X25526523Y-21573750D01*
X25526523Y-21463750D02*
X25416523Y-21573750D01*
X25526523Y-21518750D02*
G75*
G02*
X25416523Y-21518750I-55000J0D01*
G01*
X25416523Y-21518750D02*
G75*
G02*
X25526523Y-21518750I55000J0D01*
G01*
X25664123Y-21316250D02*
X25774123Y-21426250D01*
X25774123Y-21316250D02*
X25664123Y-21426250D01*
X25774123Y-21371250D02*
G75*
G02*
X25664123Y-21371250I-55000J0D01*
G01*
X25664123Y-21371250D02*
G75*
G02*
X25774123Y-21371250I55000J0D01*
G01*
D13*
X25774123Y-21396250D02*
X25774123Y-21346250D01*
X25664123Y-21346250D02*
G75*
G02*
X25774123Y-21346250I55000J0D01*
G01*
X25664123Y-21346250D02*
X25664123Y-21396250D01*
X25664123Y-21396250D02*
G75*
G03*
X25774123Y-21396250I55000J0D01*
G01*
D14*
X25716523Y-21316250D02*
X25826523Y-21426250D01*
X25826523Y-21316250D02*
X25716523Y-21426250D01*
X25826523Y-21371250D02*
G75*
G02*
X25716523Y-21371250I-55000J0D01*
G01*
X25716523Y-21371250D02*
G75*
G02*
X25826523Y-21371250I55000J0D01*
G01*
D13*
X25716523Y-21346250D02*
X25716523Y-21396250D01*
X25826523Y-21396250D02*
G75*
G02*
X25716523Y-21396250I-55000J0D01*
G01*
X25826523Y-21396250D02*
X25826523Y-21346250D01*
X25826523Y-21346250D02*
G75*
G03*
X25716523Y-21346250I-55000J0D01*
G01*
D14*
X25918123Y-21316250D02*
X26028123Y-21426250D01*
X26028123Y-21316250D02*
X25918123Y-21426250D01*
X26028123Y-21371250D02*
G75*
G02*
X25918123Y-21371250I-55000J0D01*
G01*
X25918123Y-21371250D02*
G75*
G02*
X26028123Y-21371250I55000J0D01*
G01*
D13*
X26028123Y-21396250D02*
X26028123Y-21346250D01*
X25918123Y-21346250D02*
G75*
G02*
X26028123Y-21346250I55000J0D01*
G01*
X25918123Y-21346250D02*
X25918123Y-21396250D01*
X25918123Y-21396250D02*
G75*
G03*
X26028123Y-21396250I55000J0D01*
G01*
D14*
X25970523Y-21316250D02*
X26080523Y-21426250D01*
X26080523Y-21316250D02*
X25970523Y-21426250D01*
X26080523Y-21371250D02*
G75*
G02*
X25970523Y-21371250I-55000J0D01*
G01*
X25970523Y-21371250D02*
G75*
G02*
X26080523Y-21371250I55000J0D01*
G01*
D13*
X25970523Y-21346250D02*
X25970523Y-21396250D01*
X26080523Y-21396250D02*
G75*
G02*
X25970523Y-21396250I-55000J0D01*
G01*
X26080523Y-21396250D02*
X26080523Y-21346250D01*
X26080523Y-21346250D02*
G75*
G03*
X25970523Y-21346250I-55000J0D01*
G01*
D14*
X26172123Y-21316250D02*
X26282123Y-21426250D01*
X26282123Y-21316250D02*
X26172123Y-21426250D01*
X26282123Y-21371250D02*
G75*
G02*
X26172123Y-21371250I-55000J0D01*
G01*
X26172123Y-21371250D02*
G75*
G02*
X26282123Y-21371250I55000J0D01*
G01*
D13*
X26282123Y-21396250D02*
X26282123Y-21346250D01*
X26172123Y-21346250D02*
G75*
G02*
X26282123Y-21346250I55000J0D01*
G01*
X26172123Y-21346250D02*
X26172123Y-21396250D01*
X26172123Y-21396250D02*
G75*
G03*
X26282123Y-21396250I55000J0D01*
G01*
D14*
X26224523Y-21316250D02*
X26334523Y-21426250D01*
X26334523Y-21316250D02*
X26224523Y-21426250D01*
X26334523Y-21371250D02*
G75*
G02*
X26224523Y-21371250I-55000J0D01*
G01*
X26224523Y-21371250D02*
G75*
G02*
X26334523Y-21371250I55000J0D01*
G01*
D13*
X26224523Y-21346250D02*
X26224523Y-21396250D01*
X26334523Y-21396250D02*
G75*
G02*
X26224523Y-21396250I-55000J0D01*
G01*
X26334523Y-21396250D02*
X26334523Y-21346250D01*
X26334523Y-21346250D02*
G75*
G03*
X26224523Y-21346250I-55000J0D01*
G01*
D14*
X26426123Y-21316250D02*
X26536123Y-21426250D01*
X26536123Y-21316250D02*
X26426123Y-21426250D01*
X26536123Y-21371250D02*
G75*
G02*
X26426123Y-21371250I-55000J0D01*
G01*
X26426123Y-21371250D02*
G75*
G02*
X26536123Y-21371250I55000J0D01*
G01*
D13*
X26536123Y-21396250D02*
X26536123Y-21346250D01*
X26426123Y-21346250D02*
G75*
G02*
X26536123Y-21346250I55000J0D01*
G01*
X26426123Y-21346250D02*
X26426123Y-21396250D01*
X26426123Y-21396250D02*
G75*
G03*
X26536123Y-21396250I55000J0D01*
G01*
D14*
X26478523Y-21316250D02*
X26588523Y-21426250D01*
X26588523Y-21316250D02*
X26478523Y-21426250D01*
X26588523Y-21371250D02*
G75*
G02*
X26478523Y-21371250I-55000J0D01*
G01*
X26478523Y-21371250D02*
G75*
G02*
X26588523Y-21371250I55000J0D01*
G01*
D13*
X26478523Y-21346250D02*
X26478523Y-21396250D01*
X26588523Y-21396250D02*
G75*
G02*
X26478523Y-21396250I-55000J0D01*
G01*
X26588523Y-21396250D02*
X26588523Y-21346250D01*
X26588523Y-21346250D02*
G75*
G03*
X26478523Y-21346250I-55000J0D01*
G01*
D14*
X26726123Y-21253750D02*
X26836123Y-21363750D01*
X26836123Y-21253750D02*
X26726123Y-21363750D01*
X26836123Y-21308750D02*
G75*
G02*
X26726123Y-21308750I-55000J0D01*
G01*
X26726123Y-21308750D02*
G75*
G02*
X26836123Y-21308750I55000J0D01*
G01*
D13*
X26726123Y-21283750D02*
X26726123Y-21333750D01*
X26836123Y-21333750D02*
G75*
G02*
X26726123Y-21333750I-55000J0D01*
G01*
X26836123Y-21333750D02*
X26836123Y-21283750D01*
X26836123Y-21283750D02*
G75*
G03*
X26726123Y-21283750I-55000J0D01*
G01*
D14*
X26726123Y-21463750D02*
X26836123Y-21573750D01*
X26836123Y-21463750D02*
X26726123Y-21573750D01*
X26836123Y-21518750D02*
G75*
G02*
X26726123Y-21518750I-55000J0D01*
G01*
X26726123Y-21518750D02*
G75*
G02*
X26836123Y-21518750I55000J0D01*
G01*
D15*
X15644073Y-16312500D02*
X15771073Y-16439500D01*
X15771073Y-16312500D02*
X15644073Y-16439500D01*
X15707573Y-16312500D02*
X15707573Y-16439500D01*
X15644073Y-16376000D02*
X15771073Y-16376000D01*
X15644073Y-18212500D02*
X15771073Y-18339500D01*
X15771073Y-18212500D02*
X15644073Y-18339500D01*
X15707573Y-18212500D02*
X15707573Y-18339500D01*
X15644073Y-18276000D02*
X15771073Y-18276000D01*
X15644073Y-20112500D02*
X15771073Y-20239500D01*
X15771073Y-20112500D02*
X15644073Y-20239500D01*
X15707573Y-20112500D02*
X15707573Y-20239500D01*
X15644073Y-20176000D02*
X15771073Y-20176000D01*
X16144073Y-16102500D02*
X16271073Y-16229500D01*
X16271073Y-16102500D02*
X16144073Y-16229500D01*
X16207573Y-16102500D02*
X16207573Y-16229500D01*
X16144073Y-16166000D02*
X16271073Y-16166000D01*
X16144073Y-16102500D02*
X16271073Y-16229500D01*
X16271073Y-16102500D02*
X16144073Y-16229500D01*
X16207573Y-16102500D02*
X16207573Y-16229500D01*
X16144073Y-16166000D02*
X16271073Y-16166000D01*
X16144073Y-18002500D02*
X16271073Y-18129500D01*
X16271073Y-18002500D02*
X16144073Y-18129500D01*
X16207573Y-18002500D02*
X16207573Y-18129500D01*
X16144073Y-18066000D02*
X16271073Y-18066000D01*
X16144073Y-18002500D02*
X16271073Y-18129500D01*
X16271073Y-18002500D02*
X16144073Y-18129500D01*
X16207573Y-18002500D02*
X16207573Y-18129500D01*
X16144073Y-18066000D02*
X16271073Y-18066000D01*
X16144073Y-19902500D02*
X16271073Y-20029500D01*
X16271073Y-19902500D02*
X16144073Y-20029500D01*
X16207573Y-19902500D02*
X16207573Y-20029500D01*
X16144073Y-19966000D02*
X16271073Y-19966000D01*
X16144073Y-19902500D02*
X16271073Y-20029500D01*
X16271073Y-19902500D02*
X16144073Y-20029500D01*
X16207573Y-19902500D02*
X16207573Y-20029500D01*
X16144073Y-19966000D02*
X16271073Y-19966000D01*
X16644073Y-16312500D02*
X16771073Y-16439500D01*
X16771073Y-16312500D02*
X16644073Y-16439500D01*
X16707573Y-16312500D02*
X16707573Y-16439500D01*
X16644073Y-16376000D02*
X16771073Y-16376000D01*
X16644073Y-18212500D02*
X16771073Y-18339500D01*
X16771073Y-18212500D02*
X16644073Y-18339500D01*
X16707573Y-18212500D02*
X16707573Y-18339500D01*
X16644073Y-18276000D02*
X16771073Y-18276000D01*
X16644073Y-20112500D02*
X16771073Y-20239500D01*
X16771073Y-20112500D02*
X16644073Y-20239500D01*
X16707573Y-20112500D02*
X16707573Y-20239500D01*
X16644073Y-20176000D02*
X16771073Y-20176000D01*
X17544074Y-15552500D02*
X17671074Y-15679500D01*
X17671074Y-15552500D02*
X17544074Y-15679500D01*
X17607574Y-15552500D02*
X17607574Y-15679500D01*
X17544074Y-15616000D02*
X17671074Y-15616000D01*
X17544074Y-17452500D02*
X17671074Y-17579500D01*
X17671074Y-17452500D02*
X17544074Y-17579500D01*
X17607574Y-17452500D02*
X17607574Y-17579500D01*
X17544074Y-17516000D02*
X17671074Y-17516000D01*
X17544074Y-19352500D02*
X17671074Y-19479500D01*
X17671074Y-19352500D02*
X17544074Y-19479500D01*
X17607574Y-19352500D02*
X17607574Y-19479500D01*
X17544074Y-19416000D02*
X17671074Y-19416000D01*
X18044074Y-15342500D02*
X18171074Y-15469500D01*
X18171074Y-15342500D02*
X18044074Y-15469500D01*
X18107574Y-15342500D02*
X18107574Y-15469500D01*
X18044074Y-15406000D02*
X18171074Y-15406000D01*
X18044074Y-15342500D02*
X18171074Y-15469500D01*
X18171074Y-15342500D02*
X18044074Y-15469500D01*
X18107574Y-15342500D02*
X18107574Y-15469500D01*
X18044074Y-15406000D02*
X18171074Y-15406000D01*
X18044074Y-17242500D02*
X18171074Y-17369500D01*
X18171074Y-17242500D02*
X18044074Y-17369500D01*
X18107574Y-17242500D02*
X18107574Y-17369500D01*
X18044074Y-17306000D02*
X18171074Y-17306000D01*
X18044074Y-17242500D02*
X18171074Y-17369500D01*
X18171074Y-17242500D02*
X18044074Y-17369500D01*
X18107574Y-17242500D02*
X18107574Y-17369500D01*
X18044074Y-17306000D02*
X18171074Y-17306000D01*
X18044074Y-19142500D02*
X18171074Y-19269500D01*
X18171074Y-19142500D02*
X18044074Y-19269500D01*
X18107574Y-19142500D02*
X18107574Y-19269500D01*
X18044074Y-19206000D02*
X18171074Y-19206000D01*
X18044074Y-19142500D02*
X18171074Y-19269500D01*
X18171074Y-19142500D02*
X18044074Y-19269500D01*
X18107574Y-19142500D02*
X18107574Y-19269500D01*
X18044074Y-19206000D02*
X18171074Y-19206000D01*
X18544074Y-15552500D02*
X18671074Y-15679500D01*
X18671074Y-15552500D02*
X18544074Y-15679500D01*
X18607574Y-15552500D02*
X18607574Y-15679500D01*
X18544074Y-15616000D02*
X18671074Y-15616000D01*
X18544074Y-17452500D02*
X18671074Y-17579500D01*
X18671074Y-17452500D02*
X18544074Y-17579500D01*
X18607574Y-17452500D02*
X18607574Y-17579500D01*
X18544074Y-17516000D02*
X18671074Y-17516000D01*
X18544074Y-19352500D02*
X18671074Y-19479500D01*
X18671074Y-19352500D02*
X18544074Y-19479500D01*
X18607574Y-19352500D02*
X18607574Y-19479500D01*
X18544074Y-19416000D02*
X18671074Y-19416000D01*
X19444074Y-15020500D02*
X19571074Y-15147500D01*
X19571074Y-15020500D02*
X19444074Y-15147500D01*
X19507574Y-15020500D02*
X19507574Y-15147500D01*
X19444074Y-15084000D02*
X19571074Y-15084000D01*
X19444074Y-16920500D02*
X19571074Y-17047500D01*
X19571074Y-16920500D02*
X19444074Y-17047500D01*
X19507574Y-16920500D02*
X19507574Y-17047500D01*
X19444074Y-16984000D02*
X19571074Y-16984000D01*
X19444074Y-18820500D02*
X19571074Y-18947500D01*
X19571074Y-18820500D02*
X19444074Y-18947500D01*
X19507574Y-18820500D02*
X19507574Y-18947500D01*
X19444074Y-18884000D02*
X19571074Y-18884000D01*
X19944074Y-14810500D02*
X20071074Y-14937500D01*
X20071074Y-14810500D02*
X19944074Y-14937500D01*
X20007574Y-14810500D02*
X20007574Y-14937500D01*
X19944074Y-14874000D02*
X20071074Y-14874000D01*
X19944074Y-14810500D02*
X20071074Y-14937500D01*
X20071074Y-14810500D02*
X19944074Y-14937500D01*
X20007574Y-14810500D02*
X20007574Y-14937500D01*
X19944074Y-14874000D02*
X20071074Y-14874000D01*
X19944074Y-16710500D02*
X20071074Y-16837500D01*
X20071074Y-16710500D02*
X19944074Y-16837500D01*
X20007574Y-16710500D02*
X20007574Y-16837500D01*
X19944074Y-16774000D02*
X20071074Y-16774000D01*
X19944074Y-16710500D02*
X20071074Y-16837500D01*
X20071074Y-16710500D02*
X19944074Y-16837500D01*
X20007574Y-16710500D02*
X20007574Y-16837500D01*
X19944074Y-16774000D02*
X20071074Y-16774000D01*
X19944074Y-18610500D02*
X20071074Y-18737500D01*
X20071074Y-18610500D02*
X19944074Y-18737500D01*
X20007574Y-18610500D02*
X20007574Y-18737500D01*
X19944074Y-18674000D02*
X20071074Y-18674000D01*
X19944074Y-18610500D02*
X20071074Y-18737500D01*
X20071074Y-18610500D02*
X19944074Y-18737500D01*
X20007574Y-18610500D02*
X20007574Y-18737500D01*
X19944074Y-18674000D02*
X20071074Y-18674000D01*
X20444074Y-15020500D02*
X20571074Y-15147500D01*
X20571074Y-15020500D02*
X20444074Y-15147500D01*
X20507574Y-15020500D02*
X20507574Y-15147500D01*
X20444074Y-15084000D02*
X20571074Y-15084000D01*
X20444074Y-16920500D02*
X20571074Y-17047500D01*
X20571074Y-16920500D02*
X20444074Y-17047500D01*
X20507574Y-16920500D02*
X20507574Y-17047500D01*
X20444074Y-16984000D02*
X20571074Y-16984000D01*
X20444074Y-18820500D02*
X20571074Y-18947500D01*
X20571074Y-18820500D02*
X20444074Y-18947500D01*
X20507574Y-18820500D02*
X20507574Y-18947500D01*
X20444074Y-18884000D02*
X20571074Y-18884000D01*
X21344074Y-15647500D02*
X21471074Y-15774500D01*
X21471074Y-15647500D02*
X21344074Y-15774500D01*
X21407574Y-15647500D02*
X21407574Y-15774500D01*
X21344074Y-15711000D02*
X21471074Y-15711000D01*
X21344074Y-17547500D02*
X21471074Y-17674500D01*
X21471074Y-17547500D02*
X21344074Y-17674500D01*
X21407574Y-17547500D02*
X21407574Y-17674500D01*
X21344074Y-17611000D02*
X21471074Y-17611000D01*
X21344074Y-19447500D02*
X21471074Y-19574500D01*
X21471074Y-19447500D02*
X21344074Y-19574500D01*
X21407574Y-19447500D02*
X21407574Y-19574500D01*
X21344074Y-19511000D02*
X21471074Y-19511000D01*
X21629074Y-21841500D02*
X21756074Y-21968500D01*
X21756074Y-21841500D02*
X21629074Y-21968500D01*
X21692574Y-21841500D02*
X21692574Y-21968500D01*
X21629074Y-21905000D02*
X21756074Y-21905000D01*
X21844074Y-15437500D02*
X21971074Y-15564500D01*
X21971074Y-15437500D02*
X21844074Y-15564500D01*
X21907574Y-15437500D02*
X21907574Y-15564500D01*
X21844074Y-15501000D02*
X21971074Y-15501000D01*
X21844074Y-15437500D02*
X21971074Y-15564500D01*
X21971074Y-15437500D02*
X21844074Y-15564500D01*
X21907574Y-15437500D02*
X21907574Y-15564500D01*
X21844074Y-15501000D02*
X21971074Y-15501000D01*
X21844074Y-17337500D02*
X21971074Y-17464500D01*
X21971074Y-17337500D02*
X21844074Y-17464500D01*
X21907574Y-17337500D02*
X21907574Y-17464500D01*
X21844074Y-17401000D02*
X21971074Y-17401000D01*
X21844074Y-17337500D02*
X21971074Y-17464500D01*
X21971074Y-17337500D02*
X21844074Y-17464500D01*
X21907574Y-17337500D02*
X21907574Y-17464500D01*
X21844074Y-17401000D02*
X21971074Y-17401000D01*
X21844074Y-19237500D02*
X21971074Y-19364500D01*
X21971074Y-19237500D02*
X21844074Y-19364500D01*
X21907574Y-19237500D02*
X21907574Y-19364500D01*
X21844074Y-19301000D02*
X21971074Y-19301000D01*
X21844074Y-19237500D02*
X21971074Y-19364500D01*
X21971074Y-19237500D02*
X21844074Y-19364500D01*
X21907574Y-19237500D02*
X21907574Y-19364500D01*
X21844074Y-19301000D02*
X21971074Y-19301000D01*
X22129074Y-21631500D02*
X22256074Y-21758500D01*
X22256074Y-21631500D02*
X22129074Y-21758500D01*
X22192574Y-21631500D02*
X22192574Y-21758500D01*
X22129074Y-21695000D02*
X22256074Y-21695000D01*
X22129074Y-21631500D02*
X22256074Y-21758500D01*
X22256074Y-21631500D02*
X22129074Y-21758500D01*
X22192574Y-21631500D02*
X22192574Y-21758500D01*
X22129074Y-21695000D02*
X22256074Y-21695000D01*
X22344074Y-15647500D02*
X22471073Y-15774500D01*
X22471073Y-15647500D02*
X22344074Y-15774500D01*
X22407573Y-15647500D02*
X22407573Y-15774500D01*
X22344074Y-15711000D02*
X22471073Y-15711000D01*
X22344074Y-17547500D02*
X22471073Y-17674500D01*
X22471073Y-17547500D02*
X22344074Y-17674500D01*
X22407573Y-17547500D02*
X22407573Y-17674500D01*
X22344074Y-17611000D02*
X22471073Y-17611000D01*
X22344074Y-19447500D02*
X22471073Y-19574500D01*
X22471073Y-19447500D02*
X22344074Y-19574500D01*
X22407573Y-19447500D02*
X22407573Y-19574500D01*
X22344074Y-19511000D02*
X22471073Y-19511000D01*
X22629073Y-21841500D02*
X22756073Y-21968500D01*
X22756073Y-21841500D02*
X22629073Y-21968500D01*
X22692573Y-21841500D02*
X22692573Y-21968500D01*
X22629073Y-21905000D02*
X22756073Y-21905000D01*
X23244073Y-15856500D02*
X23371073Y-15983500D01*
X23371073Y-15856500D02*
X23244073Y-15983500D01*
X23307573Y-15856500D02*
X23307573Y-15983500D01*
X23244073Y-15920000D02*
X23371073Y-15920000D01*
X23244073Y-17756500D02*
X23371073Y-17883500D01*
X23371073Y-17756500D02*
X23244073Y-17883500D01*
X23307573Y-17756500D02*
X23307573Y-17883500D01*
X23244073Y-17820000D02*
X23371073Y-17820000D01*
X23244073Y-19656500D02*
X23371073Y-19783500D01*
X23371073Y-19656500D02*
X23244073Y-19783500D01*
X23307573Y-19656500D02*
X23307573Y-19783500D01*
X23244073Y-19720000D02*
X23371073Y-19720000D01*
X23744073Y-15646500D02*
X23871073Y-15773500D01*
X23871073Y-15646500D02*
X23744073Y-15773500D01*
X23807573Y-15646500D02*
X23807573Y-15773500D01*
X23744073Y-15710000D02*
X23871073Y-15710000D01*
X23744073Y-15646500D02*
X23871073Y-15773500D01*
X23871073Y-15646500D02*
X23744073Y-15773500D01*
X23807573Y-15646500D02*
X23807573Y-15773500D01*
X23744073Y-15710000D02*
X23871073Y-15710000D01*
X23744073Y-17546500D02*
X23871073Y-17673500D01*
X23871073Y-17546500D02*
X23744073Y-17673500D01*
X23807573Y-17546500D02*
X23807573Y-17673500D01*
X23744073Y-17610000D02*
X23871073Y-17610000D01*
X23744073Y-17546500D02*
X23871073Y-17673500D01*
X23871073Y-17546500D02*
X23744073Y-17673500D01*
X23807573Y-17546500D02*
X23807573Y-17673500D01*
X23744073Y-17610000D02*
X23871073Y-17610000D01*
X23744073Y-19446500D02*
X23871073Y-19573500D01*
X23871073Y-19446500D02*
X23744073Y-19573500D01*
X23807573Y-19446500D02*
X23807573Y-19573500D01*
X23744073Y-19510000D02*
X23871073Y-19510000D01*
X23744073Y-19446500D02*
X23871073Y-19573500D01*
X23871073Y-19446500D02*
X23744073Y-19573500D01*
X23807573Y-19446500D02*
X23807573Y-19573500D01*
X23744073Y-19510000D02*
X23871073Y-19510000D01*
X24012659Y-21924892D02*
X24139659Y-22051892D01*
X24139659Y-21924892D02*
X24012659Y-22051892D01*
X24076159Y-21924892D02*
X24076159Y-22051892D01*
X24012659Y-21988392D02*
X24139659Y-21988392D01*
X24244073Y-15856500D02*
X24371073Y-15983500D01*
X24371073Y-15856500D02*
X24244073Y-15983500D01*
X24307573Y-15856500D02*
X24307573Y-15983500D01*
X24244073Y-15920000D02*
X24371073Y-15920000D01*
X24244073Y-17756500D02*
X24371073Y-17883500D01*
X24371073Y-17756500D02*
X24244073Y-17883500D01*
X24307573Y-17756500D02*
X24307573Y-17883500D01*
X24244073Y-17820000D02*
X24371073Y-17820000D01*
X24244073Y-19656500D02*
X24371073Y-19783500D01*
X24371073Y-19656500D02*
X24244073Y-19783500D01*
X24307573Y-19656500D02*
X24307573Y-19783500D01*
X24244073Y-19720000D02*
X24371073Y-19720000D01*
X24540461Y-21800295D02*
X24667461Y-21927295D01*
X24667461Y-21800295D02*
X24540461Y-21927295D01*
X24603961Y-21800295D02*
X24603961Y-21927295D01*
X24540461Y-21863795D02*
X24667461Y-21863795D01*
X24540461Y-21800295D02*
X24667461Y-21927295D01*
X24667461Y-21800295D02*
X24540461Y-21927295D01*
X24603961Y-21800295D02*
X24603961Y-21927295D01*
X24540461Y-21863795D02*
X24667461Y-21863795D01*
X24998944Y-22089939D02*
X25125944Y-22216939D01*
X25125944Y-22089939D02*
X24998944Y-22216939D01*
X25062444Y-22089939D02*
X25062444Y-22216939D01*
X24998944Y-22153439D02*
X25125944Y-22153439D01*
X26326554Y-22492041D02*
X26453554Y-22619041D01*
X26453554Y-22492041D02*
X26326554Y-22619041D01*
X26390054Y-22492041D02*
X26390054Y-22619041D01*
X26326554Y-22555541D02*
X26453554Y-22555541D01*
X26867682Y-22456266D02*
X26994682Y-22583266D01*
X26994682Y-22456266D02*
X26867682Y-22583266D01*
X26931182Y-22456266D02*
X26931182Y-22583266D01*
X26867682Y-22519766D02*
X26994682Y-22519766D01*
X26867682Y-22456266D02*
X26994682Y-22583266D01*
X26994682Y-22456266D02*
X26867682Y-22583266D01*
X26931182Y-22456266D02*
X26931182Y-22583266D01*
X26867682Y-22519766D02*
X26994682Y-22519766D01*
X27272072Y-22817609D02*
X27399072Y-22944609D01*
X27399072Y-22817609D02*
X27272072Y-22944609D01*
X27335572Y-22817609D02*
X27335572Y-22944609D01*
X27272072Y-22881109D02*
X27399072Y-22881109D01*
D16*
X6546667Y-6156667D02*
X6766667Y-6376667D01*
X6766667Y-6156667D02*
X6546667Y-6376667D01*
X6734449Y-6344449D02*
X6734449Y-6188884D01*
X6578884Y-6188884D01*
X6578884Y-6344449D01*
X6734449Y-6344449D01*
X6546667Y-8056667D02*
X6766667Y-8276667D01*
X6766667Y-8056667D02*
X6546667Y-8276667D01*
X6734449Y-8244449D02*
X6734449Y-8088884D01*
X6578884Y-8088884D01*
X6578884Y-8244449D01*
X6734449Y-8244449D01*
X12180000Y-6369500D02*
X12400000Y-6589500D01*
X12400000Y-6369500D02*
X12180000Y-6589500D01*
X12367782Y-6557282D02*
X12367782Y-6401717D01*
X12212217Y-6401717D01*
X12212217Y-6557282D01*
X12367782Y-6557282D01*
X12180000Y-8269500D02*
X12400000Y-8489500D01*
X12400000Y-8269500D02*
X12180000Y-8489500D01*
X12367782Y-8457283D02*
X12367782Y-8301717D01*
X12212217Y-8301717D01*
X12212217Y-8457283D01*
X12367782Y-8457283D01*
X14660267Y-11985663D02*
X14880267Y-12205663D01*
X14880267Y-11985663D02*
X14660267Y-12205663D01*
X14848049Y-12173445D02*
X14848049Y-12017880D01*
X14692484Y-12017880D01*
X14692484Y-12173445D01*
X14848049Y-12173445D01*
X17114240Y-16822667D02*
X17334240Y-17042667D01*
X17334240Y-16822667D02*
X17114240Y-17042667D01*
X17302023Y-17010449D02*
X17302023Y-16854884D01*
X17146458Y-16854884D01*
X17146458Y-17010449D01*
X17302023Y-17010449D01*
X17114240Y-18722667D02*
X17334240Y-18942667D01*
X17334240Y-18722667D02*
X17114240Y-18942667D01*
X17302023Y-18910449D02*
X17302023Y-18754884D01*
X17146458Y-18754884D01*
X17146458Y-18910449D01*
X17302023Y-18910449D01*
X22747573Y-17035500D02*
X22967573Y-17255500D01*
X22967573Y-17035500D02*
X22747573Y-17255500D01*
X22935356Y-17223283D02*
X22935356Y-17067718D01*
X22779791Y-17067718D01*
X22779791Y-17223283D01*
X22935356Y-17223283D01*
X22747573Y-18935500D02*
X22967573Y-19155500D01*
X22967573Y-18935500D02*
X22747573Y-19155500D01*
X22935356Y-19123283D02*
X22935356Y-18967718D01*
X22779791Y-18967718D01*
X22779791Y-19123283D01*
X22935356Y-19123283D01*
X25512840Y-22651663D02*
X25732840Y-22871663D01*
X25732840Y-22651663D02*
X25512840Y-22871663D01*
X25700623Y-22839445D02*
X25700623Y-22683880D01*
X25545058Y-22683880D01*
X25545058Y-22839445D01*
X25700623Y-22839445D01*
D17*
X25526667Y-8771667D02*
X25956667Y-9201667D01*
X25956667Y-8771667D02*
X25526667Y-9201667D01*
X25741667Y-9201667D02*
X25956667Y-8986667D01*
X25741667Y-8771667D01*
X25526667Y-8986667D01*
X25741667Y-9201667D01*
X25526667Y-10671667D02*
X25956667Y-11101667D01*
X25956667Y-10671667D02*
X25526667Y-11101667D01*
X25741667Y-11101667D02*
X25956667Y-10886667D01*
X25741667Y-10671667D01*
X25526667Y-10886667D01*
X25741667Y-11101667D01*
X31160000Y-8984500D02*
X31590000Y-9414500D01*
X31590000Y-8984500D02*
X31160000Y-9414500D01*
X31375000Y-9414500D02*
X31590000Y-9199500D01*
X31375000Y-8984500D01*
X31160000Y-9199500D01*
X31375000Y-9414500D01*
X31160000Y-10884500D02*
X31590000Y-11314500D01*
X31590000Y-10884500D02*
X31160000Y-11314500D01*
X31375000Y-11314500D02*
X31590000Y-11099500D01*
X31375000Y-10884500D01*
X31160000Y-11099500D01*
X31375000Y-11314500D01*
X33640267Y-14600663D02*
X34070267Y-15030663D01*
X34070267Y-14600663D02*
X33640267Y-15030663D01*
X33855267Y-15030663D02*
X34070267Y-14815663D01*
X33855267Y-14600663D01*
X33640267Y-14815663D01*
X33855267Y-15030663D01*
D12*
X4753277Y-24791422D02*
X4753277Y-24591422D01*
X4753277Y-24591422D02*
X4800896Y-24591422D01*
X4800896Y-24591422D02*
X4829467Y-24600946D01*
X4829467Y-24600946D02*
X4848515Y-24619993D01*
X4848515Y-24619993D02*
X4858039Y-24639041D01*
X4858039Y-24639041D02*
X4867563Y-24677136D01*
X4867563Y-24677136D02*
X4867563Y-24705708D01*
X4867563Y-24705708D02*
X4858039Y-24743803D01*
X4858039Y-24743803D02*
X4848515Y-24762850D01*
X4848515Y-24762850D02*
X4829467Y-24781898D01*
X4829467Y-24781898D02*
X4800896Y-24791422D01*
X4800896Y-24791422D02*
X4753277Y-24791422D01*
X4953277Y-24791422D02*
X4953277Y-24658089D01*
X4953277Y-24696184D02*
X4962801Y-24677136D01*
X4962801Y-24677136D02*
X4972324Y-24667612D01*
X4972324Y-24667612D02*
X4991372Y-24658089D01*
X4991372Y-24658089D02*
X5010420Y-24658089D01*
X5077086Y-24791422D02*
X5077086Y-24658089D01*
X5077086Y-24591422D02*
X5067563Y-24600946D01*
X5067563Y-24600946D02*
X5077086Y-24610470D01*
X5077086Y-24610470D02*
X5086610Y-24600946D01*
X5086610Y-24600946D02*
X5077086Y-24591422D01*
X5077086Y-24591422D02*
X5077086Y-24610470D01*
X5200896Y-24791422D02*
X5181848Y-24781898D01*
X5181848Y-24781898D02*
X5172324Y-24762850D01*
X5172324Y-24762850D02*
X5172324Y-24591422D01*
X5305658Y-24791422D02*
X5286610Y-24781898D01*
X5286610Y-24781898D02*
X5277086Y-24762850D01*
X5277086Y-24762850D02*
X5277086Y-24591422D01*
X5534229Y-24791422D02*
X5534229Y-24591422D01*
X5534229Y-24591422D02*
X5600896Y-24734279D01*
X5600896Y-24734279D02*
X5667562Y-24591422D01*
X5667562Y-24591422D02*
X5667562Y-24791422D01*
X5848515Y-24791422D02*
X5848515Y-24686660D01*
X5848515Y-24686660D02*
X5838991Y-24667612D01*
X5838991Y-24667612D02*
X5819943Y-24658089D01*
X5819943Y-24658089D02*
X5781848Y-24658089D01*
X5781848Y-24658089D02*
X5762801Y-24667612D01*
X5848515Y-24781898D02*
X5829467Y-24791422D01*
X5829467Y-24791422D02*
X5781848Y-24791422D01*
X5781848Y-24791422D02*
X5762801Y-24781898D01*
X5762801Y-24781898D02*
X5753277Y-24762850D01*
X5753277Y-24762850D02*
X5753277Y-24743803D01*
X5753277Y-24743803D02*
X5762801Y-24724755D01*
X5762801Y-24724755D02*
X5781848Y-24715231D01*
X5781848Y-24715231D02*
X5829467Y-24715231D01*
X5829467Y-24715231D02*
X5848515Y-24705708D01*
X5943753Y-24658089D02*
X5943753Y-24858089D01*
X5943753Y-24667612D02*
X5962801Y-24658089D01*
X5962801Y-24658089D02*
X6000896Y-24658089D01*
X6000896Y-24658089D02*
X6019943Y-24667612D01*
X6019943Y-24667612D02*
X6029467Y-24677136D01*
X6029467Y-24677136D02*
X6038991Y-24696184D01*
X6038991Y-24696184D02*
X6038991Y-24753327D01*
X6038991Y-24753327D02*
X6029467Y-24772374D01*
X6029467Y-24772374D02*
X6019943Y-24781898D01*
X6019943Y-24781898D02*
X6000896Y-24791422D01*
X6000896Y-24791422D02*
X5962801Y-24791422D01*
X5962801Y-24791422D02*
X5943753Y-24781898D01*
X6124705Y-24772374D02*
X6134229Y-24781898D01*
X6134229Y-24781898D02*
X6124705Y-24791422D01*
X6124705Y-24791422D02*
X6115182Y-24781898D01*
X6115182Y-24781898D02*
X6124705Y-24772374D01*
X6124705Y-24772374D02*
X6124705Y-24791422D01*
X6124705Y-24667612D02*
X6134229Y-24677136D01*
X6134229Y-24677136D02*
X6124705Y-24686660D01*
X6124705Y-24686660D02*
X6115182Y-24677136D01*
X6115182Y-24677136D02*
X6124705Y-24667612D01*
X6124705Y-24667612D02*
X6124705Y-24686660D01*
D13*
X4462500Y-25104938D02*
X4492500Y-25134938D01*
X4492500Y-25104938D02*
X4462500Y-25134938D01*
D12*
X4791372Y-25011422D02*
X4810420Y-25011422D01*
X4810420Y-25011422D02*
X4829467Y-25020946D01*
X4829467Y-25020946D02*
X4838991Y-25030470D01*
X4838991Y-25030470D02*
X4848515Y-25049517D01*
X4848515Y-25049517D02*
X4858039Y-25087612D01*
X4858039Y-25087612D02*
X4858039Y-25135231D01*
X4858039Y-25135231D02*
X4848515Y-25173327D01*
X4848515Y-25173327D02*
X4838991Y-25192374D01*
X4838991Y-25192374D02*
X4829467Y-25201898D01*
X4829467Y-25201898D02*
X4810420Y-25211422D01*
X4810420Y-25211422D02*
X4791372Y-25211422D01*
X4791372Y-25211422D02*
X4772324Y-25201898D01*
X4772324Y-25201898D02*
X4762801Y-25192374D01*
X4762801Y-25192374D02*
X4753277Y-25173327D01*
X4753277Y-25173327D02*
X4743753Y-25135231D01*
X4743753Y-25135231D02*
X4743753Y-25087612D01*
X4743753Y-25087612D02*
X4753277Y-25049517D01*
X4753277Y-25049517D02*
X4762801Y-25030470D01*
X4762801Y-25030470D02*
X4772324Y-25020946D01*
X4772324Y-25020946D02*
X4791372Y-25011422D01*
X4943753Y-25192374D02*
X4953277Y-25201898D01*
X4953277Y-25201898D02*
X4943753Y-25211422D01*
X4943753Y-25211422D02*
X4934229Y-25201898D01*
X4934229Y-25201898D02*
X4943753Y-25192374D01*
X4943753Y-25192374D02*
X4943753Y-25211422D01*
X5019944Y-25011422D02*
X5143753Y-25011422D01*
X5143753Y-25011422D02*
X5077086Y-25087612D01*
X5077086Y-25087612D02*
X5105658Y-25087612D01*
X5105658Y-25087612D02*
X5124705Y-25097136D01*
X5124705Y-25097136D02*
X5134229Y-25106660D01*
X5134229Y-25106660D02*
X5143753Y-25125708D01*
X5143753Y-25125708D02*
X5143753Y-25173327D01*
X5143753Y-25173327D02*
X5134229Y-25192374D01*
X5134229Y-25192374D02*
X5124705Y-25201898D01*
X5124705Y-25201898D02*
X5105658Y-25211422D01*
X5105658Y-25211422D02*
X5048515Y-25211422D01*
X5048515Y-25211422D02*
X5029467Y-25201898D01*
X5029467Y-25201898D02*
X5019944Y-25192374D01*
X5267563Y-25011422D02*
X5286610Y-25011422D01*
X5286610Y-25011422D02*
X5305658Y-25020946D01*
X5305658Y-25020946D02*
X5315182Y-25030470D01*
X5315182Y-25030470D02*
X5324705Y-25049517D01*
X5324705Y-25049517D02*
X5334229Y-25087612D01*
X5334229Y-25087612D02*
X5334229Y-25135231D01*
X5334229Y-25135231D02*
X5324705Y-25173327D01*
X5324705Y-25173327D02*
X5315182Y-25192374D01*
X5315182Y-25192374D02*
X5305658Y-25201898D01*
X5305658Y-25201898D02*
X5286610Y-25211422D01*
X5286610Y-25211422D02*
X5267563Y-25211422D01*
X5267563Y-25211422D02*
X5248515Y-25201898D01*
X5248515Y-25201898D02*
X5238991Y-25192374D01*
X5238991Y-25192374D02*
X5229467Y-25173327D01*
X5229467Y-25173327D02*
X5219944Y-25135231D01*
X5219944Y-25135231D02*
X5219944Y-25087612D01*
X5219944Y-25087612D02*
X5229467Y-25049517D01*
X5229467Y-25049517D02*
X5238991Y-25030470D01*
X5238991Y-25030470D02*
X5248515Y-25020946D01*
X5248515Y-25020946D02*
X5267563Y-25011422D01*
X5458039Y-25011422D02*
X5477086Y-25011422D01*
X5477086Y-25011422D02*
X5496134Y-25020946D01*
X5496134Y-25020946D02*
X5505658Y-25030470D01*
X5505658Y-25030470D02*
X5515182Y-25049517D01*
X5515182Y-25049517D02*
X5524705Y-25087612D01*
X5524705Y-25087612D02*
X5524705Y-25135231D01*
X5524705Y-25135231D02*
X5515182Y-25173327D01*
X5515182Y-25173327D02*
X5505658Y-25192374D01*
X5505658Y-25192374D02*
X5496134Y-25201898D01*
X5496134Y-25201898D02*
X5477086Y-25211422D01*
X5477086Y-25211422D02*
X5458039Y-25211422D01*
X5458039Y-25211422D02*
X5438991Y-25201898D01*
X5438991Y-25201898D02*
X5429467Y-25192374D01*
X5429467Y-25192374D02*
X5419944Y-25173327D01*
X5419944Y-25173327D02*
X5410420Y-25135231D01*
X5410420Y-25135231D02*
X5410420Y-25087612D01*
X5410420Y-25087612D02*
X5419944Y-25049517D01*
X5419944Y-25049517D02*
X5429467Y-25030470D01*
X5429467Y-25030470D02*
X5438991Y-25020946D01*
X5438991Y-25020946D02*
X5458039Y-25011422D01*
X5610420Y-25211422D02*
X5610420Y-25078089D01*
X5610420Y-25097136D02*
X5619943Y-25087612D01*
X5619943Y-25087612D02*
X5638991Y-25078089D01*
X5638991Y-25078089D02*
X5667563Y-25078089D01*
X5667563Y-25078089D02*
X5686610Y-25087612D01*
X5686610Y-25087612D02*
X5696134Y-25106660D01*
X5696134Y-25106660D02*
X5696134Y-25211422D01*
X5696134Y-25106660D02*
X5705658Y-25087612D01*
X5705658Y-25087612D02*
X5724705Y-25078089D01*
X5724705Y-25078089D02*
X5753277Y-25078089D01*
X5753277Y-25078089D02*
X5772324Y-25087612D01*
X5772324Y-25087612D02*
X5781848Y-25106660D01*
X5781848Y-25106660D02*
X5781848Y-25211422D01*
X5877086Y-25211422D02*
X5877086Y-25078089D01*
X5877086Y-25097136D02*
X5886610Y-25087612D01*
X5886610Y-25087612D02*
X5905658Y-25078089D01*
X5905658Y-25078089D02*
X5934229Y-25078089D01*
X5934229Y-25078089D02*
X5953277Y-25087612D01*
X5953277Y-25087612D02*
X5962801Y-25106660D01*
X5962801Y-25106660D02*
X5962801Y-25211422D01*
X5962801Y-25106660D02*
X5972324Y-25087612D01*
X5972324Y-25087612D02*
X5991372Y-25078089D01*
X5991372Y-25078089D02*
X6019943Y-25078089D01*
X6019943Y-25078089D02*
X6038991Y-25087612D01*
X6038991Y-25087612D02*
X6048515Y-25106660D01*
X6048515Y-25106660D02*
X6048515Y-25211422D01*
X6438991Y-25001898D02*
X6267563Y-25259041D01*
X6696134Y-25011422D02*
X6715182Y-25011422D01*
X6715182Y-25011422D02*
X6734229Y-25020946D01*
X6734229Y-25020946D02*
X6743753Y-25030470D01*
X6743753Y-25030470D02*
X6753277Y-25049517D01*
X6753277Y-25049517D02*
X6762801Y-25087612D01*
X6762801Y-25087612D02*
X6762801Y-25135231D01*
X6762801Y-25135231D02*
X6753277Y-25173327D01*
X6753277Y-25173327D02*
X6743753Y-25192374D01*
X6743753Y-25192374D02*
X6734229Y-25201898D01*
X6734229Y-25201898D02*
X6715182Y-25211422D01*
X6715182Y-25211422D02*
X6696134Y-25211422D01*
X6696134Y-25211422D02*
X6677086Y-25201898D01*
X6677086Y-25201898D02*
X6667563Y-25192374D01*
X6667563Y-25192374D02*
X6658039Y-25173327D01*
X6658039Y-25173327D02*
X6648515Y-25135231D01*
X6648515Y-25135231D02*
X6648515Y-25087612D01*
X6648515Y-25087612D02*
X6658039Y-25049517D01*
X6658039Y-25049517D02*
X6667563Y-25030470D01*
X6667563Y-25030470D02*
X6677086Y-25020946D01*
X6677086Y-25020946D02*
X6696134Y-25011422D01*
X6848515Y-25192374D02*
X6858039Y-25201898D01*
X6858039Y-25201898D02*
X6848515Y-25211422D01*
X6848515Y-25211422D02*
X6838991Y-25201898D01*
X6838991Y-25201898D02*
X6848515Y-25192374D01*
X6848515Y-25192374D02*
X6848515Y-25211422D01*
X6981848Y-25011422D02*
X7000896Y-25011422D01*
X7000896Y-25011422D02*
X7019944Y-25020946D01*
X7019944Y-25020946D02*
X7029467Y-25030470D01*
X7029467Y-25030470D02*
X7038991Y-25049517D01*
X7038991Y-25049517D02*
X7048515Y-25087612D01*
X7048515Y-25087612D02*
X7048515Y-25135231D01*
X7048515Y-25135231D02*
X7038991Y-25173327D01*
X7038991Y-25173327D02*
X7029467Y-25192374D01*
X7029467Y-25192374D02*
X7019944Y-25201898D01*
X7019944Y-25201898D02*
X7000896Y-25211422D01*
X7000896Y-25211422D02*
X6981848Y-25211422D01*
X6981848Y-25211422D02*
X6962801Y-25201898D01*
X6962801Y-25201898D02*
X6953277Y-25192374D01*
X6953277Y-25192374D02*
X6943753Y-25173327D01*
X6943753Y-25173327D02*
X6934229Y-25135231D01*
X6934229Y-25135231D02*
X6934229Y-25087612D01*
X6934229Y-25087612D02*
X6943753Y-25049517D01*
X6943753Y-25049517D02*
X6953277Y-25030470D01*
X6953277Y-25030470D02*
X6962801Y-25020946D01*
X6962801Y-25020946D02*
X6981848Y-25011422D01*
X7238991Y-25211422D02*
X7124706Y-25211422D01*
X7181848Y-25211422D02*
X7181848Y-25011422D01*
X7181848Y-25011422D02*
X7162801Y-25039993D01*
X7162801Y-25039993D02*
X7143753Y-25059041D01*
X7143753Y-25059041D02*
X7124706Y-25068565D01*
X7429467Y-25211422D02*
X7315182Y-25211422D01*
X7372325Y-25211422D02*
X7372325Y-25011422D01*
X7372325Y-25011422D02*
X7353277Y-25039993D01*
X7353277Y-25039993D02*
X7334229Y-25059041D01*
X7334229Y-25059041D02*
X7315182Y-25068565D01*
X7543753Y-25097136D02*
X7524706Y-25087612D01*
X7524706Y-25087612D02*
X7515182Y-25078089D01*
X7515182Y-25078089D02*
X7505658Y-25059041D01*
X7505658Y-25059041D02*
X7505658Y-25049517D01*
X7505658Y-25049517D02*
X7515182Y-25030470D01*
X7515182Y-25030470D02*
X7524706Y-25020946D01*
X7524706Y-25020946D02*
X7543753Y-25011422D01*
X7543753Y-25011422D02*
X7581848Y-25011422D01*
X7581848Y-25011422D02*
X7600896Y-25020946D01*
X7600896Y-25020946D02*
X7610420Y-25030470D01*
X7610420Y-25030470D02*
X7619944Y-25049517D01*
X7619944Y-25049517D02*
X7619944Y-25059041D01*
X7619944Y-25059041D02*
X7610420Y-25078089D01*
X7610420Y-25078089D02*
X7600896Y-25087612D01*
X7600896Y-25087612D02*
X7581848Y-25097136D01*
X7581848Y-25097136D02*
X7543753Y-25097136D01*
X7543753Y-25097136D02*
X7524706Y-25106660D01*
X7524706Y-25106660D02*
X7515182Y-25116184D01*
X7515182Y-25116184D02*
X7505658Y-25135231D01*
X7505658Y-25135231D02*
X7505658Y-25173327D01*
X7505658Y-25173327D02*
X7515182Y-25192374D01*
X7515182Y-25192374D02*
X7524706Y-25201898D01*
X7524706Y-25201898D02*
X7543753Y-25211422D01*
X7543753Y-25211422D02*
X7581848Y-25211422D01*
X7581848Y-25211422D02*
X7600896Y-25201898D01*
X7600896Y-25201898D02*
X7610420Y-25192374D01*
X7610420Y-25192374D02*
X7619944Y-25173327D01*
X7619944Y-25173327D02*
X7619944Y-25135231D01*
X7619944Y-25135231D02*
X7610420Y-25116184D01*
X7610420Y-25116184D02*
X7600896Y-25106660D01*
X7600896Y-25106660D02*
X7581848Y-25097136D01*
X7696134Y-25011422D02*
X7696134Y-25049517D01*
X7772325Y-25011422D02*
X7772325Y-25049517D01*
X8067563Y-25287612D02*
X8058039Y-25278089D01*
X8058039Y-25278089D02*
X8038991Y-25249517D01*
X8038991Y-25249517D02*
X8029468Y-25230470D01*
X8029468Y-25230470D02*
X8019944Y-25201898D01*
X8019944Y-25201898D02*
X8010420Y-25154279D01*
X8010420Y-25154279D02*
X8010420Y-25116184D01*
X8010420Y-25116184D02*
X8019944Y-25068565D01*
X8019944Y-25068565D02*
X8029468Y-25039993D01*
X8029468Y-25039993D02*
X8038991Y-25020946D01*
X8038991Y-25020946D02*
X8058039Y-24992374D01*
X8058039Y-24992374D02*
X8067563Y-24982850D01*
X8248515Y-25211422D02*
X8134229Y-25211422D01*
X8191372Y-25211422D02*
X8191372Y-25011422D01*
X8191372Y-25011422D02*
X8172325Y-25039993D01*
X8172325Y-25039993D02*
X8153277Y-25059041D01*
X8153277Y-25059041D02*
X8134229Y-25068565D01*
X8438991Y-25211422D02*
X8324706Y-25211422D01*
X8381848Y-25211422D02*
X8381848Y-25011422D01*
X8381848Y-25011422D02*
X8362801Y-25039993D01*
X8362801Y-25039993D02*
X8343753Y-25059041D01*
X8343753Y-25059041D02*
X8324706Y-25068565D01*
X8677087Y-25211422D02*
X8677087Y-25011422D01*
X8762801Y-25211422D02*
X8762801Y-25106660D01*
X8762801Y-25106660D02*
X8753277Y-25087612D01*
X8753277Y-25087612D02*
X8734230Y-25078089D01*
X8734230Y-25078089D02*
X8705658Y-25078089D01*
X8705658Y-25078089D02*
X8686611Y-25087612D01*
X8686611Y-25087612D02*
X8677087Y-25097136D01*
X8886611Y-25211422D02*
X8867563Y-25201898D01*
X8867563Y-25201898D02*
X8858039Y-25192374D01*
X8858039Y-25192374D02*
X8848515Y-25173327D01*
X8848515Y-25173327D02*
X8848515Y-25116184D01*
X8848515Y-25116184D02*
X8858039Y-25097136D01*
X8858039Y-25097136D02*
X8867563Y-25087612D01*
X8867563Y-25087612D02*
X8886611Y-25078089D01*
X8886611Y-25078089D02*
X8915182Y-25078089D01*
X8915182Y-25078089D02*
X8934230Y-25087612D01*
X8934230Y-25087612D02*
X8943753Y-25097136D01*
X8943753Y-25097136D02*
X8953277Y-25116184D01*
X8953277Y-25116184D02*
X8953277Y-25173327D01*
X8953277Y-25173327D02*
X8943753Y-25192374D01*
X8943753Y-25192374D02*
X8934230Y-25201898D01*
X8934230Y-25201898D02*
X8915182Y-25211422D01*
X8915182Y-25211422D02*
X8886611Y-25211422D01*
X9067563Y-25211422D02*
X9048515Y-25201898D01*
X9048515Y-25201898D02*
X9038992Y-25182850D01*
X9038992Y-25182850D02*
X9038992Y-25011422D01*
X9219944Y-25201898D02*
X9200896Y-25211422D01*
X9200896Y-25211422D02*
X9162801Y-25211422D01*
X9162801Y-25211422D02*
X9143753Y-25201898D01*
X9143753Y-25201898D02*
X9134230Y-25182850D01*
X9134230Y-25182850D02*
X9134230Y-25106660D01*
X9134230Y-25106660D02*
X9143753Y-25087612D01*
X9143753Y-25087612D02*
X9162801Y-25078089D01*
X9162801Y-25078089D02*
X9200896Y-25078089D01*
X9200896Y-25078089D02*
X9219944Y-25087612D01*
X9219944Y-25087612D02*
X9229468Y-25106660D01*
X9229468Y-25106660D02*
X9229468Y-25125708D01*
X9229468Y-25125708D02*
X9134230Y-25144755D01*
X9305658Y-25201898D02*
X9324706Y-25211422D01*
X9324706Y-25211422D02*
X9362801Y-25211422D01*
X9362801Y-25211422D02*
X9381849Y-25201898D01*
X9381849Y-25201898D02*
X9391373Y-25182850D01*
X9391373Y-25182850D02*
X9391373Y-25173327D01*
X9391373Y-25173327D02*
X9381849Y-25154279D01*
X9381849Y-25154279D02*
X9362801Y-25144755D01*
X9362801Y-25144755D02*
X9334230Y-25144755D01*
X9334230Y-25144755D02*
X9315182Y-25135231D01*
X9315182Y-25135231D02*
X9305658Y-25116184D01*
X9305658Y-25116184D02*
X9305658Y-25106660D01*
X9305658Y-25106660D02*
X9315182Y-25087612D01*
X9315182Y-25087612D02*
X9334230Y-25078089D01*
X9334230Y-25078089D02*
X9362801Y-25078089D01*
X9362801Y-25078089D02*
X9381849Y-25087612D01*
X9458039Y-25287612D02*
X9467563Y-25278089D01*
X9467563Y-25278089D02*
X9486611Y-25249517D01*
X9486611Y-25249517D02*
X9496134Y-25230470D01*
X9496134Y-25230470D02*
X9505658Y-25201898D01*
X9505658Y-25201898D02*
X9515182Y-25154279D01*
X9515182Y-25154279D02*
X9515182Y-25116184D01*
X9515182Y-25116184D02*
X9505658Y-25068565D01*
X9505658Y-25068565D02*
X9496134Y-25039993D01*
X9496134Y-25039993D02*
X9486611Y-25020946D01*
X9486611Y-25020946D02*
X9467563Y-24992374D01*
X9467563Y-24992374D02*
X9458039Y-24982850D01*
D13*
X4492500Y-25383938D02*
G75*
G02*
X4462500Y-25383938I-15000J0D01*
G01*
X4462500Y-25383938D02*
G75*
G02*
X4492500Y-25383938I15000J0D01*
G01*
D12*
X4791372Y-25275422D02*
X4810420Y-25275422D01*
X4810420Y-25275422D02*
X4829467Y-25284946D01*
X4829467Y-25284946D02*
X4838991Y-25294470D01*
X4838991Y-25294470D02*
X4848515Y-25313517D01*
X4848515Y-25313517D02*
X4858039Y-25351612D01*
X4858039Y-25351612D02*
X4858039Y-25399231D01*
X4858039Y-25399231D02*
X4848515Y-25437327D01*
X4848515Y-25437327D02*
X4838991Y-25456374D01*
X4838991Y-25456374D02*
X4829467Y-25465898D01*
X4829467Y-25465898D02*
X4810420Y-25475422D01*
X4810420Y-25475422D02*
X4791372Y-25475422D01*
X4791372Y-25475422D02*
X4772324Y-25465898D01*
X4772324Y-25465898D02*
X4762801Y-25456374D01*
X4762801Y-25456374D02*
X4753277Y-25437327D01*
X4753277Y-25437327D02*
X4743753Y-25399231D01*
X4743753Y-25399231D02*
X4743753Y-25351612D01*
X4743753Y-25351612D02*
X4753277Y-25313517D01*
X4753277Y-25313517D02*
X4762801Y-25294470D01*
X4762801Y-25294470D02*
X4772324Y-25284946D01*
X4772324Y-25284946D02*
X4791372Y-25275422D01*
X4943753Y-25456374D02*
X4953277Y-25465898D01*
X4953277Y-25465898D02*
X4943753Y-25475422D01*
X4943753Y-25475422D02*
X4934229Y-25465898D01*
X4934229Y-25465898D02*
X4943753Y-25456374D01*
X4943753Y-25456374D02*
X4943753Y-25475422D01*
X5019944Y-25275422D02*
X5143753Y-25275422D01*
X5143753Y-25275422D02*
X5077086Y-25351612D01*
X5077086Y-25351612D02*
X5105658Y-25351612D01*
X5105658Y-25351612D02*
X5124705Y-25361136D01*
X5124705Y-25361136D02*
X5134229Y-25370660D01*
X5134229Y-25370660D02*
X5143753Y-25389708D01*
X5143753Y-25389708D02*
X5143753Y-25437327D01*
X5143753Y-25437327D02*
X5134229Y-25456374D01*
X5134229Y-25456374D02*
X5124705Y-25465898D01*
X5124705Y-25465898D02*
X5105658Y-25475422D01*
X5105658Y-25475422D02*
X5048515Y-25475422D01*
X5048515Y-25475422D02*
X5029467Y-25465898D01*
X5029467Y-25465898D02*
X5019944Y-25456374D01*
X5267563Y-25275422D02*
X5286610Y-25275422D01*
X5286610Y-25275422D02*
X5305658Y-25284946D01*
X5305658Y-25284946D02*
X5315182Y-25294470D01*
X5315182Y-25294470D02*
X5324705Y-25313517D01*
X5324705Y-25313517D02*
X5334229Y-25351612D01*
X5334229Y-25351612D02*
X5334229Y-25399231D01*
X5334229Y-25399231D02*
X5324705Y-25437327D01*
X5324705Y-25437327D02*
X5315182Y-25456374D01*
X5315182Y-25456374D02*
X5305658Y-25465898D01*
X5305658Y-25465898D02*
X5286610Y-25475422D01*
X5286610Y-25475422D02*
X5267563Y-25475422D01*
X5267563Y-25475422D02*
X5248515Y-25465898D01*
X5248515Y-25465898D02*
X5238991Y-25456374D01*
X5238991Y-25456374D02*
X5229467Y-25437327D01*
X5229467Y-25437327D02*
X5219944Y-25399231D01*
X5219944Y-25399231D02*
X5219944Y-25351612D01*
X5219944Y-25351612D02*
X5229467Y-25313517D01*
X5229467Y-25313517D02*
X5238991Y-25294470D01*
X5238991Y-25294470D02*
X5248515Y-25284946D01*
X5248515Y-25284946D02*
X5267563Y-25275422D01*
X5458039Y-25275422D02*
X5477086Y-25275422D01*
X5477086Y-25275422D02*
X5496134Y-25284946D01*
X5496134Y-25284946D02*
X5505658Y-25294470D01*
X5505658Y-25294470D02*
X5515182Y-25313517D01*
X5515182Y-25313517D02*
X5524705Y-25351612D01*
X5524705Y-25351612D02*
X5524705Y-25399231D01*
X5524705Y-25399231D02*
X5515182Y-25437327D01*
X5515182Y-25437327D02*
X5505658Y-25456374D01*
X5505658Y-25456374D02*
X5496134Y-25465898D01*
X5496134Y-25465898D02*
X5477086Y-25475422D01*
X5477086Y-25475422D02*
X5458039Y-25475422D01*
X5458039Y-25475422D02*
X5438991Y-25465898D01*
X5438991Y-25465898D02*
X5429467Y-25456374D01*
X5429467Y-25456374D02*
X5419944Y-25437327D01*
X5419944Y-25437327D02*
X5410420Y-25399231D01*
X5410420Y-25399231D02*
X5410420Y-25351612D01*
X5410420Y-25351612D02*
X5419944Y-25313517D01*
X5419944Y-25313517D02*
X5429467Y-25294470D01*
X5429467Y-25294470D02*
X5438991Y-25284946D01*
X5438991Y-25284946D02*
X5458039Y-25275422D01*
X5610420Y-25475422D02*
X5610420Y-25342089D01*
X5610420Y-25361136D02*
X5619943Y-25351612D01*
X5619943Y-25351612D02*
X5638991Y-25342089D01*
X5638991Y-25342089D02*
X5667563Y-25342089D01*
X5667563Y-25342089D02*
X5686610Y-25351612D01*
X5686610Y-25351612D02*
X5696134Y-25370660D01*
X5696134Y-25370660D02*
X5696134Y-25475422D01*
X5696134Y-25370660D02*
X5705658Y-25351612D01*
X5705658Y-25351612D02*
X5724705Y-25342089D01*
X5724705Y-25342089D02*
X5753277Y-25342089D01*
X5753277Y-25342089D02*
X5772324Y-25351612D01*
X5772324Y-25351612D02*
X5781848Y-25370660D01*
X5781848Y-25370660D02*
X5781848Y-25475422D01*
X5877086Y-25475422D02*
X5877086Y-25342089D01*
X5877086Y-25361136D02*
X5886610Y-25351612D01*
X5886610Y-25351612D02*
X5905658Y-25342089D01*
X5905658Y-25342089D02*
X5934229Y-25342089D01*
X5934229Y-25342089D02*
X5953277Y-25351612D01*
X5953277Y-25351612D02*
X5962801Y-25370660D01*
X5962801Y-25370660D02*
X5962801Y-25475422D01*
X5962801Y-25370660D02*
X5972324Y-25351612D01*
X5972324Y-25351612D02*
X5991372Y-25342089D01*
X5991372Y-25342089D02*
X6019943Y-25342089D01*
X6019943Y-25342089D02*
X6038991Y-25351612D01*
X6038991Y-25351612D02*
X6048515Y-25370660D01*
X6048515Y-25370660D02*
X6048515Y-25475422D01*
X6438991Y-25265898D02*
X6267563Y-25523041D01*
X6696134Y-25275422D02*
X6715182Y-25275422D01*
X6715182Y-25275422D02*
X6734229Y-25284946D01*
X6734229Y-25284946D02*
X6743753Y-25294470D01*
X6743753Y-25294470D02*
X6753277Y-25313517D01*
X6753277Y-25313517D02*
X6762801Y-25351612D01*
X6762801Y-25351612D02*
X6762801Y-25399231D01*
X6762801Y-25399231D02*
X6753277Y-25437327D01*
X6753277Y-25437327D02*
X6743753Y-25456374D01*
X6743753Y-25456374D02*
X6734229Y-25465898D01*
X6734229Y-25465898D02*
X6715182Y-25475422D01*
X6715182Y-25475422D02*
X6696134Y-25475422D01*
X6696134Y-25475422D02*
X6677086Y-25465898D01*
X6677086Y-25465898D02*
X6667563Y-25456374D01*
X6667563Y-25456374D02*
X6658039Y-25437327D01*
X6658039Y-25437327D02*
X6648515Y-25399231D01*
X6648515Y-25399231D02*
X6648515Y-25351612D01*
X6648515Y-25351612D02*
X6658039Y-25313517D01*
X6658039Y-25313517D02*
X6667563Y-25294470D01*
X6667563Y-25294470D02*
X6677086Y-25284946D01*
X6677086Y-25284946D02*
X6696134Y-25275422D01*
X6848515Y-25456374D02*
X6858039Y-25465898D01*
X6858039Y-25465898D02*
X6848515Y-25475422D01*
X6848515Y-25475422D02*
X6838991Y-25465898D01*
X6838991Y-25465898D02*
X6848515Y-25456374D01*
X6848515Y-25456374D02*
X6848515Y-25475422D01*
X6981848Y-25275422D02*
X7000896Y-25275422D01*
X7000896Y-25275422D02*
X7019944Y-25284946D01*
X7019944Y-25284946D02*
X7029467Y-25294470D01*
X7029467Y-25294470D02*
X7038991Y-25313517D01*
X7038991Y-25313517D02*
X7048515Y-25351612D01*
X7048515Y-25351612D02*
X7048515Y-25399231D01*
X7048515Y-25399231D02*
X7038991Y-25437327D01*
X7038991Y-25437327D02*
X7029467Y-25456374D01*
X7029467Y-25456374D02*
X7019944Y-25465898D01*
X7019944Y-25465898D02*
X7000896Y-25475422D01*
X7000896Y-25475422D02*
X6981848Y-25475422D01*
X6981848Y-25475422D02*
X6962801Y-25465898D01*
X6962801Y-25465898D02*
X6953277Y-25456374D01*
X6953277Y-25456374D02*
X6943753Y-25437327D01*
X6943753Y-25437327D02*
X6934229Y-25399231D01*
X6934229Y-25399231D02*
X6934229Y-25351612D01*
X6934229Y-25351612D02*
X6943753Y-25313517D01*
X6943753Y-25313517D02*
X6953277Y-25294470D01*
X6953277Y-25294470D02*
X6962801Y-25284946D01*
X6962801Y-25284946D02*
X6981848Y-25275422D01*
X7238991Y-25475422D02*
X7124706Y-25475422D01*
X7181848Y-25475422D02*
X7181848Y-25275422D01*
X7181848Y-25275422D02*
X7162801Y-25303993D01*
X7162801Y-25303993D02*
X7143753Y-25323041D01*
X7143753Y-25323041D02*
X7124706Y-25332565D01*
X7429467Y-25475422D02*
X7315182Y-25475422D01*
X7372325Y-25475422D02*
X7372325Y-25275422D01*
X7372325Y-25275422D02*
X7353277Y-25303993D01*
X7353277Y-25303993D02*
X7334229Y-25323041D01*
X7334229Y-25323041D02*
X7315182Y-25332565D01*
X7543753Y-25361136D02*
X7524706Y-25351612D01*
X7524706Y-25351612D02*
X7515182Y-25342089D01*
X7515182Y-25342089D02*
X7505658Y-25323041D01*
X7505658Y-25323041D02*
X7505658Y-25313517D01*
X7505658Y-25313517D02*
X7515182Y-25294470D01*
X7515182Y-25294470D02*
X7524706Y-25284946D01*
X7524706Y-25284946D02*
X7543753Y-25275422D01*
X7543753Y-25275422D02*
X7581848Y-25275422D01*
X7581848Y-25275422D02*
X7600896Y-25284946D01*
X7600896Y-25284946D02*
X7610420Y-25294470D01*
X7610420Y-25294470D02*
X7619944Y-25313517D01*
X7619944Y-25313517D02*
X7619944Y-25323041D01*
X7619944Y-25323041D02*
X7610420Y-25342089D01*
X7610420Y-25342089D02*
X7600896Y-25351612D01*
X7600896Y-25351612D02*
X7581848Y-25361136D01*
X7581848Y-25361136D02*
X7543753Y-25361136D01*
X7543753Y-25361136D02*
X7524706Y-25370660D01*
X7524706Y-25370660D02*
X7515182Y-25380184D01*
X7515182Y-25380184D02*
X7505658Y-25399231D01*
X7505658Y-25399231D02*
X7505658Y-25437327D01*
X7505658Y-25437327D02*
X7515182Y-25456374D01*
X7515182Y-25456374D02*
X7524706Y-25465898D01*
X7524706Y-25465898D02*
X7543753Y-25475422D01*
X7543753Y-25475422D02*
X7581848Y-25475422D01*
X7581848Y-25475422D02*
X7600896Y-25465898D01*
X7600896Y-25465898D02*
X7610420Y-25456374D01*
X7610420Y-25456374D02*
X7619944Y-25437327D01*
X7619944Y-25437327D02*
X7619944Y-25399231D01*
X7619944Y-25399231D02*
X7610420Y-25380184D01*
X7610420Y-25380184D02*
X7600896Y-25370660D01*
X7600896Y-25370660D02*
X7581848Y-25361136D01*
X7696134Y-25275422D02*
X7696134Y-25313517D01*
X7772325Y-25275422D02*
X7772325Y-25313517D01*
X8067563Y-25551612D02*
X8058039Y-25542089D01*
X8058039Y-25542089D02*
X8038991Y-25513517D01*
X8038991Y-25513517D02*
X8029468Y-25494470D01*
X8029468Y-25494470D02*
X8019944Y-25465898D01*
X8019944Y-25465898D02*
X8010420Y-25418279D01*
X8010420Y-25418279D02*
X8010420Y-25380184D01*
X8010420Y-25380184D02*
X8019944Y-25332565D01*
X8019944Y-25332565D02*
X8029468Y-25303993D01*
X8029468Y-25303993D02*
X8038991Y-25284946D01*
X8038991Y-25284946D02*
X8058039Y-25256374D01*
X8058039Y-25256374D02*
X8067563Y-25246850D01*
X8124706Y-25275422D02*
X8248515Y-25275422D01*
X8248515Y-25275422D02*
X8181848Y-25351612D01*
X8181848Y-25351612D02*
X8210420Y-25351612D01*
X8210420Y-25351612D02*
X8229468Y-25361136D01*
X8229468Y-25361136D02*
X8238991Y-25370660D01*
X8238991Y-25370660D02*
X8248515Y-25389708D01*
X8248515Y-25389708D02*
X8248515Y-25437327D01*
X8248515Y-25437327D02*
X8238991Y-25456374D01*
X8238991Y-25456374D02*
X8229468Y-25465898D01*
X8229468Y-25465898D02*
X8210420Y-25475422D01*
X8210420Y-25475422D02*
X8153277Y-25475422D01*
X8153277Y-25475422D02*
X8134229Y-25465898D01*
X8134229Y-25465898D02*
X8124706Y-25456374D01*
X8362801Y-25361136D02*
X8343753Y-25351612D01*
X8343753Y-25351612D02*
X8334229Y-25342089D01*
X8334229Y-25342089D02*
X8324706Y-25323041D01*
X8324706Y-25323041D02*
X8324706Y-25313517D01*
X8324706Y-25313517D02*
X8334229Y-25294470D01*
X8334229Y-25294470D02*
X8343753Y-25284946D01*
X8343753Y-25284946D02*
X8362801Y-25275422D01*
X8362801Y-25275422D02*
X8400896Y-25275422D01*
X8400896Y-25275422D02*
X8419944Y-25284946D01*
X8419944Y-25284946D02*
X8429468Y-25294470D01*
X8429468Y-25294470D02*
X8438991Y-25313517D01*
X8438991Y-25313517D02*
X8438991Y-25323041D01*
X8438991Y-25323041D02*
X8429468Y-25342089D01*
X8429468Y-25342089D02*
X8419944Y-25351612D01*
X8419944Y-25351612D02*
X8400896Y-25361136D01*
X8400896Y-25361136D02*
X8362801Y-25361136D01*
X8362801Y-25361136D02*
X8343753Y-25370660D01*
X8343753Y-25370660D02*
X8334229Y-25380184D01*
X8334229Y-25380184D02*
X8324706Y-25399231D01*
X8324706Y-25399231D02*
X8324706Y-25437327D01*
X8324706Y-25437327D02*
X8334229Y-25456374D01*
X8334229Y-25456374D02*
X8343753Y-25465898D01*
X8343753Y-25465898D02*
X8362801Y-25475422D01*
X8362801Y-25475422D02*
X8400896Y-25475422D01*
X8400896Y-25475422D02*
X8419944Y-25465898D01*
X8419944Y-25465898D02*
X8429468Y-25456374D01*
X8429468Y-25456374D02*
X8438991Y-25437327D01*
X8438991Y-25437327D02*
X8438991Y-25399231D01*
X8438991Y-25399231D02*
X8429468Y-25380184D01*
X8429468Y-25380184D02*
X8419944Y-25370660D01*
X8419944Y-25370660D02*
X8400896Y-25361136D01*
X8677087Y-25475422D02*
X8677087Y-25275422D01*
X8762801Y-25475422D02*
X8762801Y-25370660D01*
X8762801Y-25370660D02*
X8753277Y-25351612D01*
X8753277Y-25351612D02*
X8734230Y-25342089D01*
X8734230Y-25342089D02*
X8705658Y-25342089D01*
X8705658Y-25342089D02*
X8686611Y-25351612D01*
X8686611Y-25351612D02*
X8677087Y-25361136D01*
X8886611Y-25475422D02*
X8867563Y-25465898D01*
X8867563Y-25465898D02*
X8858039Y-25456374D01*
X8858039Y-25456374D02*
X8848515Y-25437327D01*
X8848515Y-25437327D02*
X8848515Y-25380184D01*
X8848515Y-25380184D02*
X8858039Y-25361136D01*
X8858039Y-25361136D02*
X8867563Y-25351612D01*
X8867563Y-25351612D02*
X8886611Y-25342089D01*
X8886611Y-25342089D02*
X8915182Y-25342089D01*
X8915182Y-25342089D02*
X8934230Y-25351612D01*
X8934230Y-25351612D02*
X8943753Y-25361136D01*
X8943753Y-25361136D02*
X8953277Y-25380184D01*
X8953277Y-25380184D02*
X8953277Y-25437327D01*
X8953277Y-25437327D02*
X8943753Y-25456374D01*
X8943753Y-25456374D02*
X8934230Y-25465898D01*
X8934230Y-25465898D02*
X8915182Y-25475422D01*
X8915182Y-25475422D02*
X8886611Y-25475422D01*
X9067563Y-25475422D02*
X9048515Y-25465898D01*
X9048515Y-25465898D02*
X9038992Y-25446850D01*
X9038992Y-25446850D02*
X9038992Y-25275422D01*
X9219944Y-25465898D02*
X9200896Y-25475422D01*
X9200896Y-25475422D02*
X9162801Y-25475422D01*
X9162801Y-25475422D02*
X9143753Y-25465898D01*
X9143753Y-25465898D02*
X9134230Y-25446850D01*
X9134230Y-25446850D02*
X9134230Y-25370660D01*
X9134230Y-25370660D02*
X9143753Y-25351612D01*
X9143753Y-25351612D02*
X9162801Y-25342089D01*
X9162801Y-25342089D02*
X9200896Y-25342089D01*
X9200896Y-25342089D02*
X9219944Y-25351612D01*
X9219944Y-25351612D02*
X9229468Y-25370660D01*
X9229468Y-25370660D02*
X9229468Y-25389708D01*
X9229468Y-25389708D02*
X9134230Y-25408755D01*
X9305658Y-25465898D02*
X9324706Y-25475422D01*
X9324706Y-25475422D02*
X9362801Y-25475422D01*
X9362801Y-25475422D02*
X9381849Y-25465898D01*
X9381849Y-25465898D02*
X9391373Y-25446850D01*
X9391373Y-25446850D02*
X9391373Y-25437327D01*
X9391373Y-25437327D02*
X9381849Y-25418279D01*
X9381849Y-25418279D02*
X9362801Y-25408755D01*
X9362801Y-25408755D02*
X9334230Y-25408755D01*
X9334230Y-25408755D02*
X9315182Y-25399231D01*
X9315182Y-25399231D02*
X9305658Y-25380184D01*
X9305658Y-25380184D02*
X9305658Y-25370660D01*
X9305658Y-25370660D02*
X9315182Y-25351612D01*
X9315182Y-25351612D02*
X9334230Y-25342089D01*
X9334230Y-25342089D02*
X9362801Y-25342089D01*
X9362801Y-25342089D02*
X9381849Y-25351612D01*
X9458039Y-25551612D02*
X9467563Y-25542089D01*
X9467563Y-25542089D02*
X9486611Y-25513517D01*
X9486611Y-25513517D02*
X9496134Y-25494470D01*
X9496134Y-25494470D02*
X9505658Y-25465898D01*
X9505658Y-25465898D02*
X9515182Y-25418279D01*
X9515182Y-25418279D02*
X9515182Y-25380184D01*
X9515182Y-25380184D02*
X9505658Y-25332565D01*
X9505658Y-25332565D02*
X9496134Y-25303993D01*
X9496134Y-25303993D02*
X9486611Y-25284946D01*
X9486611Y-25284946D02*
X9467563Y-25256374D01*
X9467563Y-25256374D02*
X9458039Y-25246850D01*
D13*
X4472500Y-25627938D02*
X4472500Y-25667938D01*
X4452500Y-25647938D02*
X4492500Y-25647938D01*
D12*
X4791372Y-25539422D02*
X4810420Y-25539422D01*
X4810420Y-25539422D02*
X4829467Y-25548946D01*
X4829467Y-25548946D02*
X4838991Y-25558470D01*
X4838991Y-25558470D02*
X4848515Y-25577517D01*
X4848515Y-25577517D02*
X4858039Y-25615612D01*
X4858039Y-25615612D02*
X4858039Y-25663231D01*
X4858039Y-25663231D02*
X4848515Y-25701327D01*
X4848515Y-25701327D02*
X4838991Y-25720374D01*
X4838991Y-25720374D02*
X4829467Y-25729898D01*
X4829467Y-25729898D02*
X4810420Y-25739422D01*
X4810420Y-25739422D02*
X4791372Y-25739422D01*
X4791372Y-25739422D02*
X4772324Y-25729898D01*
X4772324Y-25729898D02*
X4762801Y-25720374D01*
X4762801Y-25720374D02*
X4753277Y-25701327D01*
X4753277Y-25701327D02*
X4743753Y-25663231D01*
X4743753Y-25663231D02*
X4743753Y-25615612D01*
X4743753Y-25615612D02*
X4753277Y-25577517D01*
X4753277Y-25577517D02*
X4762801Y-25558470D01*
X4762801Y-25558470D02*
X4772324Y-25548946D01*
X4772324Y-25548946D02*
X4791372Y-25539422D01*
X4943753Y-25720374D02*
X4953277Y-25729898D01*
X4953277Y-25729898D02*
X4943753Y-25739422D01*
X4943753Y-25739422D02*
X4934229Y-25729898D01*
X4934229Y-25729898D02*
X4943753Y-25720374D01*
X4943753Y-25720374D02*
X4943753Y-25739422D01*
X5124705Y-25606089D02*
X5124705Y-25739422D01*
X5077086Y-25529898D02*
X5029467Y-25672755D01*
X5029467Y-25672755D02*
X5153277Y-25672755D01*
X5267563Y-25539422D02*
X5286610Y-25539422D01*
X5286610Y-25539422D02*
X5305658Y-25548946D01*
X5305658Y-25548946D02*
X5315182Y-25558470D01*
X5315182Y-25558470D02*
X5324705Y-25577517D01*
X5324705Y-25577517D02*
X5334229Y-25615612D01*
X5334229Y-25615612D02*
X5334229Y-25663231D01*
X5334229Y-25663231D02*
X5324705Y-25701327D01*
X5324705Y-25701327D02*
X5315182Y-25720374D01*
X5315182Y-25720374D02*
X5305658Y-25729898D01*
X5305658Y-25729898D02*
X5286610Y-25739422D01*
X5286610Y-25739422D02*
X5267563Y-25739422D01*
X5267563Y-25739422D02*
X5248515Y-25729898D01*
X5248515Y-25729898D02*
X5238991Y-25720374D01*
X5238991Y-25720374D02*
X5229467Y-25701327D01*
X5229467Y-25701327D02*
X5219944Y-25663231D01*
X5219944Y-25663231D02*
X5219944Y-25615612D01*
X5219944Y-25615612D02*
X5229467Y-25577517D01*
X5229467Y-25577517D02*
X5238991Y-25558470D01*
X5238991Y-25558470D02*
X5248515Y-25548946D01*
X5248515Y-25548946D02*
X5267563Y-25539422D01*
X5458039Y-25539422D02*
X5477086Y-25539422D01*
X5477086Y-25539422D02*
X5496134Y-25548946D01*
X5496134Y-25548946D02*
X5505658Y-25558470D01*
X5505658Y-25558470D02*
X5515182Y-25577517D01*
X5515182Y-25577517D02*
X5524705Y-25615612D01*
X5524705Y-25615612D02*
X5524705Y-25663231D01*
X5524705Y-25663231D02*
X5515182Y-25701327D01*
X5515182Y-25701327D02*
X5505658Y-25720374D01*
X5505658Y-25720374D02*
X5496134Y-25729898D01*
X5496134Y-25729898D02*
X5477086Y-25739422D01*
X5477086Y-25739422D02*
X5458039Y-25739422D01*
X5458039Y-25739422D02*
X5438991Y-25729898D01*
X5438991Y-25729898D02*
X5429467Y-25720374D01*
X5429467Y-25720374D02*
X5419944Y-25701327D01*
X5419944Y-25701327D02*
X5410420Y-25663231D01*
X5410420Y-25663231D02*
X5410420Y-25615612D01*
X5410420Y-25615612D02*
X5419944Y-25577517D01*
X5419944Y-25577517D02*
X5429467Y-25558470D01*
X5429467Y-25558470D02*
X5438991Y-25548946D01*
X5438991Y-25548946D02*
X5458039Y-25539422D01*
X5610420Y-25739422D02*
X5610420Y-25606089D01*
X5610420Y-25625136D02*
X5619943Y-25615612D01*
X5619943Y-25615612D02*
X5638991Y-25606089D01*
X5638991Y-25606089D02*
X5667563Y-25606089D01*
X5667563Y-25606089D02*
X5686610Y-25615612D01*
X5686610Y-25615612D02*
X5696134Y-25634660D01*
X5696134Y-25634660D02*
X5696134Y-25739422D01*
X5696134Y-25634660D02*
X5705658Y-25615612D01*
X5705658Y-25615612D02*
X5724705Y-25606089D01*
X5724705Y-25606089D02*
X5753277Y-25606089D01*
X5753277Y-25606089D02*
X5772324Y-25615612D01*
X5772324Y-25615612D02*
X5781848Y-25634660D01*
X5781848Y-25634660D02*
X5781848Y-25739422D01*
X5877086Y-25739422D02*
X5877086Y-25606089D01*
X5877086Y-25625136D02*
X5886610Y-25615612D01*
X5886610Y-25615612D02*
X5905658Y-25606089D01*
X5905658Y-25606089D02*
X5934229Y-25606089D01*
X5934229Y-25606089D02*
X5953277Y-25615612D01*
X5953277Y-25615612D02*
X5962801Y-25634660D01*
X5962801Y-25634660D02*
X5962801Y-25739422D01*
X5962801Y-25634660D02*
X5972324Y-25615612D01*
X5972324Y-25615612D02*
X5991372Y-25606089D01*
X5991372Y-25606089D02*
X6019943Y-25606089D01*
X6019943Y-25606089D02*
X6038991Y-25615612D01*
X6038991Y-25615612D02*
X6048515Y-25634660D01*
X6048515Y-25634660D02*
X6048515Y-25739422D01*
X6438991Y-25529898D02*
X6267563Y-25787041D01*
X6696134Y-25539422D02*
X6715182Y-25539422D01*
X6715182Y-25539422D02*
X6734229Y-25548946D01*
X6734229Y-25548946D02*
X6743753Y-25558470D01*
X6743753Y-25558470D02*
X6753277Y-25577517D01*
X6753277Y-25577517D02*
X6762801Y-25615612D01*
X6762801Y-25615612D02*
X6762801Y-25663231D01*
X6762801Y-25663231D02*
X6753277Y-25701327D01*
X6753277Y-25701327D02*
X6743753Y-25720374D01*
X6743753Y-25720374D02*
X6734229Y-25729898D01*
X6734229Y-25729898D02*
X6715182Y-25739422D01*
X6715182Y-25739422D02*
X6696134Y-25739422D01*
X6696134Y-25739422D02*
X6677086Y-25729898D01*
X6677086Y-25729898D02*
X6667563Y-25720374D01*
X6667563Y-25720374D02*
X6658039Y-25701327D01*
X6658039Y-25701327D02*
X6648515Y-25663231D01*
X6648515Y-25663231D02*
X6648515Y-25615612D01*
X6648515Y-25615612D02*
X6658039Y-25577517D01*
X6658039Y-25577517D02*
X6667563Y-25558470D01*
X6667563Y-25558470D02*
X6677086Y-25548946D01*
X6677086Y-25548946D02*
X6696134Y-25539422D01*
X6848515Y-25720374D02*
X6858039Y-25729898D01*
X6858039Y-25729898D02*
X6848515Y-25739422D01*
X6848515Y-25739422D02*
X6838991Y-25729898D01*
X6838991Y-25729898D02*
X6848515Y-25720374D01*
X6848515Y-25720374D02*
X6848515Y-25739422D01*
X6981848Y-25539422D02*
X7000896Y-25539422D01*
X7000896Y-25539422D02*
X7019944Y-25548946D01*
X7019944Y-25548946D02*
X7029467Y-25558470D01*
X7029467Y-25558470D02*
X7038991Y-25577517D01*
X7038991Y-25577517D02*
X7048515Y-25615612D01*
X7048515Y-25615612D02*
X7048515Y-25663231D01*
X7048515Y-25663231D02*
X7038991Y-25701327D01*
X7038991Y-25701327D02*
X7029467Y-25720374D01*
X7029467Y-25720374D02*
X7019944Y-25729898D01*
X7019944Y-25729898D02*
X7000896Y-25739422D01*
X7000896Y-25739422D02*
X6981848Y-25739422D01*
X6981848Y-25739422D02*
X6962801Y-25729898D01*
X6962801Y-25729898D02*
X6953277Y-25720374D01*
X6953277Y-25720374D02*
X6943753Y-25701327D01*
X6943753Y-25701327D02*
X6934229Y-25663231D01*
X6934229Y-25663231D02*
X6934229Y-25615612D01*
X6934229Y-25615612D02*
X6943753Y-25577517D01*
X6943753Y-25577517D02*
X6953277Y-25558470D01*
X6953277Y-25558470D02*
X6962801Y-25548946D01*
X6962801Y-25548946D02*
X6981848Y-25539422D01*
X7238991Y-25739422D02*
X7124706Y-25739422D01*
X7181848Y-25739422D02*
X7181848Y-25539422D01*
X7181848Y-25539422D02*
X7162801Y-25567993D01*
X7162801Y-25567993D02*
X7143753Y-25587041D01*
X7143753Y-25587041D02*
X7124706Y-25596565D01*
X7419944Y-25539422D02*
X7324706Y-25539422D01*
X7324706Y-25539422D02*
X7315182Y-25634660D01*
X7315182Y-25634660D02*
X7324706Y-25625136D01*
X7324706Y-25625136D02*
X7343753Y-25615612D01*
X7343753Y-25615612D02*
X7391372Y-25615612D01*
X7391372Y-25615612D02*
X7410420Y-25625136D01*
X7410420Y-25625136D02*
X7419944Y-25634660D01*
X7419944Y-25634660D02*
X7429467Y-25653708D01*
X7429467Y-25653708D02*
X7429467Y-25701327D01*
X7429467Y-25701327D02*
X7419944Y-25720374D01*
X7419944Y-25720374D02*
X7410420Y-25729898D01*
X7410420Y-25729898D02*
X7391372Y-25739422D01*
X7391372Y-25739422D02*
X7343753Y-25739422D01*
X7343753Y-25739422D02*
X7324706Y-25729898D01*
X7324706Y-25729898D02*
X7315182Y-25720374D01*
X7496134Y-25539422D02*
X7629467Y-25539422D01*
X7629467Y-25539422D02*
X7543753Y-25739422D01*
X7696134Y-25539422D02*
X7696134Y-25577517D01*
X7772325Y-25539422D02*
X7772325Y-25577517D01*
X8067563Y-25815612D02*
X8058039Y-25806089D01*
X8058039Y-25806089D02*
X8038991Y-25777517D01*
X8038991Y-25777517D02*
X8029468Y-25758470D01*
X8029468Y-25758470D02*
X8019944Y-25729898D01*
X8019944Y-25729898D02*
X8010420Y-25682279D01*
X8010420Y-25682279D02*
X8010420Y-25644184D01*
X8010420Y-25644184D02*
X8019944Y-25596565D01*
X8019944Y-25596565D02*
X8029468Y-25567993D01*
X8029468Y-25567993D02*
X8038991Y-25548946D01*
X8038991Y-25548946D02*
X8058039Y-25520374D01*
X8058039Y-25520374D02*
X8067563Y-25510850D01*
X8134229Y-25558470D02*
X8143753Y-25548946D01*
X8143753Y-25548946D02*
X8162801Y-25539422D01*
X8162801Y-25539422D02*
X8210420Y-25539422D01*
X8210420Y-25539422D02*
X8229468Y-25548946D01*
X8229468Y-25548946D02*
X8238991Y-25558470D01*
X8238991Y-25558470D02*
X8248515Y-25577517D01*
X8248515Y-25577517D02*
X8248515Y-25596565D01*
X8248515Y-25596565D02*
X8238991Y-25625136D01*
X8238991Y-25625136D02*
X8124706Y-25739422D01*
X8124706Y-25739422D02*
X8248515Y-25739422D01*
X8419944Y-25606089D02*
X8419944Y-25739422D01*
X8372325Y-25529898D02*
X8324706Y-25672755D01*
X8324706Y-25672755D02*
X8448515Y-25672755D01*
X8677087Y-25739422D02*
X8677087Y-25539422D01*
X8762801Y-25739422D02*
X8762801Y-25634660D01*
X8762801Y-25634660D02*
X8753277Y-25615612D01*
X8753277Y-25615612D02*
X8734230Y-25606089D01*
X8734230Y-25606089D02*
X8705658Y-25606089D01*
X8705658Y-25606089D02*
X8686611Y-25615612D01*
X8686611Y-25615612D02*
X8677087Y-25625136D01*
X8886611Y-25739422D02*
X8867563Y-25729898D01*
X8867563Y-25729898D02*
X8858039Y-25720374D01*
X8858039Y-25720374D02*
X8848515Y-25701327D01*
X8848515Y-25701327D02*
X8848515Y-25644184D01*
X8848515Y-25644184D02*
X8858039Y-25625136D01*
X8858039Y-25625136D02*
X8867563Y-25615612D01*
X8867563Y-25615612D02*
X8886611Y-25606089D01*
X8886611Y-25606089D02*
X8915182Y-25606089D01*
X8915182Y-25606089D02*
X8934230Y-25615612D01*
X8934230Y-25615612D02*
X8943753Y-25625136D01*
X8943753Y-25625136D02*
X8953277Y-25644184D01*
X8953277Y-25644184D02*
X8953277Y-25701327D01*
X8953277Y-25701327D02*
X8943753Y-25720374D01*
X8943753Y-25720374D02*
X8934230Y-25729898D01*
X8934230Y-25729898D02*
X8915182Y-25739422D01*
X8915182Y-25739422D02*
X8886611Y-25739422D01*
X9067563Y-25739422D02*
X9048515Y-25729898D01*
X9048515Y-25729898D02*
X9038992Y-25710850D01*
X9038992Y-25710850D02*
X9038992Y-25539422D01*
X9219944Y-25729898D02*
X9200896Y-25739422D01*
X9200896Y-25739422D02*
X9162801Y-25739422D01*
X9162801Y-25739422D02*
X9143753Y-25729898D01*
X9143753Y-25729898D02*
X9134230Y-25710850D01*
X9134230Y-25710850D02*
X9134230Y-25634660D01*
X9134230Y-25634660D02*
X9143753Y-25615612D01*
X9143753Y-25615612D02*
X9162801Y-25606089D01*
X9162801Y-25606089D02*
X9200896Y-25606089D01*
X9200896Y-25606089D02*
X9219944Y-25615612D01*
X9219944Y-25615612D02*
X9229468Y-25634660D01*
X9229468Y-25634660D02*
X9229468Y-25653708D01*
X9229468Y-25653708D02*
X9134230Y-25672755D01*
X9305658Y-25729898D02*
X9324706Y-25739422D01*
X9324706Y-25739422D02*
X9362801Y-25739422D01*
X9362801Y-25739422D02*
X9381849Y-25729898D01*
X9381849Y-25729898D02*
X9391373Y-25710850D01*
X9391373Y-25710850D02*
X9391373Y-25701327D01*
X9391373Y-25701327D02*
X9381849Y-25682279D01*
X9381849Y-25682279D02*
X9362801Y-25672755D01*
X9362801Y-25672755D02*
X9334230Y-25672755D01*
X9334230Y-25672755D02*
X9315182Y-25663231D01*
X9315182Y-25663231D02*
X9305658Y-25644184D01*
X9305658Y-25644184D02*
X9305658Y-25634660D01*
X9305658Y-25634660D02*
X9315182Y-25615612D01*
X9315182Y-25615612D02*
X9334230Y-25606089D01*
X9334230Y-25606089D02*
X9362801Y-25606089D01*
X9362801Y-25606089D02*
X9381849Y-25615612D01*
X9458039Y-25815612D02*
X9467563Y-25806089D01*
X9467563Y-25806089D02*
X9486611Y-25777517D01*
X9486611Y-25777517D02*
X9496134Y-25758470D01*
X9496134Y-25758470D02*
X9505658Y-25729898D01*
X9505658Y-25729898D02*
X9515182Y-25682279D01*
X9515182Y-25682279D02*
X9515182Y-25644184D01*
X9515182Y-25644184D02*
X9505658Y-25596565D01*
X9505658Y-25596565D02*
X9496134Y-25567993D01*
X9496134Y-25567993D02*
X9486611Y-25548946D01*
X9486611Y-25548946D02*
X9467563Y-25520374D01*
X9467563Y-25520374D02*
X9458039Y-25510850D01*
D13*
X4481517Y-25938455D02*
X4481517Y-25885421D01*
X4428483Y-25885421D01*
X4428483Y-25938455D01*
X4481517Y-25938455D01*
D12*
X4791372Y-25803422D02*
X4810420Y-25803422D01*
X4810420Y-25803422D02*
X4829467Y-25812946D01*
X4829467Y-25812946D02*
X4838991Y-25822470D01*
X4838991Y-25822470D02*
X4848515Y-25841517D01*
X4848515Y-25841517D02*
X4858039Y-25879612D01*
X4858039Y-25879612D02*
X4858039Y-25927231D01*
X4858039Y-25927231D02*
X4848515Y-25965327D01*
X4848515Y-25965327D02*
X4838991Y-25984374D01*
X4838991Y-25984374D02*
X4829467Y-25993898D01*
X4829467Y-25993898D02*
X4810420Y-26003422D01*
X4810420Y-26003422D02*
X4791372Y-26003422D01*
X4791372Y-26003422D02*
X4772324Y-25993898D01*
X4772324Y-25993898D02*
X4762801Y-25984374D01*
X4762801Y-25984374D02*
X4753277Y-25965327D01*
X4753277Y-25965327D02*
X4743753Y-25927231D01*
X4743753Y-25927231D02*
X4743753Y-25879612D01*
X4743753Y-25879612D02*
X4753277Y-25841517D01*
X4753277Y-25841517D02*
X4762801Y-25822470D01*
X4762801Y-25822470D02*
X4772324Y-25812946D01*
X4772324Y-25812946D02*
X4791372Y-25803422D01*
X4943753Y-25984374D02*
X4953277Y-25993898D01*
X4953277Y-25993898D02*
X4943753Y-26003422D01*
X4943753Y-26003422D02*
X4934229Y-25993898D01*
X4934229Y-25993898D02*
X4943753Y-25984374D01*
X4943753Y-25984374D02*
X4943753Y-26003422D01*
X5019944Y-25803422D02*
X5153277Y-25803422D01*
X5153277Y-25803422D02*
X5067563Y-26003422D01*
X5324705Y-25803422D02*
X5229467Y-25803422D01*
X5229467Y-25803422D02*
X5219944Y-25898660D01*
X5219944Y-25898660D02*
X5229467Y-25889136D01*
X5229467Y-25889136D02*
X5248515Y-25879612D01*
X5248515Y-25879612D02*
X5296134Y-25879612D01*
X5296134Y-25879612D02*
X5315182Y-25889136D01*
X5315182Y-25889136D02*
X5324705Y-25898660D01*
X5324705Y-25898660D02*
X5334229Y-25917708D01*
X5334229Y-25917708D02*
X5334229Y-25965327D01*
X5334229Y-25965327D02*
X5324705Y-25984374D01*
X5324705Y-25984374D02*
X5315182Y-25993898D01*
X5315182Y-25993898D02*
X5296134Y-26003422D01*
X5296134Y-26003422D02*
X5248515Y-26003422D01*
X5248515Y-26003422D02*
X5229467Y-25993898D01*
X5229467Y-25993898D02*
X5219944Y-25984374D01*
X5458039Y-25803422D02*
X5477086Y-25803422D01*
X5477086Y-25803422D02*
X5496134Y-25812946D01*
X5496134Y-25812946D02*
X5505658Y-25822470D01*
X5505658Y-25822470D02*
X5515182Y-25841517D01*
X5515182Y-25841517D02*
X5524705Y-25879612D01*
X5524705Y-25879612D02*
X5524705Y-25927231D01*
X5524705Y-25927231D02*
X5515182Y-25965327D01*
X5515182Y-25965327D02*
X5505658Y-25984374D01*
X5505658Y-25984374D02*
X5496134Y-25993898D01*
X5496134Y-25993898D02*
X5477086Y-26003422D01*
X5477086Y-26003422D02*
X5458039Y-26003422D01*
X5458039Y-26003422D02*
X5438991Y-25993898D01*
X5438991Y-25993898D02*
X5429467Y-25984374D01*
X5429467Y-25984374D02*
X5419944Y-25965327D01*
X5419944Y-25965327D02*
X5410420Y-25927231D01*
X5410420Y-25927231D02*
X5410420Y-25879612D01*
X5410420Y-25879612D02*
X5419944Y-25841517D01*
X5419944Y-25841517D02*
X5429467Y-25822470D01*
X5429467Y-25822470D02*
X5438991Y-25812946D01*
X5438991Y-25812946D02*
X5458039Y-25803422D01*
X5610420Y-26003422D02*
X5610420Y-25870089D01*
X5610420Y-25889136D02*
X5619943Y-25879612D01*
X5619943Y-25879612D02*
X5638991Y-25870089D01*
X5638991Y-25870089D02*
X5667563Y-25870089D01*
X5667563Y-25870089D02*
X5686610Y-25879612D01*
X5686610Y-25879612D02*
X5696134Y-25898660D01*
X5696134Y-25898660D02*
X5696134Y-26003422D01*
X5696134Y-25898660D02*
X5705658Y-25879612D01*
X5705658Y-25879612D02*
X5724705Y-25870089D01*
X5724705Y-25870089D02*
X5753277Y-25870089D01*
X5753277Y-25870089D02*
X5772324Y-25879612D01*
X5772324Y-25879612D02*
X5781848Y-25898660D01*
X5781848Y-25898660D02*
X5781848Y-26003422D01*
X5877086Y-26003422D02*
X5877086Y-25870089D01*
X5877086Y-25889136D02*
X5886610Y-25879612D01*
X5886610Y-25879612D02*
X5905658Y-25870089D01*
X5905658Y-25870089D02*
X5934229Y-25870089D01*
X5934229Y-25870089D02*
X5953277Y-25879612D01*
X5953277Y-25879612D02*
X5962801Y-25898660D01*
X5962801Y-25898660D02*
X5962801Y-26003422D01*
X5962801Y-25898660D02*
X5972324Y-25879612D01*
X5972324Y-25879612D02*
X5991372Y-25870089D01*
X5991372Y-25870089D02*
X6019943Y-25870089D01*
X6019943Y-25870089D02*
X6038991Y-25879612D01*
X6038991Y-25879612D02*
X6048515Y-25898660D01*
X6048515Y-25898660D02*
X6048515Y-26003422D01*
X6438991Y-25793898D02*
X6267563Y-26051041D01*
X6696134Y-25803422D02*
X6715182Y-25803422D01*
X6715182Y-25803422D02*
X6734229Y-25812946D01*
X6734229Y-25812946D02*
X6743753Y-25822470D01*
X6743753Y-25822470D02*
X6753277Y-25841517D01*
X6753277Y-25841517D02*
X6762801Y-25879612D01*
X6762801Y-25879612D02*
X6762801Y-25927231D01*
X6762801Y-25927231D02*
X6753277Y-25965327D01*
X6753277Y-25965327D02*
X6743753Y-25984374D01*
X6743753Y-25984374D02*
X6734229Y-25993898D01*
X6734229Y-25993898D02*
X6715182Y-26003422D01*
X6715182Y-26003422D02*
X6696134Y-26003422D01*
X6696134Y-26003422D02*
X6677086Y-25993898D01*
X6677086Y-25993898D02*
X6667563Y-25984374D01*
X6667563Y-25984374D02*
X6658039Y-25965327D01*
X6658039Y-25965327D02*
X6648515Y-25927231D01*
X6648515Y-25927231D02*
X6648515Y-25879612D01*
X6648515Y-25879612D02*
X6658039Y-25841517D01*
X6658039Y-25841517D02*
X6667563Y-25822470D01*
X6667563Y-25822470D02*
X6677086Y-25812946D01*
X6677086Y-25812946D02*
X6696134Y-25803422D01*
X6848515Y-25984374D02*
X6858039Y-25993898D01*
X6858039Y-25993898D02*
X6848515Y-26003422D01*
X6848515Y-26003422D02*
X6838991Y-25993898D01*
X6838991Y-25993898D02*
X6848515Y-25984374D01*
X6848515Y-25984374D02*
X6848515Y-26003422D01*
X6981848Y-25803422D02*
X7000896Y-25803422D01*
X7000896Y-25803422D02*
X7019944Y-25812946D01*
X7019944Y-25812946D02*
X7029467Y-25822470D01*
X7029467Y-25822470D02*
X7038991Y-25841517D01*
X7038991Y-25841517D02*
X7048515Y-25879612D01*
X7048515Y-25879612D02*
X7048515Y-25927231D01*
X7048515Y-25927231D02*
X7038991Y-25965327D01*
X7038991Y-25965327D02*
X7029467Y-25984374D01*
X7029467Y-25984374D02*
X7019944Y-25993898D01*
X7019944Y-25993898D02*
X7000896Y-26003422D01*
X7000896Y-26003422D02*
X6981848Y-26003422D01*
X6981848Y-26003422D02*
X6962801Y-25993898D01*
X6962801Y-25993898D02*
X6953277Y-25984374D01*
X6953277Y-25984374D02*
X6943753Y-25965327D01*
X6943753Y-25965327D02*
X6934229Y-25927231D01*
X6934229Y-25927231D02*
X6934229Y-25879612D01*
X6934229Y-25879612D02*
X6943753Y-25841517D01*
X6943753Y-25841517D02*
X6953277Y-25822470D01*
X6953277Y-25822470D02*
X6962801Y-25812946D01*
X6962801Y-25812946D02*
X6981848Y-25803422D01*
X7124706Y-25822470D02*
X7134229Y-25812946D01*
X7134229Y-25812946D02*
X7153277Y-25803422D01*
X7153277Y-25803422D02*
X7200896Y-25803422D01*
X7200896Y-25803422D02*
X7219944Y-25812946D01*
X7219944Y-25812946D02*
X7229467Y-25822470D01*
X7229467Y-25822470D02*
X7238991Y-25841517D01*
X7238991Y-25841517D02*
X7238991Y-25860565D01*
X7238991Y-25860565D02*
X7229467Y-25889136D01*
X7229467Y-25889136D02*
X7115182Y-26003422D01*
X7115182Y-26003422D02*
X7238991Y-26003422D01*
X7334229Y-26003422D02*
X7372325Y-26003422D01*
X7372325Y-26003422D02*
X7391372Y-25993898D01*
X7391372Y-25993898D02*
X7400896Y-25984374D01*
X7400896Y-25984374D02*
X7419944Y-25955803D01*
X7419944Y-25955803D02*
X7429467Y-25917708D01*
X7429467Y-25917708D02*
X7429467Y-25841517D01*
X7429467Y-25841517D02*
X7419944Y-25822470D01*
X7419944Y-25822470D02*
X7410420Y-25812946D01*
X7410420Y-25812946D02*
X7391372Y-25803422D01*
X7391372Y-25803422D02*
X7353277Y-25803422D01*
X7353277Y-25803422D02*
X7334229Y-25812946D01*
X7334229Y-25812946D02*
X7324706Y-25822470D01*
X7324706Y-25822470D02*
X7315182Y-25841517D01*
X7315182Y-25841517D02*
X7315182Y-25889136D01*
X7315182Y-25889136D02*
X7324706Y-25908184D01*
X7324706Y-25908184D02*
X7334229Y-25917708D01*
X7334229Y-25917708D02*
X7353277Y-25927231D01*
X7353277Y-25927231D02*
X7391372Y-25927231D01*
X7391372Y-25927231D02*
X7410420Y-25917708D01*
X7410420Y-25917708D02*
X7419944Y-25908184D01*
X7419944Y-25908184D02*
X7429467Y-25889136D01*
X7610420Y-25803422D02*
X7515182Y-25803422D01*
X7515182Y-25803422D02*
X7505658Y-25898660D01*
X7505658Y-25898660D02*
X7515182Y-25889136D01*
X7515182Y-25889136D02*
X7534229Y-25879612D01*
X7534229Y-25879612D02*
X7581848Y-25879612D01*
X7581848Y-25879612D02*
X7600896Y-25889136D01*
X7600896Y-25889136D02*
X7610420Y-25898660D01*
X7610420Y-25898660D02*
X7619944Y-25917708D01*
X7619944Y-25917708D02*
X7619944Y-25965327D01*
X7619944Y-25965327D02*
X7610420Y-25984374D01*
X7610420Y-25984374D02*
X7600896Y-25993898D01*
X7600896Y-25993898D02*
X7581848Y-26003422D01*
X7581848Y-26003422D02*
X7534229Y-26003422D01*
X7534229Y-26003422D02*
X7515182Y-25993898D01*
X7515182Y-25993898D02*
X7505658Y-25984374D01*
X7696134Y-25803422D02*
X7696134Y-25841517D01*
X7772325Y-25803422D02*
X7772325Y-25841517D01*
X8067563Y-26079612D02*
X8058039Y-26070089D01*
X8058039Y-26070089D02*
X8038991Y-26041517D01*
X8038991Y-26041517D02*
X8029468Y-26022470D01*
X8029468Y-26022470D02*
X8019944Y-25993898D01*
X8019944Y-25993898D02*
X8010420Y-25946279D01*
X8010420Y-25946279D02*
X8010420Y-25908184D01*
X8010420Y-25908184D02*
X8019944Y-25860565D01*
X8019944Y-25860565D02*
X8029468Y-25831993D01*
X8029468Y-25831993D02*
X8038991Y-25812946D01*
X8038991Y-25812946D02*
X8058039Y-25784374D01*
X8058039Y-25784374D02*
X8067563Y-25774850D01*
X8134229Y-25822470D02*
X8143753Y-25812946D01*
X8143753Y-25812946D02*
X8162801Y-25803422D01*
X8162801Y-25803422D02*
X8210420Y-25803422D01*
X8210420Y-25803422D02*
X8229468Y-25812946D01*
X8229468Y-25812946D02*
X8238991Y-25822470D01*
X8238991Y-25822470D02*
X8248515Y-25841517D01*
X8248515Y-25841517D02*
X8248515Y-25860565D01*
X8248515Y-25860565D02*
X8238991Y-25889136D01*
X8238991Y-25889136D02*
X8124706Y-26003422D01*
X8124706Y-26003422D02*
X8248515Y-26003422D01*
X8486611Y-26003422D02*
X8486611Y-25803422D01*
X8572325Y-26003422D02*
X8572325Y-25898660D01*
X8572325Y-25898660D02*
X8562801Y-25879612D01*
X8562801Y-25879612D02*
X8543753Y-25870089D01*
X8543753Y-25870089D02*
X8515182Y-25870089D01*
X8515182Y-25870089D02*
X8496134Y-25879612D01*
X8496134Y-25879612D02*
X8486611Y-25889136D01*
X8696134Y-26003422D02*
X8677087Y-25993898D01*
X8677087Y-25993898D02*
X8667563Y-25984374D01*
X8667563Y-25984374D02*
X8658039Y-25965327D01*
X8658039Y-25965327D02*
X8658039Y-25908184D01*
X8658039Y-25908184D02*
X8667563Y-25889136D01*
X8667563Y-25889136D02*
X8677087Y-25879612D01*
X8677087Y-25879612D02*
X8696134Y-25870089D01*
X8696134Y-25870089D02*
X8724706Y-25870089D01*
X8724706Y-25870089D02*
X8743753Y-25879612D01*
X8743753Y-25879612D02*
X8753277Y-25889136D01*
X8753277Y-25889136D02*
X8762801Y-25908184D01*
X8762801Y-25908184D02*
X8762801Y-25965327D01*
X8762801Y-25965327D02*
X8753277Y-25984374D01*
X8753277Y-25984374D02*
X8743753Y-25993898D01*
X8743753Y-25993898D02*
X8724706Y-26003422D01*
X8724706Y-26003422D02*
X8696134Y-26003422D01*
X8877087Y-26003422D02*
X8858039Y-25993898D01*
X8858039Y-25993898D02*
X8848515Y-25974850D01*
X8848515Y-25974850D02*
X8848515Y-25803422D01*
X9029468Y-25993898D02*
X9010420Y-26003422D01*
X9010420Y-26003422D02*
X8972325Y-26003422D01*
X8972325Y-26003422D02*
X8953277Y-25993898D01*
X8953277Y-25993898D02*
X8943753Y-25974850D01*
X8943753Y-25974850D02*
X8943753Y-25898660D01*
X8943753Y-25898660D02*
X8953277Y-25879612D01*
X8953277Y-25879612D02*
X8972325Y-25870089D01*
X8972325Y-25870089D02*
X9010420Y-25870089D01*
X9010420Y-25870089D02*
X9029468Y-25879612D01*
X9029468Y-25879612D02*
X9038992Y-25898660D01*
X9038992Y-25898660D02*
X9038992Y-25917708D01*
X9038992Y-25917708D02*
X8943753Y-25936755D01*
X9115182Y-25993898D02*
X9134230Y-26003422D01*
X9134230Y-26003422D02*
X9172325Y-26003422D01*
X9172325Y-26003422D02*
X9191373Y-25993898D01*
X9191373Y-25993898D02*
X9200896Y-25974850D01*
X9200896Y-25974850D02*
X9200896Y-25965327D01*
X9200896Y-25965327D02*
X9191373Y-25946279D01*
X9191373Y-25946279D02*
X9172325Y-25936755D01*
X9172325Y-25936755D02*
X9143753Y-25936755D01*
X9143753Y-25936755D02*
X9124706Y-25927231D01*
X9124706Y-25927231D02*
X9115182Y-25908184D01*
X9115182Y-25908184D02*
X9115182Y-25898660D01*
X9115182Y-25898660D02*
X9124706Y-25879612D01*
X9124706Y-25879612D02*
X9143753Y-25870089D01*
X9143753Y-25870089D02*
X9172325Y-25870089D01*
X9172325Y-25870089D02*
X9191373Y-25879612D01*
X9267563Y-26079612D02*
X9277087Y-26070089D01*
X9277087Y-26070089D02*
X9296134Y-26041517D01*
X9296134Y-26041517D02*
X9305658Y-26022470D01*
X9305658Y-26022470D02*
X9315182Y-25993898D01*
X9315182Y-25993898D02*
X9324706Y-25946279D01*
X9324706Y-25946279D02*
X9324706Y-25908184D01*
X9324706Y-25908184D02*
X9315182Y-25860565D01*
X9315182Y-25860565D02*
X9305658Y-25831993D01*
X9305658Y-25831993D02*
X9296134Y-25812946D01*
X9296134Y-25812946D02*
X9277087Y-25784374D01*
X9277087Y-25784374D02*
X9267563Y-25774850D01*
D13*
X4442500Y-26225938D02*
X4492500Y-26175938D01*
X4442500Y-26125938D01*
X4392500Y-26175938D01*
X4442500Y-26225938D01*
D12*
X4858039Y-26267422D02*
X4743753Y-26267422D01*
X4800896Y-26267422D02*
X4800896Y-26067422D01*
X4800896Y-26067422D02*
X4781848Y-26095993D01*
X4781848Y-26095993D02*
X4762801Y-26115041D01*
X4762801Y-26115041D02*
X4743753Y-26124565D01*
X4943753Y-26248374D02*
X4953277Y-26257898D01*
X4953277Y-26257898D02*
X4943753Y-26267422D01*
X4943753Y-26267422D02*
X4934229Y-26257898D01*
X4934229Y-26257898D02*
X4943753Y-26248374D01*
X4943753Y-26248374D02*
X4943753Y-26267422D01*
X5077086Y-26067422D02*
X5096134Y-26067422D01*
X5096134Y-26067422D02*
X5115182Y-26076946D01*
X5115182Y-26076946D02*
X5124705Y-26086470D01*
X5124705Y-26086470D02*
X5134229Y-26105517D01*
X5134229Y-26105517D02*
X5143753Y-26143612D01*
X5143753Y-26143612D02*
X5143753Y-26191231D01*
X5143753Y-26191231D02*
X5134229Y-26229327D01*
X5134229Y-26229327D02*
X5124705Y-26248374D01*
X5124705Y-26248374D02*
X5115182Y-26257898D01*
X5115182Y-26257898D02*
X5096134Y-26267422D01*
X5096134Y-26267422D02*
X5077086Y-26267422D01*
X5077086Y-26267422D02*
X5058039Y-26257898D01*
X5058039Y-26257898D02*
X5048515Y-26248374D01*
X5048515Y-26248374D02*
X5038991Y-26229327D01*
X5038991Y-26229327D02*
X5029467Y-26191231D01*
X5029467Y-26191231D02*
X5029467Y-26143612D01*
X5029467Y-26143612D02*
X5038991Y-26105517D01*
X5038991Y-26105517D02*
X5048515Y-26086470D01*
X5048515Y-26086470D02*
X5058039Y-26076946D01*
X5058039Y-26076946D02*
X5077086Y-26067422D01*
X5267563Y-26067422D02*
X5286610Y-26067422D01*
X5286610Y-26067422D02*
X5305658Y-26076946D01*
X5305658Y-26076946D02*
X5315182Y-26086470D01*
X5315182Y-26086470D02*
X5324705Y-26105517D01*
X5324705Y-26105517D02*
X5334229Y-26143612D01*
X5334229Y-26143612D02*
X5334229Y-26191231D01*
X5334229Y-26191231D02*
X5324705Y-26229327D01*
X5324705Y-26229327D02*
X5315182Y-26248374D01*
X5315182Y-26248374D02*
X5305658Y-26257898D01*
X5305658Y-26257898D02*
X5286610Y-26267422D01*
X5286610Y-26267422D02*
X5267563Y-26267422D01*
X5267563Y-26267422D02*
X5248515Y-26257898D01*
X5248515Y-26257898D02*
X5238991Y-26248374D01*
X5238991Y-26248374D02*
X5229467Y-26229327D01*
X5229467Y-26229327D02*
X5219944Y-26191231D01*
X5219944Y-26191231D02*
X5219944Y-26143612D01*
X5219944Y-26143612D02*
X5229467Y-26105517D01*
X5229467Y-26105517D02*
X5238991Y-26086470D01*
X5238991Y-26086470D02*
X5248515Y-26076946D01*
X5248515Y-26076946D02*
X5267563Y-26067422D01*
X5458039Y-26067422D02*
X5477086Y-26067422D01*
X5477086Y-26067422D02*
X5496134Y-26076946D01*
X5496134Y-26076946D02*
X5505658Y-26086470D01*
X5505658Y-26086470D02*
X5515182Y-26105517D01*
X5515182Y-26105517D02*
X5524705Y-26143612D01*
X5524705Y-26143612D02*
X5524705Y-26191231D01*
X5524705Y-26191231D02*
X5515182Y-26229327D01*
X5515182Y-26229327D02*
X5505658Y-26248374D01*
X5505658Y-26248374D02*
X5496134Y-26257898D01*
X5496134Y-26257898D02*
X5477086Y-26267422D01*
X5477086Y-26267422D02*
X5458039Y-26267422D01*
X5458039Y-26267422D02*
X5438991Y-26257898D01*
X5438991Y-26257898D02*
X5429467Y-26248374D01*
X5429467Y-26248374D02*
X5419944Y-26229327D01*
X5419944Y-26229327D02*
X5410420Y-26191231D01*
X5410420Y-26191231D02*
X5410420Y-26143612D01*
X5410420Y-26143612D02*
X5419944Y-26105517D01*
X5419944Y-26105517D02*
X5429467Y-26086470D01*
X5429467Y-26086470D02*
X5438991Y-26076946D01*
X5438991Y-26076946D02*
X5458039Y-26067422D01*
X5610420Y-26267422D02*
X5610420Y-26134089D01*
X5610420Y-26153136D02*
X5619943Y-26143612D01*
X5619943Y-26143612D02*
X5638991Y-26134089D01*
X5638991Y-26134089D02*
X5667563Y-26134089D01*
X5667563Y-26134089D02*
X5686610Y-26143612D01*
X5686610Y-26143612D02*
X5696134Y-26162660D01*
X5696134Y-26162660D02*
X5696134Y-26267422D01*
X5696134Y-26162660D02*
X5705658Y-26143612D01*
X5705658Y-26143612D02*
X5724705Y-26134089D01*
X5724705Y-26134089D02*
X5753277Y-26134089D01*
X5753277Y-26134089D02*
X5772324Y-26143612D01*
X5772324Y-26143612D02*
X5781848Y-26162660D01*
X5781848Y-26162660D02*
X5781848Y-26267422D01*
X5877086Y-26267422D02*
X5877086Y-26134089D01*
X5877086Y-26153136D02*
X5886610Y-26143612D01*
X5886610Y-26143612D02*
X5905658Y-26134089D01*
X5905658Y-26134089D02*
X5934229Y-26134089D01*
X5934229Y-26134089D02*
X5953277Y-26143612D01*
X5953277Y-26143612D02*
X5962801Y-26162660D01*
X5962801Y-26162660D02*
X5962801Y-26267422D01*
X5962801Y-26162660D02*
X5972324Y-26143612D01*
X5972324Y-26143612D02*
X5991372Y-26134089D01*
X5991372Y-26134089D02*
X6019943Y-26134089D01*
X6019943Y-26134089D02*
X6038991Y-26143612D01*
X6038991Y-26143612D02*
X6048515Y-26162660D01*
X6048515Y-26162660D02*
X6048515Y-26267422D01*
X6438991Y-26057898D02*
X6267563Y-26315041D01*
X6696134Y-26067422D02*
X6715182Y-26067422D01*
X6715182Y-26067422D02*
X6734229Y-26076946D01*
X6734229Y-26076946D02*
X6743753Y-26086470D01*
X6743753Y-26086470D02*
X6753277Y-26105517D01*
X6753277Y-26105517D02*
X6762801Y-26143612D01*
X6762801Y-26143612D02*
X6762801Y-26191231D01*
X6762801Y-26191231D02*
X6753277Y-26229327D01*
X6753277Y-26229327D02*
X6743753Y-26248374D01*
X6743753Y-26248374D02*
X6734229Y-26257898D01*
X6734229Y-26257898D02*
X6715182Y-26267422D01*
X6715182Y-26267422D02*
X6696134Y-26267422D01*
X6696134Y-26267422D02*
X6677086Y-26257898D01*
X6677086Y-26257898D02*
X6667563Y-26248374D01*
X6667563Y-26248374D02*
X6658039Y-26229327D01*
X6658039Y-26229327D02*
X6648515Y-26191231D01*
X6648515Y-26191231D02*
X6648515Y-26143612D01*
X6648515Y-26143612D02*
X6658039Y-26105517D01*
X6658039Y-26105517D02*
X6667563Y-26086470D01*
X6667563Y-26086470D02*
X6677086Y-26076946D01*
X6677086Y-26076946D02*
X6696134Y-26067422D01*
X6848515Y-26248374D02*
X6858039Y-26257898D01*
X6858039Y-26257898D02*
X6848515Y-26267422D01*
X6848515Y-26267422D02*
X6838991Y-26257898D01*
X6838991Y-26257898D02*
X6848515Y-26248374D01*
X6848515Y-26248374D02*
X6848515Y-26267422D01*
X6981848Y-26067422D02*
X7000896Y-26067422D01*
X7000896Y-26067422D02*
X7019944Y-26076946D01*
X7019944Y-26076946D02*
X7029467Y-26086470D01*
X7029467Y-26086470D02*
X7038991Y-26105517D01*
X7038991Y-26105517D02*
X7048515Y-26143612D01*
X7048515Y-26143612D02*
X7048515Y-26191231D01*
X7048515Y-26191231D02*
X7038991Y-26229327D01*
X7038991Y-26229327D02*
X7029467Y-26248374D01*
X7029467Y-26248374D02*
X7019944Y-26257898D01*
X7019944Y-26257898D02*
X7000896Y-26267422D01*
X7000896Y-26267422D02*
X6981848Y-26267422D01*
X6981848Y-26267422D02*
X6962801Y-26257898D01*
X6962801Y-26257898D02*
X6953277Y-26248374D01*
X6953277Y-26248374D02*
X6943753Y-26229327D01*
X6943753Y-26229327D02*
X6934229Y-26191231D01*
X6934229Y-26191231D02*
X6934229Y-26143612D01*
X6934229Y-26143612D02*
X6943753Y-26105517D01*
X6943753Y-26105517D02*
X6953277Y-26086470D01*
X6953277Y-26086470D02*
X6962801Y-26076946D01*
X6962801Y-26076946D02*
X6981848Y-26067422D01*
X7115182Y-26067422D02*
X7238991Y-26067422D01*
X7238991Y-26067422D02*
X7172325Y-26143612D01*
X7172325Y-26143612D02*
X7200896Y-26143612D01*
X7200896Y-26143612D02*
X7219944Y-26153136D01*
X7219944Y-26153136D02*
X7229467Y-26162660D01*
X7229467Y-26162660D02*
X7238991Y-26181708D01*
X7238991Y-26181708D02*
X7238991Y-26229327D01*
X7238991Y-26229327D02*
X7229467Y-26248374D01*
X7229467Y-26248374D02*
X7219944Y-26257898D01*
X7219944Y-26257898D02*
X7200896Y-26267422D01*
X7200896Y-26267422D02*
X7143753Y-26267422D01*
X7143753Y-26267422D02*
X7124706Y-26257898D01*
X7124706Y-26257898D02*
X7115182Y-26248374D01*
X7334229Y-26267422D02*
X7372325Y-26267422D01*
X7372325Y-26267422D02*
X7391372Y-26257898D01*
X7391372Y-26257898D02*
X7400896Y-26248374D01*
X7400896Y-26248374D02*
X7419944Y-26219803D01*
X7419944Y-26219803D02*
X7429467Y-26181708D01*
X7429467Y-26181708D02*
X7429467Y-26105517D01*
X7429467Y-26105517D02*
X7419944Y-26086470D01*
X7419944Y-26086470D02*
X7410420Y-26076946D01*
X7410420Y-26076946D02*
X7391372Y-26067422D01*
X7391372Y-26067422D02*
X7353277Y-26067422D01*
X7353277Y-26067422D02*
X7334229Y-26076946D01*
X7334229Y-26076946D02*
X7324706Y-26086470D01*
X7324706Y-26086470D02*
X7315182Y-26105517D01*
X7315182Y-26105517D02*
X7315182Y-26153136D01*
X7315182Y-26153136D02*
X7324706Y-26172184D01*
X7324706Y-26172184D02*
X7334229Y-26181708D01*
X7334229Y-26181708D02*
X7353277Y-26191231D01*
X7353277Y-26191231D02*
X7391372Y-26191231D01*
X7391372Y-26191231D02*
X7410420Y-26181708D01*
X7410420Y-26181708D02*
X7419944Y-26172184D01*
X7419944Y-26172184D02*
X7429467Y-26153136D01*
X7600896Y-26134089D02*
X7600896Y-26267422D01*
X7553277Y-26057898D02*
X7505658Y-26200755D01*
X7505658Y-26200755D02*
X7629467Y-26200755D01*
X7696134Y-26067422D02*
X7696134Y-26105517D01*
X7772325Y-26067422D02*
X7772325Y-26105517D01*
X8067563Y-26343612D02*
X8058039Y-26334089D01*
X8058039Y-26334089D02*
X8038991Y-26305517D01*
X8038991Y-26305517D02*
X8029468Y-26286470D01*
X8029468Y-26286470D02*
X8019944Y-26257898D01*
X8019944Y-26257898D02*
X8010420Y-26210279D01*
X8010420Y-26210279D02*
X8010420Y-26172184D01*
X8010420Y-26172184D02*
X8019944Y-26124565D01*
X8019944Y-26124565D02*
X8029468Y-26095993D01*
X8029468Y-26095993D02*
X8038991Y-26076946D01*
X8038991Y-26076946D02*
X8058039Y-26048374D01*
X8058039Y-26048374D02*
X8067563Y-26038850D01*
X8134229Y-26086470D02*
X8143753Y-26076946D01*
X8143753Y-26076946D02*
X8162801Y-26067422D01*
X8162801Y-26067422D02*
X8210420Y-26067422D01*
X8210420Y-26067422D02*
X8229468Y-26076946D01*
X8229468Y-26076946D02*
X8238991Y-26086470D01*
X8238991Y-26086470D02*
X8248515Y-26105517D01*
X8248515Y-26105517D02*
X8248515Y-26124565D01*
X8248515Y-26124565D02*
X8238991Y-26153136D01*
X8238991Y-26153136D02*
X8124706Y-26267422D01*
X8124706Y-26267422D02*
X8248515Y-26267422D01*
X8419944Y-26134089D02*
X8419944Y-26267422D01*
X8372325Y-26057898D02*
X8324706Y-26200755D01*
X8324706Y-26200755D02*
X8448515Y-26200755D01*
X8677087Y-26267422D02*
X8677087Y-26067422D01*
X8762801Y-26267422D02*
X8762801Y-26162660D01*
X8762801Y-26162660D02*
X8753277Y-26143612D01*
X8753277Y-26143612D02*
X8734230Y-26134089D01*
X8734230Y-26134089D02*
X8705658Y-26134089D01*
X8705658Y-26134089D02*
X8686611Y-26143612D01*
X8686611Y-26143612D02*
X8677087Y-26153136D01*
X8886611Y-26267422D02*
X8867563Y-26257898D01*
X8867563Y-26257898D02*
X8858039Y-26248374D01*
X8858039Y-26248374D02*
X8848515Y-26229327D01*
X8848515Y-26229327D02*
X8848515Y-26172184D01*
X8848515Y-26172184D02*
X8858039Y-26153136D01*
X8858039Y-26153136D02*
X8867563Y-26143612D01*
X8867563Y-26143612D02*
X8886611Y-26134089D01*
X8886611Y-26134089D02*
X8915182Y-26134089D01*
X8915182Y-26134089D02*
X8934230Y-26143612D01*
X8934230Y-26143612D02*
X8943753Y-26153136D01*
X8943753Y-26153136D02*
X8953277Y-26172184D01*
X8953277Y-26172184D02*
X8953277Y-26229327D01*
X8953277Y-26229327D02*
X8943753Y-26248374D01*
X8943753Y-26248374D02*
X8934230Y-26257898D01*
X8934230Y-26257898D02*
X8915182Y-26267422D01*
X8915182Y-26267422D02*
X8886611Y-26267422D01*
X9067563Y-26267422D02*
X9048515Y-26257898D01*
X9048515Y-26257898D02*
X9038992Y-26238850D01*
X9038992Y-26238850D02*
X9038992Y-26067422D01*
X9219944Y-26257898D02*
X9200896Y-26267422D01*
X9200896Y-26267422D02*
X9162801Y-26267422D01*
X9162801Y-26267422D02*
X9143753Y-26257898D01*
X9143753Y-26257898D02*
X9134230Y-26238850D01*
X9134230Y-26238850D02*
X9134230Y-26162660D01*
X9134230Y-26162660D02*
X9143753Y-26143612D01*
X9143753Y-26143612D02*
X9162801Y-26134089D01*
X9162801Y-26134089D02*
X9200896Y-26134089D01*
X9200896Y-26134089D02*
X9219944Y-26143612D01*
X9219944Y-26143612D02*
X9229468Y-26162660D01*
X9229468Y-26162660D02*
X9229468Y-26181708D01*
X9229468Y-26181708D02*
X9134230Y-26200755D01*
X9305658Y-26257898D02*
X9324706Y-26267422D01*
X9324706Y-26267422D02*
X9362801Y-26267422D01*
X9362801Y-26267422D02*
X9381849Y-26257898D01*
X9381849Y-26257898D02*
X9391373Y-26238850D01*
X9391373Y-26238850D02*
X9391373Y-26229327D01*
X9391373Y-26229327D02*
X9381849Y-26210279D01*
X9381849Y-26210279D02*
X9362801Y-26200755D01*
X9362801Y-26200755D02*
X9334230Y-26200755D01*
X9334230Y-26200755D02*
X9315182Y-26191231D01*
X9315182Y-26191231D02*
X9305658Y-26172184D01*
X9305658Y-26172184D02*
X9305658Y-26162660D01*
X9305658Y-26162660D02*
X9315182Y-26143612D01*
X9315182Y-26143612D02*
X9334230Y-26134089D01*
X9334230Y-26134089D02*
X9362801Y-26134089D01*
X9362801Y-26134089D02*
X9381849Y-26143612D01*
X9458039Y-26343612D02*
X9467563Y-26334089D01*
X9467563Y-26334089D02*
X9486611Y-26305517D01*
X9486611Y-26305517D02*
X9496134Y-26286470D01*
X9496134Y-26286470D02*
X9505658Y-26257898D01*
X9505658Y-26257898D02*
X9515182Y-26210279D01*
X9515182Y-26210279D02*
X9515182Y-26172184D01*
X9515182Y-26172184D02*
X9505658Y-26124565D01*
X9505658Y-26124565D02*
X9496134Y-26095993D01*
X9496134Y-26095993D02*
X9486611Y-26076946D01*
X9486611Y-26076946D02*
X9467563Y-26048374D01*
X9467563Y-26048374D02*
X9458039Y-26038850D01*
D14*
X4382500Y-26384938D02*
X4492500Y-26494938D01*
X4492500Y-26384938D02*
X4382500Y-26494938D01*
X4492500Y-26439938D02*
G75*
G02*
X4382500Y-26439938I-55000J0D01*
G01*
X4382500Y-26439938D02*
G75*
G02*
X4492500Y-26439938I55000J0D01*
G01*
D12*
X4858039Y-26531422D02*
X4743753Y-26531422D01*
X4800896Y-26531422D02*
X4800896Y-26331422D01*
X4800896Y-26331422D02*
X4781848Y-26359993D01*
X4781848Y-26359993D02*
X4762801Y-26379041D01*
X4762801Y-26379041D02*
X4743753Y-26388565D01*
X4943753Y-26512374D02*
X4953277Y-26521898D01*
X4953277Y-26521898D02*
X4943753Y-26531422D01*
X4943753Y-26531422D02*
X4934229Y-26521898D01*
X4934229Y-26521898D02*
X4943753Y-26512374D01*
X4943753Y-26512374D02*
X4943753Y-26531422D01*
X5143753Y-26531422D02*
X5029467Y-26531422D01*
X5086610Y-26531422D02*
X5086610Y-26331422D01*
X5086610Y-26331422D02*
X5067563Y-26359993D01*
X5067563Y-26359993D02*
X5048515Y-26379041D01*
X5048515Y-26379041D02*
X5029467Y-26388565D01*
X5267563Y-26331422D02*
X5286610Y-26331422D01*
X5286610Y-26331422D02*
X5305658Y-26340946D01*
X5305658Y-26340946D02*
X5315182Y-26350470D01*
X5315182Y-26350470D02*
X5324705Y-26369517D01*
X5324705Y-26369517D02*
X5334229Y-26407612D01*
X5334229Y-26407612D02*
X5334229Y-26455231D01*
X5334229Y-26455231D02*
X5324705Y-26493327D01*
X5324705Y-26493327D02*
X5315182Y-26512374D01*
X5315182Y-26512374D02*
X5305658Y-26521898D01*
X5305658Y-26521898D02*
X5286610Y-26531422D01*
X5286610Y-26531422D02*
X5267563Y-26531422D01*
X5267563Y-26531422D02*
X5248515Y-26521898D01*
X5248515Y-26521898D02*
X5238991Y-26512374D01*
X5238991Y-26512374D02*
X5229467Y-26493327D01*
X5229467Y-26493327D02*
X5219944Y-26455231D01*
X5219944Y-26455231D02*
X5219944Y-26407612D01*
X5219944Y-26407612D02*
X5229467Y-26369517D01*
X5229467Y-26369517D02*
X5238991Y-26350470D01*
X5238991Y-26350470D02*
X5248515Y-26340946D01*
X5248515Y-26340946D02*
X5267563Y-26331422D01*
X5458039Y-26331422D02*
X5477086Y-26331422D01*
X5477086Y-26331422D02*
X5496134Y-26340946D01*
X5496134Y-26340946D02*
X5505658Y-26350470D01*
X5505658Y-26350470D02*
X5515182Y-26369517D01*
X5515182Y-26369517D02*
X5524705Y-26407612D01*
X5524705Y-26407612D02*
X5524705Y-26455231D01*
X5524705Y-26455231D02*
X5515182Y-26493327D01*
X5515182Y-26493327D02*
X5505658Y-26512374D01*
X5505658Y-26512374D02*
X5496134Y-26521898D01*
X5496134Y-26521898D02*
X5477086Y-26531422D01*
X5477086Y-26531422D02*
X5458039Y-26531422D01*
X5458039Y-26531422D02*
X5438991Y-26521898D01*
X5438991Y-26521898D02*
X5429467Y-26512374D01*
X5429467Y-26512374D02*
X5419944Y-26493327D01*
X5419944Y-26493327D02*
X5410420Y-26455231D01*
X5410420Y-26455231D02*
X5410420Y-26407612D01*
X5410420Y-26407612D02*
X5419944Y-26369517D01*
X5419944Y-26369517D02*
X5429467Y-26350470D01*
X5429467Y-26350470D02*
X5438991Y-26340946D01*
X5438991Y-26340946D02*
X5458039Y-26331422D01*
X5610420Y-26531422D02*
X5610420Y-26398089D01*
X5610420Y-26417136D02*
X5619943Y-26407612D01*
X5619943Y-26407612D02*
X5638991Y-26398089D01*
X5638991Y-26398089D02*
X5667563Y-26398089D01*
X5667563Y-26398089D02*
X5686610Y-26407612D01*
X5686610Y-26407612D02*
X5696134Y-26426660D01*
X5696134Y-26426660D02*
X5696134Y-26531422D01*
X5696134Y-26426660D02*
X5705658Y-26407612D01*
X5705658Y-26407612D02*
X5724705Y-26398089D01*
X5724705Y-26398089D02*
X5753277Y-26398089D01*
X5753277Y-26398089D02*
X5772324Y-26407612D01*
X5772324Y-26407612D02*
X5781848Y-26426660D01*
X5781848Y-26426660D02*
X5781848Y-26531422D01*
X5877086Y-26531422D02*
X5877086Y-26398089D01*
X5877086Y-26417136D02*
X5886610Y-26407612D01*
X5886610Y-26407612D02*
X5905658Y-26398089D01*
X5905658Y-26398089D02*
X5934229Y-26398089D01*
X5934229Y-26398089D02*
X5953277Y-26407612D01*
X5953277Y-26407612D02*
X5962801Y-26426660D01*
X5962801Y-26426660D02*
X5962801Y-26531422D01*
X5962801Y-26426660D02*
X5972324Y-26407612D01*
X5972324Y-26407612D02*
X5991372Y-26398089D01*
X5991372Y-26398089D02*
X6019943Y-26398089D01*
X6019943Y-26398089D02*
X6038991Y-26407612D01*
X6038991Y-26407612D02*
X6048515Y-26426660D01*
X6048515Y-26426660D02*
X6048515Y-26531422D01*
X6438991Y-26321898D02*
X6267563Y-26579041D01*
X6696134Y-26331422D02*
X6715182Y-26331422D01*
X6715182Y-26331422D02*
X6734229Y-26340946D01*
X6734229Y-26340946D02*
X6743753Y-26350470D01*
X6743753Y-26350470D02*
X6753277Y-26369517D01*
X6753277Y-26369517D02*
X6762801Y-26407612D01*
X6762801Y-26407612D02*
X6762801Y-26455231D01*
X6762801Y-26455231D02*
X6753277Y-26493327D01*
X6753277Y-26493327D02*
X6743753Y-26512374D01*
X6743753Y-26512374D02*
X6734229Y-26521898D01*
X6734229Y-26521898D02*
X6715182Y-26531422D01*
X6715182Y-26531422D02*
X6696134Y-26531422D01*
X6696134Y-26531422D02*
X6677086Y-26521898D01*
X6677086Y-26521898D02*
X6667563Y-26512374D01*
X6667563Y-26512374D02*
X6658039Y-26493327D01*
X6658039Y-26493327D02*
X6648515Y-26455231D01*
X6648515Y-26455231D02*
X6648515Y-26407612D01*
X6648515Y-26407612D02*
X6658039Y-26369517D01*
X6658039Y-26369517D02*
X6667563Y-26350470D01*
X6667563Y-26350470D02*
X6677086Y-26340946D01*
X6677086Y-26340946D02*
X6696134Y-26331422D01*
X6848515Y-26512374D02*
X6858039Y-26521898D01*
X6858039Y-26521898D02*
X6848515Y-26531422D01*
X6848515Y-26531422D02*
X6838991Y-26521898D01*
X6838991Y-26521898D02*
X6848515Y-26512374D01*
X6848515Y-26512374D02*
X6848515Y-26531422D01*
X6981848Y-26331422D02*
X7000896Y-26331422D01*
X7000896Y-26331422D02*
X7019944Y-26340946D01*
X7019944Y-26340946D02*
X7029467Y-26350470D01*
X7029467Y-26350470D02*
X7038991Y-26369517D01*
X7038991Y-26369517D02*
X7048515Y-26407612D01*
X7048515Y-26407612D02*
X7048515Y-26455231D01*
X7048515Y-26455231D02*
X7038991Y-26493327D01*
X7038991Y-26493327D02*
X7029467Y-26512374D01*
X7029467Y-26512374D02*
X7019944Y-26521898D01*
X7019944Y-26521898D02*
X7000896Y-26531422D01*
X7000896Y-26531422D02*
X6981848Y-26531422D01*
X6981848Y-26531422D02*
X6962801Y-26521898D01*
X6962801Y-26521898D02*
X6953277Y-26512374D01*
X6953277Y-26512374D02*
X6943753Y-26493327D01*
X6943753Y-26493327D02*
X6934229Y-26455231D01*
X6934229Y-26455231D02*
X6934229Y-26407612D01*
X6934229Y-26407612D02*
X6943753Y-26369517D01*
X6943753Y-26369517D02*
X6953277Y-26350470D01*
X6953277Y-26350470D02*
X6962801Y-26340946D01*
X6962801Y-26340946D02*
X6981848Y-26331422D01*
X7219944Y-26398089D02*
X7219944Y-26531422D01*
X7172325Y-26321898D02*
X7124706Y-26464755D01*
X7124706Y-26464755D02*
X7248515Y-26464755D01*
X7305658Y-26331422D02*
X7429467Y-26331422D01*
X7429467Y-26331422D02*
X7362801Y-26407612D01*
X7362801Y-26407612D02*
X7391372Y-26407612D01*
X7391372Y-26407612D02*
X7410420Y-26417136D01*
X7410420Y-26417136D02*
X7419944Y-26426660D01*
X7419944Y-26426660D02*
X7429467Y-26445708D01*
X7429467Y-26445708D02*
X7429467Y-26493327D01*
X7429467Y-26493327D02*
X7419944Y-26512374D01*
X7419944Y-26512374D02*
X7410420Y-26521898D01*
X7410420Y-26521898D02*
X7391372Y-26531422D01*
X7391372Y-26531422D02*
X7334229Y-26531422D01*
X7334229Y-26531422D02*
X7315182Y-26521898D01*
X7315182Y-26521898D02*
X7305658Y-26512374D01*
X7496134Y-26331422D02*
X7619944Y-26331422D01*
X7619944Y-26331422D02*
X7553277Y-26407612D01*
X7553277Y-26407612D02*
X7581848Y-26407612D01*
X7581848Y-26407612D02*
X7600896Y-26417136D01*
X7600896Y-26417136D02*
X7610420Y-26426660D01*
X7610420Y-26426660D02*
X7619944Y-26445708D01*
X7619944Y-26445708D02*
X7619944Y-26493327D01*
X7619944Y-26493327D02*
X7610420Y-26512374D01*
X7610420Y-26512374D02*
X7600896Y-26521898D01*
X7600896Y-26521898D02*
X7581848Y-26531422D01*
X7581848Y-26531422D02*
X7524706Y-26531422D01*
X7524706Y-26531422D02*
X7505658Y-26521898D01*
X7505658Y-26521898D02*
X7496134Y-26512374D01*
X7696134Y-26331422D02*
X7696134Y-26369517D01*
X7772325Y-26331422D02*
X7772325Y-26369517D01*
X8067563Y-26607612D02*
X8058039Y-26598089D01*
X8058039Y-26598089D02*
X8038991Y-26569517D01*
X8038991Y-26569517D02*
X8029468Y-26550470D01*
X8029468Y-26550470D02*
X8019944Y-26521898D01*
X8019944Y-26521898D02*
X8010420Y-26474279D01*
X8010420Y-26474279D02*
X8010420Y-26436184D01*
X8010420Y-26436184D02*
X8019944Y-26388565D01*
X8019944Y-26388565D02*
X8029468Y-26359993D01*
X8029468Y-26359993D02*
X8038991Y-26340946D01*
X8038991Y-26340946D02*
X8058039Y-26312374D01*
X8058039Y-26312374D02*
X8067563Y-26302850D01*
X8134229Y-26350470D02*
X8143753Y-26340946D01*
X8143753Y-26340946D02*
X8162801Y-26331422D01*
X8162801Y-26331422D02*
X8210420Y-26331422D01*
X8210420Y-26331422D02*
X8229468Y-26340946D01*
X8229468Y-26340946D02*
X8238991Y-26350470D01*
X8238991Y-26350470D02*
X8248515Y-26369517D01*
X8248515Y-26369517D02*
X8248515Y-26388565D01*
X8248515Y-26388565D02*
X8238991Y-26417136D01*
X8238991Y-26417136D02*
X8124706Y-26531422D01*
X8124706Y-26531422D02*
X8248515Y-26531422D01*
X8486611Y-26531422D02*
X8486611Y-26331422D01*
X8572325Y-26531422D02*
X8572325Y-26426660D01*
X8572325Y-26426660D02*
X8562801Y-26407612D01*
X8562801Y-26407612D02*
X8543753Y-26398089D01*
X8543753Y-26398089D02*
X8515182Y-26398089D01*
X8515182Y-26398089D02*
X8496134Y-26407612D01*
X8496134Y-26407612D02*
X8486611Y-26417136D01*
X8696134Y-26531422D02*
X8677087Y-26521898D01*
X8677087Y-26521898D02*
X8667563Y-26512374D01*
X8667563Y-26512374D02*
X8658039Y-26493327D01*
X8658039Y-26493327D02*
X8658039Y-26436184D01*
X8658039Y-26436184D02*
X8667563Y-26417136D01*
X8667563Y-26417136D02*
X8677087Y-26407612D01*
X8677087Y-26407612D02*
X8696134Y-26398089D01*
X8696134Y-26398089D02*
X8724706Y-26398089D01*
X8724706Y-26398089D02*
X8743753Y-26407612D01*
X8743753Y-26407612D02*
X8753277Y-26417136D01*
X8753277Y-26417136D02*
X8762801Y-26436184D01*
X8762801Y-26436184D02*
X8762801Y-26493327D01*
X8762801Y-26493327D02*
X8753277Y-26512374D01*
X8753277Y-26512374D02*
X8743753Y-26521898D01*
X8743753Y-26521898D02*
X8724706Y-26531422D01*
X8724706Y-26531422D02*
X8696134Y-26531422D01*
X8877087Y-26531422D02*
X8858039Y-26521898D01*
X8858039Y-26521898D02*
X8848515Y-26502850D01*
X8848515Y-26502850D02*
X8848515Y-26331422D01*
X9029468Y-26521898D02*
X9010420Y-26531422D01*
X9010420Y-26531422D02*
X8972325Y-26531422D01*
X8972325Y-26531422D02*
X8953277Y-26521898D01*
X8953277Y-26521898D02*
X8943753Y-26502850D01*
X8943753Y-26502850D02*
X8943753Y-26426660D01*
X8943753Y-26426660D02*
X8953277Y-26407612D01*
X8953277Y-26407612D02*
X8972325Y-26398089D01*
X8972325Y-26398089D02*
X9010420Y-26398089D01*
X9010420Y-26398089D02*
X9029468Y-26407612D01*
X9029468Y-26407612D02*
X9038992Y-26426660D01*
X9038992Y-26426660D02*
X9038992Y-26445708D01*
X9038992Y-26445708D02*
X8943753Y-26464755D01*
X9115182Y-26521898D02*
X9134230Y-26531422D01*
X9134230Y-26531422D02*
X9172325Y-26531422D01*
X9172325Y-26531422D02*
X9191373Y-26521898D01*
X9191373Y-26521898D02*
X9200896Y-26502850D01*
X9200896Y-26502850D02*
X9200896Y-26493327D01*
X9200896Y-26493327D02*
X9191373Y-26474279D01*
X9191373Y-26474279D02*
X9172325Y-26464755D01*
X9172325Y-26464755D02*
X9143753Y-26464755D01*
X9143753Y-26464755D02*
X9124706Y-26455231D01*
X9124706Y-26455231D02*
X9115182Y-26436184D01*
X9115182Y-26436184D02*
X9115182Y-26426660D01*
X9115182Y-26426660D02*
X9124706Y-26407612D01*
X9124706Y-26407612D02*
X9143753Y-26398089D01*
X9143753Y-26398089D02*
X9172325Y-26398089D01*
X9172325Y-26398089D02*
X9191373Y-26407612D01*
X9438992Y-26455231D02*
X9591373Y-26455231D01*
X9515182Y-26531422D02*
X9515182Y-26379041D01*
X9943754Y-26531422D02*
X9829468Y-26531422D01*
X9886611Y-26531422D02*
X9886611Y-26331422D01*
X9886611Y-26331422D02*
X9867563Y-26359993D01*
X9867563Y-26359993D02*
X9848515Y-26379041D01*
X9848515Y-26379041D02*
X9829468Y-26388565D01*
X10067563Y-26331422D02*
X10086611Y-26331422D01*
X10086611Y-26331422D02*
X10105658Y-26340946D01*
X10105658Y-26340946D02*
X10115182Y-26350470D01*
X10115182Y-26350470D02*
X10124706Y-26369517D01*
X10124706Y-26369517D02*
X10134230Y-26407612D01*
X10134230Y-26407612D02*
X10134230Y-26455231D01*
X10134230Y-26455231D02*
X10124706Y-26493327D01*
X10124706Y-26493327D02*
X10115182Y-26512374D01*
X10115182Y-26512374D02*
X10105658Y-26521898D01*
X10105658Y-26521898D02*
X10086611Y-26531422D01*
X10086611Y-26531422D02*
X10067563Y-26531422D01*
X10067563Y-26531422D02*
X10048515Y-26521898D01*
X10048515Y-26521898D02*
X10038992Y-26512374D01*
X10038992Y-26512374D02*
X10029468Y-26493327D01*
X10029468Y-26493327D02*
X10019944Y-26455231D01*
X10019944Y-26455231D02*
X10019944Y-26407612D01*
X10019944Y-26407612D02*
X10029468Y-26369517D01*
X10029468Y-26369517D02*
X10038992Y-26350470D01*
X10038992Y-26350470D02*
X10048515Y-26340946D01*
X10048515Y-26340946D02*
X10067563Y-26331422D01*
X10362801Y-26521898D02*
X10381849Y-26531422D01*
X10381849Y-26531422D02*
X10419944Y-26531422D01*
X10419944Y-26531422D02*
X10438992Y-26521898D01*
X10438992Y-26521898D02*
X10448516Y-26502850D01*
X10448516Y-26502850D02*
X10448516Y-26493327D01*
X10448516Y-26493327D02*
X10438992Y-26474279D01*
X10438992Y-26474279D02*
X10419944Y-26464755D01*
X10419944Y-26464755D02*
X10391373Y-26464755D01*
X10391373Y-26464755D02*
X10372325Y-26455231D01*
X10372325Y-26455231D02*
X10362801Y-26436184D01*
X10362801Y-26436184D02*
X10362801Y-26426660D01*
X10362801Y-26426660D02*
X10372325Y-26407612D01*
X10372325Y-26407612D02*
X10391373Y-26398089D01*
X10391373Y-26398089D02*
X10419944Y-26398089D01*
X10419944Y-26398089D02*
X10438992Y-26407612D01*
X10562801Y-26531422D02*
X10543754Y-26521898D01*
X10543754Y-26521898D02*
X10534230Y-26502850D01*
X10534230Y-26502850D02*
X10534230Y-26331422D01*
X10667563Y-26531422D02*
X10648516Y-26521898D01*
X10648516Y-26521898D02*
X10638992Y-26512374D01*
X10638992Y-26512374D02*
X10629468Y-26493327D01*
X10629468Y-26493327D02*
X10629468Y-26436184D01*
X10629468Y-26436184D02*
X10638992Y-26417136D01*
X10638992Y-26417136D02*
X10648516Y-26407612D01*
X10648516Y-26407612D02*
X10667563Y-26398089D01*
X10667563Y-26398089D02*
X10696135Y-26398089D01*
X10696135Y-26398089D02*
X10715182Y-26407612D01*
X10715182Y-26407612D02*
X10724706Y-26417136D01*
X10724706Y-26417136D02*
X10734230Y-26436184D01*
X10734230Y-26436184D02*
X10734230Y-26493327D01*
X10734230Y-26493327D02*
X10724706Y-26512374D01*
X10724706Y-26512374D02*
X10715182Y-26521898D01*
X10715182Y-26521898D02*
X10696135Y-26531422D01*
X10696135Y-26531422D02*
X10667563Y-26531422D01*
X10791373Y-26398089D02*
X10867563Y-26398089D01*
X10819944Y-26331422D02*
X10819944Y-26502850D01*
X10819944Y-26502850D02*
X10829468Y-26521898D01*
X10829468Y-26521898D02*
X10848516Y-26531422D01*
X10848516Y-26531422D02*
X10867563Y-26531422D01*
X10924706Y-26521898D02*
X10943754Y-26531422D01*
X10943754Y-26531422D02*
X10981849Y-26531422D01*
X10981849Y-26531422D02*
X11000897Y-26521898D01*
X11000897Y-26521898D02*
X11010420Y-26502850D01*
X11010420Y-26502850D02*
X11010420Y-26493327D01*
X11010420Y-26493327D02*
X11000897Y-26474279D01*
X11000897Y-26474279D02*
X10981849Y-26464755D01*
X10981849Y-26464755D02*
X10953277Y-26464755D01*
X10953277Y-26464755D02*
X10934230Y-26455231D01*
X10934230Y-26455231D02*
X10924706Y-26436184D01*
X10924706Y-26436184D02*
X10924706Y-26426660D01*
X10924706Y-26426660D02*
X10934230Y-26407612D01*
X10934230Y-26407612D02*
X10953277Y-26398089D01*
X10953277Y-26398089D02*
X10981849Y-26398089D01*
X10981849Y-26398089D02*
X11000897Y-26407612D01*
X11077087Y-26607612D02*
X11086611Y-26598089D01*
X11086611Y-26598089D02*
X11105658Y-26569517D01*
X11105658Y-26569517D02*
X11115182Y-26550470D01*
X11115182Y-26550470D02*
X11124706Y-26521898D01*
X11124706Y-26521898D02*
X11134230Y-26474279D01*
X11134230Y-26474279D02*
X11134230Y-26436184D01*
X11134230Y-26436184D02*
X11124706Y-26388565D01*
X11124706Y-26388565D02*
X11115182Y-26359993D01*
X11115182Y-26359993D02*
X11105658Y-26340946D01*
X11105658Y-26340946D02*
X11086611Y-26312374D01*
X11086611Y-26312374D02*
X11077087Y-26302850D01*
D15*
X4365500Y-26640438D02*
X4492500Y-26767438D01*
X4492500Y-26640438D02*
X4365500Y-26767438D01*
X4429000Y-26640438D02*
X4429000Y-26767438D01*
X4365500Y-26703938D02*
X4492500Y-26703938D01*
D12*
X4858039Y-26795422D02*
X4743753Y-26795422D01*
X4800896Y-26795422D02*
X4800896Y-26595422D01*
X4800896Y-26595422D02*
X4781848Y-26623993D01*
X4781848Y-26623993D02*
X4762801Y-26643041D01*
X4762801Y-26643041D02*
X4743753Y-26652565D01*
X4943753Y-26776374D02*
X4953277Y-26785898D01*
X4953277Y-26785898D02*
X4943753Y-26795422D01*
X4943753Y-26795422D02*
X4934229Y-26785898D01*
X4934229Y-26785898D02*
X4943753Y-26776374D01*
X4943753Y-26776374D02*
X4943753Y-26795422D01*
X5029467Y-26614470D02*
X5038991Y-26604946D01*
X5038991Y-26604946D02*
X5058039Y-26595422D01*
X5058039Y-26595422D02*
X5105658Y-26595422D01*
X5105658Y-26595422D02*
X5124705Y-26604946D01*
X5124705Y-26604946D02*
X5134229Y-26614470D01*
X5134229Y-26614470D02*
X5143753Y-26633517D01*
X5143753Y-26633517D02*
X5143753Y-26652565D01*
X5143753Y-26652565D02*
X5134229Y-26681136D01*
X5134229Y-26681136D02*
X5019944Y-26795422D01*
X5019944Y-26795422D02*
X5143753Y-26795422D01*
X5210420Y-26595422D02*
X5343753Y-26595422D01*
X5343753Y-26595422D02*
X5258039Y-26795422D01*
X5458039Y-26595422D02*
X5477086Y-26595422D01*
X5477086Y-26595422D02*
X5496134Y-26604946D01*
X5496134Y-26604946D02*
X5505658Y-26614470D01*
X5505658Y-26614470D02*
X5515182Y-26633517D01*
X5515182Y-26633517D02*
X5524705Y-26671612D01*
X5524705Y-26671612D02*
X5524705Y-26719231D01*
X5524705Y-26719231D02*
X5515182Y-26757327D01*
X5515182Y-26757327D02*
X5505658Y-26776374D01*
X5505658Y-26776374D02*
X5496134Y-26785898D01*
X5496134Y-26785898D02*
X5477086Y-26795422D01*
X5477086Y-26795422D02*
X5458039Y-26795422D01*
X5458039Y-26795422D02*
X5438991Y-26785898D01*
X5438991Y-26785898D02*
X5429467Y-26776374D01*
X5429467Y-26776374D02*
X5419944Y-26757327D01*
X5419944Y-26757327D02*
X5410420Y-26719231D01*
X5410420Y-26719231D02*
X5410420Y-26671612D01*
X5410420Y-26671612D02*
X5419944Y-26633517D01*
X5419944Y-26633517D02*
X5429467Y-26614470D01*
X5429467Y-26614470D02*
X5438991Y-26604946D01*
X5438991Y-26604946D02*
X5458039Y-26595422D01*
X5610420Y-26795422D02*
X5610420Y-26662089D01*
X5610420Y-26681136D02*
X5619943Y-26671612D01*
X5619943Y-26671612D02*
X5638991Y-26662089D01*
X5638991Y-26662089D02*
X5667563Y-26662089D01*
X5667563Y-26662089D02*
X5686610Y-26671612D01*
X5686610Y-26671612D02*
X5696134Y-26690660D01*
X5696134Y-26690660D02*
X5696134Y-26795422D01*
X5696134Y-26690660D02*
X5705658Y-26671612D01*
X5705658Y-26671612D02*
X5724705Y-26662089D01*
X5724705Y-26662089D02*
X5753277Y-26662089D01*
X5753277Y-26662089D02*
X5772324Y-26671612D01*
X5772324Y-26671612D02*
X5781848Y-26690660D01*
X5781848Y-26690660D02*
X5781848Y-26795422D01*
X5877086Y-26795422D02*
X5877086Y-26662089D01*
X5877086Y-26681136D02*
X5886610Y-26671612D01*
X5886610Y-26671612D02*
X5905658Y-26662089D01*
X5905658Y-26662089D02*
X5934229Y-26662089D01*
X5934229Y-26662089D02*
X5953277Y-26671612D01*
X5953277Y-26671612D02*
X5962801Y-26690660D01*
X5962801Y-26690660D02*
X5962801Y-26795422D01*
X5962801Y-26690660D02*
X5972324Y-26671612D01*
X5972324Y-26671612D02*
X5991372Y-26662089D01*
X5991372Y-26662089D02*
X6019943Y-26662089D01*
X6019943Y-26662089D02*
X6038991Y-26671612D01*
X6038991Y-26671612D02*
X6048515Y-26690660D01*
X6048515Y-26690660D02*
X6048515Y-26795422D01*
X6438991Y-26585898D02*
X6267563Y-26843041D01*
X6696134Y-26595422D02*
X6715182Y-26595422D01*
X6715182Y-26595422D02*
X6734229Y-26604946D01*
X6734229Y-26604946D02*
X6743753Y-26614470D01*
X6743753Y-26614470D02*
X6753277Y-26633517D01*
X6753277Y-26633517D02*
X6762801Y-26671612D01*
X6762801Y-26671612D02*
X6762801Y-26719231D01*
X6762801Y-26719231D02*
X6753277Y-26757327D01*
X6753277Y-26757327D02*
X6743753Y-26776374D01*
X6743753Y-26776374D02*
X6734229Y-26785898D01*
X6734229Y-26785898D02*
X6715182Y-26795422D01*
X6715182Y-26795422D02*
X6696134Y-26795422D01*
X6696134Y-26795422D02*
X6677086Y-26785898D01*
X6677086Y-26785898D02*
X6667563Y-26776374D01*
X6667563Y-26776374D02*
X6658039Y-26757327D01*
X6658039Y-26757327D02*
X6648515Y-26719231D01*
X6648515Y-26719231D02*
X6648515Y-26671612D01*
X6648515Y-26671612D02*
X6658039Y-26633517D01*
X6658039Y-26633517D02*
X6667563Y-26614470D01*
X6667563Y-26614470D02*
X6677086Y-26604946D01*
X6677086Y-26604946D02*
X6696134Y-26595422D01*
X6848515Y-26776374D02*
X6858039Y-26785898D01*
X6858039Y-26785898D02*
X6848515Y-26795422D01*
X6848515Y-26795422D02*
X6838991Y-26785898D01*
X6838991Y-26785898D02*
X6848515Y-26776374D01*
X6848515Y-26776374D02*
X6848515Y-26795422D01*
X6981848Y-26595422D02*
X7000896Y-26595422D01*
X7000896Y-26595422D02*
X7019944Y-26604946D01*
X7019944Y-26604946D02*
X7029467Y-26614470D01*
X7029467Y-26614470D02*
X7038991Y-26633517D01*
X7038991Y-26633517D02*
X7048515Y-26671612D01*
X7048515Y-26671612D02*
X7048515Y-26719231D01*
X7048515Y-26719231D02*
X7038991Y-26757327D01*
X7038991Y-26757327D02*
X7029467Y-26776374D01*
X7029467Y-26776374D02*
X7019944Y-26785898D01*
X7019944Y-26785898D02*
X7000896Y-26795422D01*
X7000896Y-26795422D02*
X6981848Y-26795422D01*
X6981848Y-26795422D02*
X6962801Y-26785898D01*
X6962801Y-26785898D02*
X6953277Y-26776374D01*
X6953277Y-26776374D02*
X6943753Y-26757327D01*
X6943753Y-26757327D02*
X6934229Y-26719231D01*
X6934229Y-26719231D02*
X6934229Y-26671612D01*
X6934229Y-26671612D02*
X6943753Y-26633517D01*
X6943753Y-26633517D02*
X6953277Y-26614470D01*
X6953277Y-26614470D02*
X6962801Y-26604946D01*
X6962801Y-26604946D02*
X6981848Y-26595422D01*
X7229467Y-26595422D02*
X7134229Y-26595422D01*
X7134229Y-26595422D02*
X7124706Y-26690660D01*
X7124706Y-26690660D02*
X7134229Y-26681136D01*
X7134229Y-26681136D02*
X7153277Y-26671612D01*
X7153277Y-26671612D02*
X7200896Y-26671612D01*
X7200896Y-26671612D02*
X7219944Y-26681136D01*
X7219944Y-26681136D02*
X7229467Y-26690660D01*
X7229467Y-26690660D02*
X7238991Y-26709708D01*
X7238991Y-26709708D02*
X7238991Y-26757327D01*
X7238991Y-26757327D02*
X7229467Y-26776374D01*
X7229467Y-26776374D02*
X7219944Y-26785898D01*
X7219944Y-26785898D02*
X7200896Y-26795422D01*
X7200896Y-26795422D02*
X7153277Y-26795422D01*
X7153277Y-26795422D02*
X7134229Y-26785898D01*
X7134229Y-26785898D02*
X7124706Y-26776374D01*
X7362801Y-26595422D02*
X7381848Y-26595422D01*
X7381848Y-26595422D02*
X7400896Y-26604946D01*
X7400896Y-26604946D02*
X7410420Y-26614470D01*
X7410420Y-26614470D02*
X7419944Y-26633517D01*
X7419944Y-26633517D02*
X7429467Y-26671612D01*
X7429467Y-26671612D02*
X7429467Y-26719231D01*
X7429467Y-26719231D02*
X7419944Y-26757327D01*
X7419944Y-26757327D02*
X7410420Y-26776374D01*
X7410420Y-26776374D02*
X7400896Y-26785898D01*
X7400896Y-26785898D02*
X7381848Y-26795422D01*
X7381848Y-26795422D02*
X7362801Y-26795422D01*
X7362801Y-26795422D02*
X7343753Y-26785898D01*
X7343753Y-26785898D02*
X7334229Y-26776374D01*
X7334229Y-26776374D02*
X7324706Y-26757327D01*
X7324706Y-26757327D02*
X7315182Y-26719231D01*
X7315182Y-26719231D02*
X7315182Y-26671612D01*
X7315182Y-26671612D02*
X7324706Y-26633517D01*
X7324706Y-26633517D02*
X7334229Y-26614470D01*
X7334229Y-26614470D02*
X7343753Y-26604946D01*
X7343753Y-26604946D02*
X7362801Y-26595422D01*
X7553277Y-26595422D02*
X7572325Y-26595422D01*
X7572325Y-26595422D02*
X7591372Y-26604946D01*
X7591372Y-26604946D02*
X7600896Y-26614470D01*
X7600896Y-26614470D02*
X7610420Y-26633517D01*
X7610420Y-26633517D02*
X7619944Y-26671612D01*
X7619944Y-26671612D02*
X7619944Y-26719231D01*
X7619944Y-26719231D02*
X7610420Y-26757327D01*
X7610420Y-26757327D02*
X7600896Y-26776374D01*
X7600896Y-26776374D02*
X7591372Y-26785898D01*
X7591372Y-26785898D02*
X7572325Y-26795422D01*
X7572325Y-26795422D02*
X7553277Y-26795422D01*
X7553277Y-26795422D02*
X7534229Y-26785898D01*
X7534229Y-26785898D02*
X7524706Y-26776374D01*
X7524706Y-26776374D02*
X7515182Y-26757327D01*
X7515182Y-26757327D02*
X7505658Y-26719231D01*
X7505658Y-26719231D02*
X7505658Y-26671612D01*
X7505658Y-26671612D02*
X7515182Y-26633517D01*
X7515182Y-26633517D02*
X7524706Y-26614470D01*
X7524706Y-26614470D02*
X7534229Y-26604946D01*
X7534229Y-26604946D02*
X7553277Y-26595422D01*
X7696134Y-26595422D02*
X7696134Y-26633517D01*
X7772325Y-26595422D02*
X7772325Y-26633517D01*
X8067563Y-26871612D02*
X8058039Y-26862089D01*
X8058039Y-26862089D02*
X8038991Y-26833517D01*
X8038991Y-26833517D02*
X8029468Y-26814470D01*
X8029468Y-26814470D02*
X8019944Y-26785898D01*
X8019944Y-26785898D02*
X8010420Y-26738279D01*
X8010420Y-26738279D02*
X8010420Y-26700184D01*
X8010420Y-26700184D02*
X8019944Y-26652565D01*
X8019944Y-26652565D02*
X8029468Y-26623993D01*
X8029468Y-26623993D02*
X8038991Y-26604946D01*
X8038991Y-26604946D02*
X8058039Y-26576374D01*
X8058039Y-26576374D02*
X8067563Y-26566850D01*
X8124706Y-26595422D02*
X8258039Y-26595422D01*
X8258039Y-26595422D02*
X8172325Y-26795422D01*
X8324706Y-26614470D02*
X8334229Y-26604946D01*
X8334229Y-26604946D02*
X8353277Y-26595422D01*
X8353277Y-26595422D02*
X8400896Y-26595422D01*
X8400896Y-26595422D02*
X8419944Y-26604946D01*
X8419944Y-26604946D02*
X8429468Y-26614470D01*
X8429468Y-26614470D02*
X8438991Y-26633517D01*
X8438991Y-26633517D02*
X8438991Y-26652565D01*
X8438991Y-26652565D02*
X8429468Y-26681136D01*
X8429468Y-26681136D02*
X8315182Y-26795422D01*
X8315182Y-26795422D02*
X8438991Y-26795422D01*
X8677087Y-26795422D02*
X8677087Y-26595422D01*
X8762801Y-26795422D02*
X8762801Y-26690660D01*
X8762801Y-26690660D02*
X8753277Y-26671612D01*
X8753277Y-26671612D02*
X8734230Y-26662089D01*
X8734230Y-26662089D02*
X8705658Y-26662089D01*
X8705658Y-26662089D02*
X8686611Y-26671612D01*
X8686611Y-26671612D02*
X8677087Y-26681136D01*
X8886611Y-26795422D02*
X8867563Y-26785898D01*
X8867563Y-26785898D02*
X8858039Y-26776374D01*
X8858039Y-26776374D02*
X8848515Y-26757327D01*
X8848515Y-26757327D02*
X8848515Y-26700184D01*
X8848515Y-26700184D02*
X8858039Y-26681136D01*
X8858039Y-26681136D02*
X8867563Y-26671612D01*
X8867563Y-26671612D02*
X8886611Y-26662089D01*
X8886611Y-26662089D02*
X8915182Y-26662089D01*
X8915182Y-26662089D02*
X8934230Y-26671612D01*
X8934230Y-26671612D02*
X8943753Y-26681136D01*
X8943753Y-26681136D02*
X8953277Y-26700184D01*
X8953277Y-26700184D02*
X8953277Y-26757327D01*
X8953277Y-26757327D02*
X8943753Y-26776374D01*
X8943753Y-26776374D02*
X8934230Y-26785898D01*
X8934230Y-26785898D02*
X8915182Y-26795422D01*
X8915182Y-26795422D02*
X8886611Y-26795422D01*
X9067563Y-26795422D02*
X9048515Y-26785898D01*
X9048515Y-26785898D02*
X9038992Y-26766850D01*
X9038992Y-26766850D02*
X9038992Y-26595422D01*
X9219944Y-26785898D02*
X9200896Y-26795422D01*
X9200896Y-26795422D02*
X9162801Y-26795422D01*
X9162801Y-26795422D02*
X9143753Y-26785898D01*
X9143753Y-26785898D02*
X9134230Y-26766850D01*
X9134230Y-26766850D02*
X9134230Y-26690660D01*
X9134230Y-26690660D02*
X9143753Y-26671612D01*
X9143753Y-26671612D02*
X9162801Y-26662089D01*
X9162801Y-26662089D02*
X9200896Y-26662089D01*
X9200896Y-26662089D02*
X9219944Y-26671612D01*
X9219944Y-26671612D02*
X9229468Y-26690660D01*
X9229468Y-26690660D02*
X9229468Y-26709708D01*
X9229468Y-26709708D02*
X9134230Y-26728755D01*
X9305658Y-26785898D02*
X9324706Y-26795422D01*
X9324706Y-26795422D02*
X9362801Y-26795422D01*
X9362801Y-26795422D02*
X9381849Y-26785898D01*
X9381849Y-26785898D02*
X9391373Y-26766850D01*
X9391373Y-26766850D02*
X9391373Y-26757327D01*
X9391373Y-26757327D02*
X9381849Y-26738279D01*
X9381849Y-26738279D02*
X9362801Y-26728755D01*
X9362801Y-26728755D02*
X9334230Y-26728755D01*
X9334230Y-26728755D02*
X9315182Y-26719231D01*
X9315182Y-26719231D02*
X9305658Y-26700184D01*
X9305658Y-26700184D02*
X9305658Y-26690660D01*
X9305658Y-26690660D02*
X9315182Y-26671612D01*
X9315182Y-26671612D02*
X9334230Y-26662089D01*
X9334230Y-26662089D02*
X9362801Y-26662089D01*
X9362801Y-26662089D02*
X9381849Y-26671612D01*
X9458039Y-26871612D02*
X9467563Y-26862089D01*
X9467563Y-26862089D02*
X9486611Y-26833517D01*
X9486611Y-26833517D02*
X9496134Y-26814470D01*
X9496134Y-26814470D02*
X9505658Y-26785898D01*
X9505658Y-26785898D02*
X9515182Y-26738279D01*
X9515182Y-26738279D02*
X9515182Y-26700184D01*
X9515182Y-26700184D02*
X9505658Y-26652565D01*
X9505658Y-26652565D02*
X9496134Y-26623993D01*
X9496134Y-26623993D02*
X9486611Y-26604946D01*
X9486611Y-26604946D02*
X9467563Y-26576374D01*
X9467563Y-26576374D02*
X9458039Y-26566850D01*
X4292500Y-26867938D02*
X4492500Y-27067938D01*
X4492500Y-26867938D02*
X4292500Y-27067938D01*
X4463211Y-27038650D02*
X4463211Y-26897227D01*
X4321789Y-26897227D01*
X4321789Y-27038650D01*
X4463211Y-27038650D01*
X4743753Y-26878470D02*
X4753277Y-26868946D01*
X4753277Y-26868946D02*
X4772324Y-26859422D01*
X4772324Y-26859422D02*
X4819944Y-26859422D01*
X4819944Y-26859422D02*
X4838991Y-26868946D01*
X4838991Y-26868946D02*
X4848515Y-26878470D01*
X4848515Y-26878470D02*
X4858039Y-26897517D01*
X4858039Y-26897517D02*
X4858039Y-26916565D01*
X4858039Y-26916565D02*
X4848515Y-26945136D01*
X4848515Y-26945136D02*
X4734229Y-27059422D01*
X4734229Y-27059422D02*
X4858039Y-27059422D01*
X4943753Y-27040374D02*
X4953277Y-27049898D01*
X4953277Y-27049898D02*
X4943753Y-27059422D01*
X4943753Y-27059422D02*
X4934229Y-27049898D01*
X4934229Y-27049898D02*
X4943753Y-27040374D01*
X4943753Y-27040374D02*
X4943753Y-27059422D01*
X5029467Y-26878470D02*
X5038991Y-26868946D01*
X5038991Y-26868946D02*
X5058039Y-26859422D01*
X5058039Y-26859422D02*
X5105658Y-26859422D01*
X5105658Y-26859422D02*
X5124705Y-26868946D01*
X5124705Y-26868946D02*
X5134229Y-26878470D01*
X5134229Y-26878470D02*
X5143753Y-26897517D01*
X5143753Y-26897517D02*
X5143753Y-26916565D01*
X5143753Y-26916565D02*
X5134229Y-26945136D01*
X5134229Y-26945136D02*
X5019944Y-27059422D01*
X5019944Y-27059422D02*
X5143753Y-27059422D01*
X5267563Y-26859422D02*
X5286610Y-26859422D01*
X5286610Y-26859422D02*
X5305658Y-26868946D01*
X5305658Y-26868946D02*
X5315182Y-26878470D01*
X5315182Y-26878470D02*
X5324705Y-26897517D01*
X5324705Y-26897517D02*
X5334229Y-26935612D01*
X5334229Y-26935612D02*
X5334229Y-26983231D01*
X5334229Y-26983231D02*
X5324705Y-27021327D01*
X5324705Y-27021327D02*
X5315182Y-27040374D01*
X5315182Y-27040374D02*
X5305658Y-27049898D01*
X5305658Y-27049898D02*
X5286610Y-27059422D01*
X5286610Y-27059422D02*
X5267563Y-27059422D01*
X5267563Y-27059422D02*
X5248515Y-27049898D01*
X5248515Y-27049898D02*
X5238991Y-27040374D01*
X5238991Y-27040374D02*
X5229467Y-27021327D01*
X5229467Y-27021327D02*
X5219944Y-26983231D01*
X5219944Y-26983231D02*
X5219944Y-26935612D01*
X5219944Y-26935612D02*
X5229467Y-26897517D01*
X5229467Y-26897517D02*
X5238991Y-26878470D01*
X5238991Y-26878470D02*
X5248515Y-26868946D01*
X5248515Y-26868946D02*
X5267563Y-26859422D01*
X5458039Y-26859422D02*
X5477086Y-26859422D01*
X5477086Y-26859422D02*
X5496134Y-26868946D01*
X5496134Y-26868946D02*
X5505658Y-26878470D01*
X5505658Y-26878470D02*
X5515182Y-26897517D01*
X5515182Y-26897517D02*
X5524705Y-26935612D01*
X5524705Y-26935612D02*
X5524705Y-26983231D01*
X5524705Y-26983231D02*
X5515182Y-27021327D01*
X5515182Y-27021327D02*
X5505658Y-27040374D01*
X5505658Y-27040374D02*
X5496134Y-27049898D01*
X5496134Y-27049898D02*
X5477086Y-27059422D01*
X5477086Y-27059422D02*
X5458039Y-27059422D01*
X5458039Y-27059422D02*
X5438991Y-27049898D01*
X5438991Y-27049898D02*
X5429467Y-27040374D01*
X5429467Y-27040374D02*
X5419944Y-27021327D01*
X5419944Y-27021327D02*
X5410420Y-26983231D01*
X5410420Y-26983231D02*
X5410420Y-26935612D01*
X5410420Y-26935612D02*
X5419944Y-26897517D01*
X5419944Y-26897517D02*
X5429467Y-26878470D01*
X5429467Y-26878470D02*
X5438991Y-26868946D01*
X5438991Y-26868946D02*
X5458039Y-26859422D01*
X5610420Y-27059422D02*
X5610420Y-26926089D01*
X5610420Y-26945136D02*
X5619943Y-26935612D01*
X5619943Y-26935612D02*
X5638991Y-26926089D01*
X5638991Y-26926089D02*
X5667563Y-26926089D01*
X5667563Y-26926089D02*
X5686610Y-26935612D01*
X5686610Y-26935612D02*
X5696134Y-26954660D01*
X5696134Y-26954660D02*
X5696134Y-27059422D01*
X5696134Y-26954660D02*
X5705658Y-26935612D01*
X5705658Y-26935612D02*
X5724705Y-26926089D01*
X5724705Y-26926089D02*
X5753277Y-26926089D01*
X5753277Y-26926089D02*
X5772324Y-26935612D01*
X5772324Y-26935612D02*
X5781848Y-26954660D01*
X5781848Y-26954660D02*
X5781848Y-27059422D01*
X5877086Y-27059422D02*
X5877086Y-26926089D01*
X5877086Y-26945136D02*
X5886610Y-26935612D01*
X5886610Y-26935612D02*
X5905658Y-26926089D01*
X5905658Y-26926089D02*
X5934229Y-26926089D01*
X5934229Y-26926089D02*
X5953277Y-26935612D01*
X5953277Y-26935612D02*
X5962801Y-26954660D01*
X5962801Y-26954660D02*
X5962801Y-27059422D01*
X5962801Y-26954660D02*
X5972324Y-26935612D01*
X5972324Y-26935612D02*
X5991372Y-26926089D01*
X5991372Y-26926089D02*
X6019943Y-26926089D01*
X6019943Y-26926089D02*
X6038991Y-26935612D01*
X6038991Y-26935612D02*
X6048515Y-26954660D01*
X6048515Y-26954660D02*
X6048515Y-27059422D01*
X6438991Y-26849898D02*
X6267563Y-27107041D01*
X6696134Y-26859422D02*
X6715182Y-26859422D01*
X6715182Y-26859422D02*
X6734229Y-26868946D01*
X6734229Y-26868946D02*
X6743753Y-26878470D01*
X6743753Y-26878470D02*
X6753277Y-26897517D01*
X6753277Y-26897517D02*
X6762801Y-26935612D01*
X6762801Y-26935612D02*
X6762801Y-26983231D01*
X6762801Y-26983231D02*
X6753277Y-27021327D01*
X6753277Y-27021327D02*
X6743753Y-27040374D01*
X6743753Y-27040374D02*
X6734229Y-27049898D01*
X6734229Y-27049898D02*
X6715182Y-27059422D01*
X6715182Y-27059422D02*
X6696134Y-27059422D01*
X6696134Y-27059422D02*
X6677086Y-27049898D01*
X6677086Y-27049898D02*
X6667563Y-27040374D01*
X6667563Y-27040374D02*
X6658039Y-27021327D01*
X6658039Y-27021327D02*
X6648515Y-26983231D01*
X6648515Y-26983231D02*
X6648515Y-26935612D01*
X6648515Y-26935612D02*
X6658039Y-26897517D01*
X6658039Y-26897517D02*
X6667563Y-26878470D01*
X6667563Y-26878470D02*
X6677086Y-26868946D01*
X6677086Y-26868946D02*
X6696134Y-26859422D01*
X6848515Y-27040374D02*
X6858039Y-27049898D01*
X6858039Y-27049898D02*
X6848515Y-27059422D01*
X6848515Y-27059422D02*
X6838991Y-27049898D01*
X6838991Y-27049898D02*
X6848515Y-27040374D01*
X6848515Y-27040374D02*
X6848515Y-27059422D01*
X6981848Y-26859422D02*
X7000896Y-26859422D01*
X7000896Y-26859422D02*
X7019944Y-26868946D01*
X7019944Y-26868946D02*
X7029467Y-26878470D01*
X7029467Y-26878470D02*
X7038991Y-26897517D01*
X7038991Y-26897517D02*
X7048515Y-26935612D01*
X7048515Y-26935612D02*
X7048515Y-26983231D01*
X7048515Y-26983231D02*
X7038991Y-27021327D01*
X7038991Y-27021327D02*
X7029467Y-27040374D01*
X7029467Y-27040374D02*
X7019944Y-27049898D01*
X7019944Y-27049898D02*
X7000896Y-27059422D01*
X7000896Y-27059422D02*
X6981848Y-27059422D01*
X6981848Y-27059422D02*
X6962801Y-27049898D01*
X6962801Y-27049898D02*
X6953277Y-27040374D01*
X6953277Y-27040374D02*
X6943753Y-27021327D01*
X6943753Y-27021327D02*
X6934229Y-26983231D01*
X6934229Y-26983231D02*
X6934229Y-26935612D01*
X6934229Y-26935612D02*
X6943753Y-26897517D01*
X6943753Y-26897517D02*
X6953277Y-26878470D01*
X6953277Y-26878470D02*
X6962801Y-26868946D01*
X6962801Y-26868946D02*
X6981848Y-26859422D01*
X7162801Y-26945136D02*
X7143753Y-26935612D01*
X7143753Y-26935612D02*
X7134229Y-26926089D01*
X7134229Y-26926089D02*
X7124706Y-26907041D01*
X7124706Y-26907041D02*
X7124706Y-26897517D01*
X7124706Y-26897517D02*
X7134229Y-26878470D01*
X7134229Y-26878470D02*
X7143753Y-26868946D01*
X7143753Y-26868946D02*
X7162801Y-26859422D01*
X7162801Y-26859422D02*
X7200896Y-26859422D01*
X7200896Y-26859422D02*
X7219944Y-26868946D01*
X7219944Y-26868946D02*
X7229467Y-26878470D01*
X7229467Y-26878470D02*
X7238991Y-26897517D01*
X7238991Y-26897517D02*
X7238991Y-26907041D01*
X7238991Y-26907041D02*
X7229467Y-26926089D01*
X7229467Y-26926089D02*
X7219944Y-26935612D01*
X7219944Y-26935612D02*
X7200896Y-26945136D01*
X7200896Y-26945136D02*
X7162801Y-26945136D01*
X7162801Y-26945136D02*
X7143753Y-26954660D01*
X7143753Y-26954660D02*
X7134229Y-26964184D01*
X7134229Y-26964184D02*
X7124706Y-26983231D01*
X7124706Y-26983231D02*
X7124706Y-27021327D01*
X7124706Y-27021327D02*
X7134229Y-27040374D01*
X7134229Y-27040374D02*
X7143753Y-27049898D01*
X7143753Y-27049898D02*
X7162801Y-27059422D01*
X7162801Y-27059422D02*
X7200896Y-27059422D01*
X7200896Y-27059422D02*
X7219944Y-27049898D01*
X7219944Y-27049898D02*
X7229467Y-27040374D01*
X7229467Y-27040374D02*
X7238991Y-27021327D01*
X7238991Y-27021327D02*
X7238991Y-26983231D01*
X7238991Y-26983231D02*
X7229467Y-26964184D01*
X7229467Y-26964184D02*
X7219944Y-26954660D01*
X7219944Y-26954660D02*
X7200896Y-26945136D01*
X7410420Y-26859422D02*
X7372325Y-26859422D01*
X7372325Y-26859422D02*
X7353277Y-26868946D01*
X7353277Y-26868946D02*
X7343753Y-26878470D01*
X7343753Y-26878470D02*
X7324706Y-26907041D01*
X7324706Y-26907041D02*
X7315182Y-26945136D01*
X7315182Y-26945136D02*
X7315182Y-27021327D01*
X7315182Y-27021327D02*
X7324706Y-27040374D01*
X7324706Y-27040374D02*
X7334229Y-27049898D01*
X7334229Y-27049898D02*
X7353277Y-27059422D01*
X7353277Y-27059422D02*
X7391372Y-27059422D01*
X7391372Y-27059422D02*
X7410420Y-27049898D01*
X7410420Y-27049898D02*
X7419944Y-27040374D01*
X7419944Y-27040374D02*
X7429467Y-27021327D01*
X7429467Y-27021327D02*
X7429467Y-26973708D01*
X7429467Y-26973708D02*
X7419944Y-26954660D01*
X7419944Y-26954660D02*
X7410420Y-26945136D01*
X7410420Y-26945136D02*
X7391372Y-26935612D01*
X7391372Y-26935612D02*
X7353277Y-26935612D01*
X7353277Y-26935612D02*
X7334229Y-26945136D01*
X7334229Y-26945136D02*
X7324706Y-26954660D01*
X7324706Y-26954660D02*
X7315182Y-26973708D01*
X7600896Y-26859422D02*
X7562801Y-26859422D01*
X7562801Y-26859422D02*
X7543753Y-26868946D01*
X7543753Y-26868946D02*
X7534229Y-26878470D01*
X7534229Y-26878470D02*
X7515182Y-26907041D01*
X7515182Y-26907041D02*
X7505658Y-26945136D01*
X7505658Y-26945136D02*
X7505658Y-27021327D01*
X7505658Y-27021327D02*
X7515182Y-27040374D01*
X7515182Y-27040374D02*
X7524706Y-27049898D01*
X7524706Y-27049898D02*
X7543753Y-27059422D01*
X7543753Y-27059422D02*
X7581848Y-27059422D01*
X7581848Y-27059422D02*
X7600896Y-27049898D01*
X7600896Y-27049898D02*
X7610420Y-27040374D01*
X7610420Y-27040374D02*
X7619944Y-27021327D01*
X7619944Y-27021327D02*
X7619944Y-26973708D01*
X7619944Y-26973708D02*
X7610420Y-26954660D01*
X7610420Y-26954660D02*
X7600896Y-26945136D01*
X7600896Y-26945136D02*
X7581848Y-26935612D01*
X7581848Y-26935612D02*
X7543753Y-26935612D01*
X7543753Y-26935612D02*
X7524706Y-26945136D01*
X7524706Y-26945136D02*
X7515182Y-26954660D01*
X7515182Y-26954660D02*
X7505658Y-26973708D01*
X7696134Y-26859422D02*
X7696134Y-26897517D01*
X7772325Y-26859422D02*
X7772325Y-26897517D01*
X8067563Y-27135612D02*
X8058039Y-27126089D01*
X8058039Y-27126089D02*
X8038991Y-27097517D01*
X8038991Y-27097517D02*
X8029468Y-27078470D01*
X8029468Y-27078470D02*
X8019944Y-27049898D01*
X8019944Y-27049898D02*
X8010420Y-27002279D01*
X8010420Y-27002279D02*
X8010420Y-26964184D01*
X8010420Y-26964184D02*
X8019944Y-26916565D01*
X8019944Y-26916565D02*
X8029468Y-26887993D01*
X8029468Y-26887993D02*
X8038991Y-26868946D01*
X8038991Y-26868946D02*
X8058039Y-26840374D01*
X8058039Y-26840374D02*
X8067563Y-26830850D01*
X8248515Y-27059422D02*
X8134229Y-27059422D01*
X8191372Y-27059422D02*
X8191372Y-26859422D01*
X8191372Y-26859422D02*
X8172325Y-26887993D01*
X8172325Y-26887993D02*
X8153277Y-26907041D01*
X8153277Y-26907041D02*
X8134229Y-26916565D01*
X8372325Y-26859422D02*
X8391372Y-26859422D01*
X8391372Y-26859422D02*
X8410420Y-26868946D01*
X8410420Y-26868946D02*
X8419944Y-26878470D01*
X8419944Y-26878470D02*
X8429468Y-26897517D01*
X8429468Y-26897517D02*
X8438991Y-26935612D01*
X8438991Y-26935612D02*
X8438991Y-26983231D01*
X8438991Y-26983231D02*
X8429468Y-27021327D01*
X8429468Y-27021327D02*
X8419944Y-27040374D01*
X8419944Y-27040374D02*
X8410420Y-27049898D01*
X8410420Y-27049898D02*
X8391372Y-27059422D01*
X8391372Y-27059422D02*
X8372325Y-27059422D01*
X8372325Y-27059422D02*
X8353277Y-27049898D01*
X8353277Y-27049898D02*
X8343753Y-27040374D01*
X8343753Y-27040374D02*
X8334229Y-27021327D01*
X8334229Y-27021327D02*
X8324706Y-26983231D01*
X8324706Y-26983231D02*
X8324706Y-26935612D01*
X8324706Y-26935612D02*
X8334229Y-26897517D01*
X8334229Y-26897517D02*
X8343753Y-26878470D01*
X8343753Y-26878470D02*
X8353277Y-26868946D01*
X8353277Y-26868946D02*
X8372325Y-26859422D01*
X8677087Y-27059422D02*
X8677087Y-26859422D01*
X8762801Y-27059422D02*
X8762801Y-26954660D01*
X8762801Y-26954660D02*
X8753277Y-26935612D01*
X8753277Y-26935612D02*
X8734230Y-26926089D01*
X8734230Y-26926089D02*
X8705658Y-26926089D01*
X8705658Y-26926089D02*
X8686611Y-26935612D01*
X8686611Y-26935612D02*
X8677087Y-26945136D01*
X8886611Y-27059422D02*
X8867563Y-27049898D01*
X8867563Y-27049898D02*
X8858039Y-27040374D01*
X8858039Y-27040374D02*
X8848515Y-27021327D01*
X8848515Y-27021327D02*
X8848515Y-26964184D01*
X8848515Y-26964184D02*
X8858039Y-26945136D01*
X8858039Y-26945136D02*
X8867563Y-26935612D01*
X8867563Y-26935612D02*
X8886611Y-26926089D01*
X8886611Y-26926089D02*
X8915182Y-26926089D01*
X8915182Y-26926089D02*
X8934230Y-26935612D01*
X8934230Y-26935612D02*
X8943753Y-26945136D01*
X8943753Y-26945136D02*
X8953277Y-26964184D01*
X8953277Y-26964184D02*
X8953277Y-27021327D01*
X8953277Y-27021327D02*
X8943753Y-27040374D01*
X8943753Y-27040374D02*
X8934230Y-27049898D01*
X8934230Y-27049898D02*
X8915182Y-27059422D01*
X8915182Y-27059422D02*
X8886611Y-27059422D01*
X9067563Y-27059422D02*
X9048515Y-27049898D01*
X9048515Y-27049898D02*
X9038992Y-27030850D01*
X9038992Y-27030850D02*
X9038992Y-26859422D01*
X9219944Y-27049898D02*
X9200896Y-27059422D01*
X9200896Y-27059422D02*
X9162801Y-27059422D01*
X9162801Y-27059422D02*
X9143753Y-27049898D01*
X9143753Y-27049898D02*
X9134230Y-27030850D01*
X9134230Y-27030850D02*
X9134230Y-26954660D01*
X9134230Y-26954660D02*
X9143753Y-26935612D01*
X9143753Y-26935612D02*
X9162801Y-26926089D01*
X9162801Y-26926089D02*
X9200896Y-26926089D01*
X9200896Y-26926089D02*
X9219944Y-26935612D01*
X9219944Y-26935612D02*
X9229468Y-26954660D01*
X9229468Y-26954660D02*
X9229468Y-26973708D01*
X9229468Y-26973708D02*
X9134230Y-26992755D01*
X9305658Y-27049898D02*
X9324706Y-27059422D01*
X9324706Y-27059422D02*
X9362801Y-27059422D01*
X9362801Y-27059422D02*
X9381849Y-27049898D01*
X9381849Y-27049898D02*
X9391373Y-27030850D01*
X9391373Y-27030850D02*
X9391373Y-27021327D01*
X9391373Y-27021327D02*
X9381849Y-27002279D01*
X9381849Y-27002279D02*
X9362801Y-26992755D01*
X9362801Y-26992755D02*
X9334230Y-26992755D01*
X9334230Y-26992755D02*
X9315182Y-26983231D01*
X9315182Y-26983231D02*
X9305658Y-26964184D01*
X9305658Y-26964184D02*
X9305658Y-26954660D01*
X9305658Y-26954660D02*
X9315182Y-26935612D01*
X9315182Y-26935612D02*
X9334230Y-26926089D01*
X9334230Y-26926089D02*
X9362801Y-26926089D01*
X9362801Y-26926089D02*
X9381849Y-26935612D01*
X9458039Y-27135612D02*
X9467563Y-27126089D01*
X9467563Y-27126089D02*
X9486611Y-27097517D01*
X9486611Y-27097517D02*
X9496134Y-27078470D01*
X9496134Y-27078470D02*
X9505658Y-27049898D01*
X9505658Y-27049898D02*
X9515182Y-27002279D01*
X9515182Y-27002279D02*
X9515182Y-26964184D01*
X9515182Y-26964184D02*
X9505658Y-26916565D01*
X9505658Y-26916565D02*
X9496134Y-26887993D01*
X9496134Y-26887993D02*
X9486611Y-26868946D01*
X9486611Y-26868946D02*
X9467563Y-26840374D01*
X9467563Y-26840374D02*
X9458039Y-26830850D01*
X4292500Y-27187938D02*
X4492500Y-27387938D01*
X4492500Y-27187938D02*
X4292500Y-27387938D01*
X4392500Y-27387938D02*
X4492500Y-27287938D01*
X4392500Y-27187938D01*
X4292500Y-27287938D01*
X4392500Y-27387938D01*
X4838991Y-27246089D02*
X4838991Y-27379422D01*
X4791372Y-27169898D02*
X4743753Y-27312755D01*
X4743753Y-27312755D02*
X4867563Y-27312755D01*
X4943753Y-27360374D02*
X4953277Y-27369898D01*
X4953277Y-27369898D02*
X4943753Y-27379422D01*
X4943753Y-27379422D02*
X4934229Y-27369898D01*
X4934229Y-27369898D02*
X4943753Y-27360374D01*
X4943753Y-27360374D02*
X4943753Y-27379422D01*
X5019944Y-27179422D02*
X5143753Y-27179422D01*
X5143753Y-27179422D02*
X5077086Y-27255612D01*
X5077086Y-27255612D02*
X5105658Y-27255612D01*
X5105658Y-27255612D02*
X5124705Y-27265136D01*
X5124705Y-27265136D02*
X5134229Y-27274660D01*
X5134229Y-27274660D02*
X5143753Y-27293708D01*
X5143753Y-27293708D02*
X5143753Y-27341327D01*
X5143753Y-27341327D02*
X5134229Y-27360374D01*
X5134229Y-27360374D02*
X5124705Y-27369898D01*
X5124705Y-27369898D02*
X5105658Y-27379422D01*
X5105658Y-27379422D02*
X5048515Y-27379422D01*
X5048515Y-27379422D02*
X5029467Y-27369898D01*
X5029467Y-27369898D02*
X5019944Y-27360374D01*
X5267563Y-27179422D02*
X5286610Y-27179422D01*
X5286610Y-27179422D02*
X5305658Y-27188946D01*
X5305658Y-27188946D02*
X5315182Y-27198470D01*
X5315182Y-27198470D02*
X5324705Y-27217517D01*
X5324705Y-27217517D02*
X5334229Y-27255612D01*
X5334229Y-27255612D02*
X5334229Y-27303231D01*
X5334229Y-27303231D02*
X5324705Y-27341327D01*
X5324705Y-27341327D02*
X5315182Y-27360374D01*
X5315182Y-27360374D02*
X5305658Y-27369898D01*
X5305658Y-27369898D02*
X5286610Y-27379422D01*
X5286610Y-27379422D02*
X5267563Y-27379422D01*
X5267563Y-27379422D02*
X5248515Y-27369898D01*
X5248515Y-27369898D02*
X5238991Y-27360374D01*
X5238991Y-27360374D02*
X5229467Y-27341327D01*
X5229467Y-27341327D02*
X5219944Y-27303231D01*
X5219944Y-27303231D02*
X5219944Y-27255612D01*
X5219944Y-27255612D02*
X5229467Y-27217517D01*
X5229467Y-27217517D02*
X5238991Y-27198470D01*
X5238991Y-27198470D02*
X5248515Y-27188946D01*
X5248515Y-27188946D02*
X5267563Y-27179422D01*
X5458039Y-27179422D02*
X5477086Y-27179422D01*
X5477086Y-27179422D02*
X5496134Y-27188946D01*
X5496134Y-27188946D02*
X5505658Y-27198470D01*
X5505658Y-27198470D02*
X5515182Y-27217517D01*
X5515182Y-27217517D02*
X5524705Y-27255612D01*
X5524705Y-27255612D02*
X5524705Y-27303231D01*
X5524705Y-27303231D02*
X5515182Y-27341327D01*
X5515182Y-27341327D02*
X5505658Y-27360374D01*
X5505658Y-27360374D02*
X5496134Y-27369898D01*
X5496134Y-27369898D02*
X5477086Y-27379422D01*
X5477086Y-27379422D02*
X5458039Y-27379422D01*
X5458039Y-27379422D02*
X5438991Y-27369898D01*
X5438991Y-27369898D02*
X5429467Y-27360374D01*
X5429467Y-27360374D02*
X5419944Y-27341327D01*
X5419944Y-27341327D02*
X5410420Y-27303231D01*
X5410420Y-27303231D02*
X5410420Y-27255612D01*
X5410420Y-27255612D02*
X5419944Y-27217517D01*
X5419944Y-27217517D02*
X5429467Y-27198470D01*
X5429467Y-27198470D02*
X5438991Y-27188946D01*
X5438991Y-27188946D02*
X5458039Y-27179422D01*
X5610420Y-27379422D02*
X5610420Y-27246089D01*
X5610420Y-27265136D02*
X5619943Y-27255612D01*
X5619943Y-27255612D02*
X5638991Y-27246089D01*
X5638991Y-27246089D02*
X5667563Y-27246089D01*
X5667563Y-27246089D02*
X5686610Y-27255612D01*
X5686610Y-27255612D02*
X5696134Y-27274660D01*
X5696134Y-27274660D02*
X5696134Y-27379422D01*
X5696134Y-27274660D02*
X5705658Y-27255612D01*
X5705658Y-27255612D02*
X5724705Y-27246089D01*
X5724705Y-27246089D02*
X5753277Y-27246089D01*
X5753277Y-27246089D02*
X5772324Y-27255612D01*
X5772324Y-27255612D02*
X5781848Y-27274660D01*
X5781848Y-27274660D02*
X5781848Y-27379422D01*
X5877086Y-27379422D02*
X5877086Y-27246089D01*
X5877086Y-27265136D02*
X5886610Y-27255612D01*
X5886610Y-27255612D02*
X5905658Y-27246089D01*
X5905658Y-27246089D02*
X5934229Y-27246089D01*
X5934229Y-27246089D02*
X5953277Y-27255612D01*
X5953277Y-27255612D02*
X5962801Y-27274660D01*
X5962801Y-27274660D02*
X5962801Y-27379422D01*
X5962801Y-27274660D02*
X5972324Y-27255612D01*
X5972324Y-27255612D02*
X5991372Y-27246089D01*
X5991372Y-27246089D02*
X6019943Y-27246089D01*
X6019943Y-27246089D02*
X6038991Y-27255612D01*
X6038991Y-27255612D02*
X6048515Y-27274660D01*
X6048515Y-27274660D02*
X6048515Y-27379422D01*
X6438991Y-27169898D02*
X6267563Y-27427041D01*
X6696134Y-27179422D02*
X6715182Y-27179422D01*
X6715182Y-27179422D02*
X6734229Y-27188946D01*
X6734229Y-27188946D02*
X6743753Y-27198470D01*
X6743753Y-27198470D02*
X6753277Y-27217517D01*
X6753277Y-27217517D02*
X6762801Y-27255612D01*
X6762801Y-27255612D02*
X6762801Y-27303231D01*
X6762801Y-27303231D02*
X6753277Y-27341327D01*
X6753277Y-27341327D02*
X6743753Y-27360374D01*
X6743753Y-27360374D02*
X6734229Y-27369898D01*
X6734229Y-27369898D02*
X6715182Y-27379422D01*
X6715182Y-27379422D02*
X6696134Y-27379422D01*
X6696134Y-27379422D02*
X6677086Y-27369898D01*
X6677086Y-27369898D02*
X6667563Y-27360374D01*
X6667563Y-27360374D02*
X6658039Y-27341327D01*
X6658039Y-27341327D02*
X6648515Y-27303231D01*
X6648515Y-27303231D02*
X6648515Y-27255612D01*
X6648515Y-27255612D02*
X6658039Y-27217517D01*
X6658039Y-27217517D02*
X6667563Y-27198470D01*
X6667563Y-27198470D02*
X6677086Y-27188946D01*
X6677086Y-27188946D02*
X6696134Y-27179422D01*
X6848515Y-27360374D02*
X6858039Y-27369898D01*
X6858039Y-27369898D02*
X6848515Y-27379422D01*
X6848515Y-27379422D02*
X6838991Y-27369898D01*
X6838991Y-27369898D02*
X6848515Y-27360374D01*
X6848515Y-27360374D02*
X6848515Y-27379422D01*
X7048515Y-27379422D02*
X6934229Y-27379422D01*
X6991372Y-27379422D02*
X6991372Y-27179422D01*
X6991372Y-27179422D02*
X6972325Y-27207993D01*
X6972325Y-27207993D02*
X6953277Y-27227041D01*
X6953277Y-27227041D02*
X6934229Y-27236565D01*
X7219944Y-27179422D02*
X7181848Y-27179422D01*
X7181848Y-27179422D02*
X7162801Y-27188946D01*
X7162801Y-27188946D02*
X7153277Y-27198470D01*
X7153277Y-27198470D02*
X7134229Y-27227041D01*
X7134229Y-27227041D02*
X7124706Y-27265136D01*
X7124706Y-27265136D02*
X7124706Y-27341327D01*
X7124706Y-27341327D02*
X7134229Y-27360374D01*
X7134229Y-27360374D02*
X7143753Y-27369898D01*
X7143753Y-27369898D02*
X7162801Y-27379422D01*
X7162801Y-27379422D02*
X7200896Y-27379422D01*
X7200896Y-27379422D02*
X7219944Y-27369898D01*
X7219944Y-27369898D02*
X7229467Y-27360374D01*
X7229467Y-27360374D02*
X7238991Y-27341327D01*
X7238991Y-27341327D02*
X7238991Y-27293708D01*
X7238991Y-27293708D02*
X7229467Y-27274660D01*
X7229467Y-27274660D02*
X7219944Y-27265136D01*
X7219944Y-27265136D02*
X7200896Y-27255612D01*
X7200896Y-27255612D02*
X7162801Y-27255612D01*
X7162801Y-27255612D02*
X7143753Y-27265136D01*
X7143753Y-27265136D02*
X7134229Y-27274660D01*
X7134229Y-27274660D02*
X7124706Y-27293708D01*
X7334229Y-27379422D02*
X7372325Y-27379422D01*
X7372325Y-27379422D02*
X7391372Y-27369898D01*
X7391372Y-27369898D02*
X7400896Y-27360374D01*
X7400896Y-27360374D02*
X7419944Y-27331803D01*
X7419944Y-27331803D02*
X7429467Y-27293708D01*
X7429467Y-27293708D02*
X7429467Y-27217517D01*
X7429467Y-27217517D02*
X7419944Y-27198470D01*
X7419944Y-27198470D02*
X7410420Y-27188946D01*
X7410420Y-27188946D02*
X7391372Y-27179422D01*
X7391372Y-27179422D02*
X7353277Y-27179422D01*
X7353277Y-27179422D02*
X7334229Y-27188946D01*
X7334229Y-27188946D02*
X7324706Y-27198470D01*
X7324706Y-27198470D02*
X7315182Y-27217517D01*
X7315182Y-27217517D02*
X7315182Y-27265136D01*
X7315182Y-27265136D02*
X7324706Y-27284184D01*
X7324706Y-27284184D02*
X7334229Y-27293708D01*
X7334229Y-27293708D02*
X7353277Y-27303231D01*
X7353277Y-27303231D02*
X7391372Y-27303231D01*
X7391372Y-27303231D02*
X7410420Y-27293708D01*
X7410420Y-27293708D02*
X7419944Y-27284184D01*
X7419944Y-27284184D02*
X7429467Y-27265136D01*
X7496134Y-27179422D02*
X7619944Y-27179422D01*
X7619944Y-27179422D02*
X7553277Y-27255612D01*
X7553277Y-27255612D02*
X7581848Y-27255612D01*
X7581848Y-27255612D02*
X7600896Y-27265136D01*
X7600896Y-27265136D02*
X7610420Y-27274660D01*
X7610420Y-27274660D02*
X7619944Y-27293708D01*
X7619944Y-27293708D02*
X7619944Y-27341327D01*
X7619944Y-27341327D02*
X7610420Y-27360374D01*
X7610420Y-27360374D02*
X7600896Y-27369898D01*
X7600896Y-27369898D02*
X7581848Y-27379422D01*
X7581848Y-27379422D02*
X7524706Y-27379422D01*
X7524706Y-27379422D02*
X7505658Y-27369898D01*
X7505658Y-27369898D02*
X7496134Y-27360374D01*
X7696134Y-27179422D02*
X7696134Y-27217517D01*
X7772325Y-27179422D02*
X7772325Y-27217517D01*
X8067563Y-27455612D02*
X8058039Y-27446089D01*
X8058039Y-27446089D02*
X8038991Y-27417517D01*
X8038991Y-27417517D02*
X8029468Y-27398470D01*
X8029468Y-27398470D02*
X8019944Y-27369898D01*
X8019944Y-27369898D02*
X8010420Y-27322279D01*
X8010420Y-27322279D02*
X8010420Y-27284184D01*
X8010420Y-27284184D02*
X8019944Y-27236565D01*
X8019944Y-27236565D02*
X8029468Y-27207993D01*
X8029468Y-27207993D02*
X8038991Y-27188946D01*
X8038991Y-27188946D02*
X8058039Y-27160374D01*
X8058039Y-27160374D02*
X8067563Y-27150850D01*
X8238991Y-27179422D02*
X8143753Y-27179422D01*
X8143753Y-27179422D02*
X8134229Y-27274660D01*
X8134229Y-27274660D02*
X8143753Y-27265136D01*
X8143753Y-27265136D02*
X8162801Y-27255612D01*
X8162801Y-27255612D02*
X8210420Y-27255612D01*
X8210420Y-27255612D02*
X8229468Y-27265136D01*
X8229468Y-27265136D02*
X8238991Y-27274660D01*
X8238991Y-27274660D02*
X8248515Y-27293708D01*
X8248515Y-27293708D02*
X8248515Y-27341327D01*
X8248515Y-27341327D02*
X8238991Y-27360374D01*
X8238991Y-27360374D02*
X8229468Y-27369898D01*
X8229468Y-27369898D02*
X8210420Y-27379422D01*
X8210420Y-27379422D02*
X8162801Y-27379422D01*
X8162801Y-27379422D02*
X8143753Y-27369898D01*
X8143753Y-27369898D02*
X8134229Y-27360374D01*
X8486611Y-27379422D02*
X8486611Y-27179422D01*
X8572325Y-27379422D02*
X8572325Y-27274660D01*
X8572325Y-27274660D02*
X8562801Y-27255612D01*
X8562801Y-27255612D02*
X8543753Y-27246089D01*
X8543753Y-27246089D02*
X8515182Y-27246089D01*
X8515182Y-27246089D02*
X8496134Y-27255612D01*
X8496134Y-27255612D02*
X8486611Y-27265136D01*
X8696134Y-27379422D02*
X8677087Y-27369898D01*
X8677087Y-27369898D02*
X8667563Y-27360374D01*
X8667563Y-27360374D02*
X8658039Y-27341327D01*
X8658039Y-27341327D02*
X8658039Y-27284184D01*
X8658039Y-27284184D02*
X8667563Y-27265136D01*
X8667563Y-27265136D02*
X8677087Y-27255612D01*
X8677087Y-27255612D02*
X8696134Y-27246089D01*
X8696134Y-27246089D02*
X8724706Y-27246089D01*
X8724706Y-27246089D02*
X8743753Y-27255612D01*
X8743753Y-27255612D02*
X8753277Y-27265136D01*
X8753277Y-27265136D02*
X8762801Y-27284184D01*
X8762801Y-27284184D02*
X8762801Y-27341327D01*
X8762801Y-27341327D02*
X8753277Y-27360374D01*
X8753277Y-27360374D02*
X8743753Y-27369898D01*
X8743753Y-27369898D02*
X8724706Y-27379422D01*
X8724706Y-27379422D02*
X8696134Y-27379422D01*
X8877087Y-27379422D02*
X8858039Y-27369898D01*
X8858039Y-27369898D02*
X8848515Y-27350850D01*
X8848515Y-27350850D02*
X8848515Y-27179422D01*
X9029468Y-27369898D02*
X9010420Y-27379422D01*
X9010420Y-27379422D02*
X8972325Y-27379422D01*
X8972325Y-27379422D02*
X8953277Y-27369898D01*
X8953277Y-27369898D02*
X8943753Y-27350850D01*
X8943753Y-27350850D02*
X8943753Y-27274660D01*
X8943753Y-27274660D02*
X8953277Y-27255612D01*
X8953277Y-27255612D02*
X8972325Y-27246089D01*
X8972325Y-27246089D02*
X9010420Y-27246089D01*
X9010420Y-27246089D02*
X9029468Y-27255612D01*
X9029468Y-27255612D02*
X9038992Y-27274660D01*
X9038992Y-27274660D02*
X9038992Y-27293708D01*
X9038992Y-27293708D02*
X8943753Y-27312755D01*
X9115182Y-27369898D02*
X9134230Y-27379422D01*
X9134230Y-27379422D02*
X9172325Y-27379422D01*
X9172325Y-27379422D02*
X9191373Y-27369898D01*
X9191373Y-27369898D02*
X9200896Y-27350850D01*
X9200896Y-27350850D02*
X9200896Y-27341327D01*
X9200896Y-27341327D02*
X9191373Y-27322279D01*
X9191373Y-27322279D02*
X9172325Y-27312755D01*
X9172325Y-27312755D02*
X9143753Y-27312755D01*
X9143753Y-27312755D02*
X9124706Y-27303231D01*
X9124706Y-27303231D02*
X9115182Y-27284184D01*
X9115182Y-27284184D02*
X9115182Y-27274660D01*
X9115182Y-27274660D02*
X9124706Y-27255612D01*
X9124706Y-27255612D02*
X9143753Y-27246089D01*
X9143753Y-27246089D02*
X9172325Y-27246089D01*
X9172325Y-27246089D02*
X9191373Y-27255612D01*
X9267563Y-27455612D02*
X9277087Y-27446089D01*
X9277087Y-27446089D02*
X9296134Y-27417517D01*
X9296134Y-27417517D02*
X9305658Y-27398470D01*
X9305658Y-27398470D02*
X9315182Y-27369898D01*
X9315182Y-27369898D02*
X9324706Y-27322279D01*
X9324706Y-27322279D02*
X9324706Y-27284184D01*
X9324706Y-27284184D02*
X9315182Y-27236565D01*
X9315182Y-27236565D02*
X9305658Y-27207993D01*
X9305658Y-27207993D02*
X9296134Y-27188946D01*
X9296134Y-27188946D02*
X9277087Y-27160374D01*
X9277087Y-27160374D02*
X9267563Y-27150850D01*
M02*
