0
SECTION
2
HEADER
9
$INSUNITS
70
4
0
ENDSEC
0
SECTION
2
TABLES
0
TABLE
2
LTYPE
0
LTYPE
72
65
70
64
2
CONTINUOUS
3
______
73
0
40
0
0
ENDTAB
0
TABLE
2
LAYER
0
ENDTAB
0
ENDSEC
0
SECTION
2
ENTITIES
0
LINE
8
0
10
-9
20
-10.5
11
9
21
-10.5
0
ARC
8
0
10
9
20
-8.5
40
2
50
270
51
360
0
LINE
8
0
10
11
20
-8.5
11
11
21
-2.9
0
LINE
8
0
10
11
20
-2.9
11
28
21
-2.9
0
ARC
8
0
10
28
20
-0.9
40
2
50
270
51
360
0
LINE
8
0
10
30
20
-0.9
11
30
21
2.42
0
LINE
8
0
10
30
20
2.42
11
46
21
2.42
0
LINE
8
0
10
46
20
2.42
11
46
21
-1.85
0
ARC
8
0
10
48
20
-1.85
40
2
50
180
51
236.1143235
0
LINE
8
0
10
46.8849248
20
-3.5103034
11
48.8576741
21
-25.9650348
0
ARC
8
0
10
50.85
20
-25.79
40
2
50
185.020801
51
265.7038552
0
LINE
8
0
10
50.7008074
20
-27.7844276
11
90.0423134
21
-30.7398693
0
LINE
8
0
10
90.0423134
20
-30.7398693
11
92.5292108
21
-31.6355844
0
ARC
8
0
10
94.0382389
20
-30.3230166
40
2
50
221.0170737
51
251
0
LINE
8
0
10
93.3871026
20
-32.2140538
11
110.406437
21
-38.0742806
0
ARC
8
0
10
111.0575733
20
-36.1832434
40
2
50
251
51
341.0000007
0
LINE
8
0
10
112.9486105
20
-36.8343797
11
118.4832691
21
-20.7605639
0
ARC
8
0
10
116.5922319
20
-20.1094276
40
2
50
341.0000001
51
431.0000007
0
LINE
8
0
10
117.2433682
20
-18.2183904
11
100.2240338
21
-12.3581636
0
ARC
8
0
10
99.5728975
20
-14.2492008
40
2
50
71
51
109.7618338
0
LINE
8
0
10
98.8966753
20
-12.3669884
11
95.0803911
21
-11.1499563
0
ARC
8
0
10
93.269574
20
-11.9990391
40
2
50
385.1216384
51
440.4999988
0
LINE
8
0
10
93.5996692
20
-10.0264679
11
90.4641103
21
-9.5017553
0
LINE
8
0
10
90.4641103
20
-9.5017553
11
87
21
4.7987834
0
LINE
8
0
10
87
20
4.7987834
11
87
21
51.06
0
ARC
8
0
10
85
20
51.06
40
2
50
0
51
90
0
LINE
8
0
10
68
20
53.06
11
85
21
53.06
0
LINE
8
0
10
68
20
53.06
11
68
21
53.15
0
ARC
8
0
10
66
20
53.15
40
2
50
0
51
90
0
LINE
8
0
10
49
20
55.15
11
66
21
55.15
0
LINE
8
0
10
49
20
55.15
11
49
21
59.42
0
ARC
8
0
10
47
20
59.42
40
2
50
0
51
90
0
LINE
8
0
10
47
20
61.42
11
29
21
61.42
0
ARC
8
0
10
29
20
59.42
40
2
50
90
51
180
0
LINE
8
0
10
27
20
59.42
11
27
21
56.1
0
LINE
8
0
10
10
20
56.1
11
27
21
56.1
0
ARC
8
0
10
10
20
54.1
40
2
50
90
51
180
0
LINE
8
0
10
8
20
54.1
11
8
21
48.5
0
LINE
8
0
10
-9
20
48.5
11
8
21
48.5
0
ARC
8
0
10
-9
20
46.5
40
2
50
90
51
180
0
LINE
8
0
10
-11
20
-8.5
11
-11
21
46.5
0
ARC
8
0
10
-9
20
-8.5
40
2
50
180
51
270
0
LINE
8
0
10
-7
20
-7
11
7
21
-7
0
LINE
8
0
10
7
20
-7
11
7
21
7
0
LINE
8
0
10
7
20
7
11
-7
21
7
0
LINE
8
0
10
-7
20
7
11
-7
21
-7
0
LINE
8
0
10
-7
20
12
11
7
21
12
0
LINE
8
0
10
7
20
12
11
7
21
26
0
LINE
8
0
10
7
20
26
11
-7
21
26
0
LINE
8
0
10
-7
20
26
11
-7
21
12
0
LINE
8
0
10
-7
20
31
11
7
21
31
0
LINE
8
0
10
7
20
31
11
7
21
45
0
LINE
8
0
10
7
20
45
11
-7
21
45
0
LINE
8
0
10
-7
20
45
11
-7
21
31
0
LINE
8
0
10
12
20
0.6
11
26
21
0.6
0
LINE
8
0
10
26
20
0.6
11
26
21
14.6
0
LINE
8
0
10
26
20
14.6
11
12
21
14.6
0
LINE
8
0
10
12
20
14.6
11
12
21
0.6
0
LINE
8
0
10
12
20
19.6
11
26
21
19.6
0
LINE
8
0
10
26
20
19.6
11
26
21
33.6
0
LINE
8
0
10
26
20
33.6
11
12
21
33.6
0
LINE
8
0
10
12
20
33.6
11
12
21
19.6
0
LINE
8
0
10
12
20
38.6
11
26
21
38.6
0
LINE
8
0
10
26
20
38.6
11
26
21
52.6
0
LINE
8
0
10
26
20
52.6
11
12
21
52.6
0
LINE
8
0
10
12
20
52.6
11
12
21
38.6
0
LINE
8
0
10
31
20
5.92
11
45
21
5.92
0
LINE
8
0
10
45
20
5.92
11
45
21
19.92
0
LINE
8
0
10
45
20
19.92
11
31
21
19.92
0
LINE
8
0
10
31
20
19.92
11
31
21
5.92
0
LINE
8
0
10
31
20
24.92
11
45
21
24.92
0
LINE
8
0
10
45
20
24.92
11
45
21
38.92
0
LINE
8
0
10
45
20
38.92
11
31
21
38.92
0
LINE
8
0
10
31
20
38.92
11
31
21
24.92
0
LINE
8
0
10
31
20
43.92
11
45
21
43.92
0
LINE
8
0
10
45
20
43.92
11
45
21
57.92
0
LINE
8
0
10
45
20
57.92
11
31
21
57.92
0
LINE
8
0
10
31
20
57.92
11
31
21
43.92
0
LINE
8
0
10
50
20
-0.35
11
64
21
-0.35
0
LINE
8
0
10
64
20
-0.35
11
64
21
13.65
0
LINE
8
0
10
64
20
13.65
11
50
21
13.65
0
LINE
8
0
10
50
20
13.65
11
50
21
-0.35
0
LINE
8
0
10
50
20
18.65
11
64
21
18.65
0
LINE
8
0
10
64
20
18.65
11
64
21
32.65
0
LINE
8
0
10
64
20
32.65
11
50
21
32.65
0
LINE
8
0
10
50
20
32.65
11
50
21
18.65
0
LINE
8
0
10
50
20
37.65
11
64
21
37.65
0
LINE
8
0
10
64
20
37.65
11
64
21
51.65
0
LINE
8
0
10
64
20
51.65
11
50
21
51.65
0
LINE
8
0
10
50
20
51.65
11
50
21
37.65
0
LINE
8
0
10
69
20
-2.44
11
83
21
-2.44
0
LINE
8
0
10
83
20
-2.44
11
83
21
11.56
0
LINE
8
0
10
83
20
11.56
11
69
21
11.56
0
LINE
8
0
10
69
20
11.56
11
69
21
-2.44
0
LINE
8
0
10
69
20
16.56
11
83
21
16.56
0
LINE
8
0
10
83
20
16.56
11
83
21
30.56
0
LINE
8
0
10
83
20
30.56
11
69
21
30.56
0
LINE
8
0
10
69
20
30.56
11
69
21
16.56
0
LINE
8
0
10
69
20
35.56
11
83
21
35.56
0
LINE
8
0
10
83
20
35.56
11
83
21
49.56
0
LINE
8
0
10
83
20
49.56
11
69
21
49.56
0
LINE
8
0
10
69
20
49.56
11
69
21
35.56
0
LINE
8
0
10
52.85
20
-24.29
11
66.85
21
-24.29
0
LINE
8
0
10
66.85
20
-24.29
11
66.85
21
-10.29
0
LINE
8
0
10
66.85
20
-10.29
11
52.85
21
-10.29
0
LINE
8
0
10
52.85
20
-10.29
11
52.85
21
-24.29
0
LINE
8
0
10
74.9307664
20
-24.6457043
11
88.7387649
21
-26.9563708
0
LINE
8
0
10
88.7387649
20
-26.9563708
11
91.0494314
21
-13.1483723
0
LINE
8
0
10
91.0494314
20
-13.1483723
11
77.2414329
21
-10.8377058
0
LINE
8
0
10
77.2414329
20
-10.8377058
11
74.9307664
21
-24.6457043
0
LINE
8
0
10
96.4176283
20
-29.555875
11
109.6548883
21
-34.1138292
0
LINE
8
0
10
109.6548883
20
-34.1138292
11
114.2128425
21
-20.8765692
0
LINE
8
0
10
114.2128425
20
-20.8765692
11
100.9755825
21
-16.318615
0
LINE
8
0
10
100.9755825
20
-16.318615
11
96.4176283
21
-29.555875
0
ENDSEC
0
EOF