0
SECTION
2
HEADER
9
$INSUNITS
70
4
0
ENDSEC
0
SECTION
2
TABLES
0
TABLE
2
LTYPE
0
LTYPE
72
65
70
64
2
CONTINUOUS
3
______
73
0
40
0
0
ENDTAB
0
TABLE
2
LAYER
0
ENDTAB
0
ENDSEC
0
SECTION
2
ENTITIES
0
LINE
8
0
10
114.5228295
20
-7.412793
11
120.2423848
21
-13.6789294
0
LINE
8
0
10
120.6562515
20
-15.6783861
11
113.0338065
21
-37.8155737
0
LINE
8
0
10
110.4916331
20
-39.0554745
11
101.6117933
21
-35.9979005
0
LINE
8
0
10
101.5957363
20
-35.9922951
11
88.7690688
21
-31.4533529
0
LINE
8
0
10
88.4319708
20
-31.3662135
11
73.745106
21
-28.9084752
0
LINE
8
0
10
73.478694
20
-28.8820605
11
67.4818321
21
-28.6910141
0
LINE
8
0
10
67.4181489
20
-28.69
11
49.2533466
21
-28.69
0
LINE
8
0
10
47.8698662
20
-28.1342928
11
30.9801338
21
-11.9557072
0
LINE
8
0
10
-9.4
20
-11.4
11
29.5966534
21
-11.4
0
LINE
8
0
10
-11.4
20
-9.4
11
-11.4
21
47.4
0
LINE
8
0
10
-9.4
20
49.4
11
5.6
21
49.4
0
LINE
8
0
10
7.6
20
51.4
11
7.6
21
55
0
LINE
8
0
10
9.6
20
57
11
24.6
21
57
0
LINE
8
0
10
26.6
20
59
11
26.6
21
60.32
0
LINE
8
0
10
28.6
20
62.32
11
47.4
21
62.32
0
LINE
8
0
10
49.4
20
60.32
11
49.4
21
58.05
0
LINE
8
0
10
51.4
20
56.05
11
65.6152603
21
56.05
0
LINE
8
0
10
67.0951404
20
55.3953456
11
68.4
21
53.96
0
LINE
8
0
10
68.4
20
53.96
11
112
21
53.96
0
LINE
8
0
10
114
20
51.96
11
114
21
-6.0644728
0
ARC
8
0
10
118.7652143
20
-15.0272497
40
2
50
340.999998
51
42.3889627
0
ARC
8
0
10
111.1427693
20
-37.1644373
40
2
50
251.0000034
51
340.999998
0
ARC
8
0
10
102.2629295
20
-34.1068633
40
2
50
250.5127791
51
251.0000034
0
ARC
8
0
10
88.1018756
20
-33.3387847
40
2
50
70.5127791
51
80.5000003
0
ARC
8
0
10
73.4150108
20
-30.8810464
40
2
50
80.5000003
51
88.1753022
0
ARC
8
0
10
67.4181489
20
-30.69
40
2
50
88.1753022
51
90
0
ARC
8
0
10
49.2533466
20
-26.69
40
2
50
226.2319789
51
270
0
ARC
8
0
10
29.5966534
20
-13.4
40
2
50
46.2319789
51
90
0
ARC
8
0
10
-9.4
20
-9.4
40
2
50
180
51
270
0
ARC
8
0
10
-9.4
20
47.4
40
2
50
90
51
180
0
ARC
8
0
10
5.6
20
51.4
40
2
50
270
51
0
0
ARC
8
0
10
9.6
20
55
40
2
50
90
51
180
0
ARC
8
0
10
24.6
20
59
40
2
50
270
51
0
0
ARC
8
0
10
28.6
20
60.32
40
2
50
90
51
180
0
ARC
8
0
10
47.4
20
60.32
40
2
50
0
51
90
0
ARC
8
0
10
51.4
20
58.05
40
2
50
180
51
270
0
ARC
8
0
10
65.6152603
20
54.05
40
2
50
42.2736882
51
90
0
ARC
8
0
10
112
20
51.96
40
2
50
0
51
90
0
ARC
8
0
10
116
20
-6.0644728
40
2
50
180
51
222.3889627
0
LINE
8
0
10
-7.5
20
-9.5
11
7.5
21
-9.5
0
LINE
8
0
10
9.5
20
-7.5
11
9.5
21
-3.9
0
LINE
8
0
10
-9.5
20
-7.5
11
-9.5
21
45.5
0
LINE
8
0
10
7.5
20
47.5
11
-7.5
21
47.5
0
LINE
8
0
10
11.5
20
-1.9
11
26.5
21
-1.9
0
LINE
8
0
10
28.5
20
0.1
11
28.5
21
1.42
0
LINE
8
0
10
26.5
20
55.1
11
11.5
21
55.1
0
LINE
8
0
10
9.5
20
53.1
11
9.5
21
49.5
0
LINE
8
0
10
30.5
20
3.42
11
45.5
21
3.42
0
LINE
8
0
10
47.5
20
56.15
11
47.5
21
58.42
0
LINE
8
0
10
45.5
20
60.42
11
30.5
21
60.42
0
LINE
8
0
10
28.5
20
58.42
11
28.5
21
57.1
0
LINE
8
0
10
49.5
20
-2.85
11
64.5
21
-2.85
0
LINE
8
0
10
47.5
20
1.42
11
47.5
21
-0.85
0
LINE
8
0
10
66.5
20
54.06
11
66.5
21
54.15
0
LINE
8
0
10
66.5
20
54.15
11
49.5
21
54.15
0
LINE
8
0
10
66.5
20
-4.94
11
83.5
21
-4.94
0
LINE
8
0
10
85.5
20
-2.94
11
85.5
21
50.06
0
LINE
8
0
10
66.5
20
-4.85
11
66.5
21
-4.94
0
LINE
8
0
10
83.5
20
52.06
11
68.5
21
52.06
0
LINE
8
0
10
52.35
20
-26.79
11
67.35
21
-26.79
0
LINE
8
0
10
69.35
20
-24.79
11
69.35
21
-9.79
0
LINE
8
0
10
67.35
20
-7.79
11
52.35
21
-7.79
0
LINE
8
0
10
50.35
20
-9.79
11
50.35
21
-24.79
0
LINE
8
0
10
74.0250046
20
-27.0288945
11
88.8192887
21
-29.5046086
0
LINE
8
0
10
91.1219551
20
-27.8621326
11
93.5976692
21
-13.0678485
0
LINE
8
0
10
91.9551932
20
-10.7651821
11
77.1609091
21
-8.289468
0
LINE
8
0
10
74.8582427
20
-9.931944
11
72.3825286
21
-24.7262281
0
LINE
8
0
10
95.1309486
20
-31.7568874
11
109.3137271
21
-36.6404097
0
LINE
8
0
10
111.8559007
20
-35.4005089
11
116.739423
21
-21.2177304
0
LINE
8
0
10
115.4995222
20
-18.6755568
11
101.3167437
21
-13.7920345
0
LINE
8
0
10
98.7745701
20
-15.0319353
11
93.8910478
21
-29.2147138
0
ARC
8
0
10
7.5
20
-7.5
40
2
50
270
51
0
0
ARC
8
0
10
11.5
20
-3.9
40
2
50
90
51
180
0
ARC
8
0
10
26.5
20
0.1
40
2
50
270
51
0
0
ARC
8
0
10
30.5
20
1.42
40
2
50
90
51
180
0
ARC
8
0
10
45.5
20
1.42
40
2
50
0
51
90
0
ARC
8
0
10
49.5
20
-0.85
40
2
50
180
51
270
0
ARC
8
0
10
64.5
20
-4.85
40
2
50
0
51
90
0
ARC
8
0
10
83.5
20
-2.94
40
2
50
270
51
0
0
ARC
8
0
10
83.5
20
50.06
40
2
50
0
51
90
0
ARC
8
0
10
68.5
20
54.06
40
2
50
180
51
270
0
ARC
8
0
10
49.5
20
56.15
40
2
50
180
51
270
0
ARC
8
0
10
45.5
20
58.42
40
2
50
0
51
90
0
ARC
8
0
10
30.5
20
58.42
40
2
50
90
51
180
0
ARC
8
0
10
26.5
20
57.1
40
2
50
270
51
0
0
ARC
8
0
10
11.5
20
53.1
40
2
50
90
51
180
0
ARC
8
0
10
7.5
20
49.5
40
2
50
270
51
0
0
ARC
8
0
10
-7.5
20
45.5
40
2
50
90
51
180
0
ARC
8
0
10
-7.5
20
-7.5
40
2
50
180
51
270
0
ARC
8
0
10
89.1493839
20
-27.5320374
40
2
50
260.5000003
51
350.5000003
0
ARC
8
0
10
91.625098
20
-12.7377533
40
2
50
350.5000003
51
80.5000003
0
ARC
8
0
10
76.8308139
20
-10.2620392
40
2
50
80.5000003
51
170.5000003
0
ARC
8
0
10
74.3550998
20
-25.0563233
40
2
50
170.5000003
51
260.5000003
0
ARC
8
0
10
67.35
20
-24.79
40
2
50
270
51
0
0
ARC
8
0
10
67.35
20
-9.79
40
2
50
0
51
90
0
ARC
8
0
10
52.35
20
-9.79
40
2
50
90
51
180
0
ARC
8
0
10
52.35
20
-24.79
40
2
50
180
51
270
0
ARC
8
0
10
109.9648635
20
-34.7493725
40
2
50
250.999998
51
340.999998
0
ARC
8
0
10
114.8483858
20
-20.566594
40
2
50
340.999998
51
70.999998
0
ARC
8
0
10
100.6656073
20
-15.6830717
40
2
50
70.999998
51
160.999998
0
ARC
8
0
10
95.782085
20
-29.8658502
40
2
50
160.999998
51
250.999998
0
ENDSEC
0
EOF